CinzelDecorative-Black.ufo
<glyph name="quotedbl" format="2">
  <advance width="394"/>
  <unicode hex="0022"/>
  <outline>
    <contour>
      <point x="59" y="700" type="line"/>
      <point x="69" y="627"/>
      <point x="65" y="593"/>
      <point x="30" y="505" type="curve"/>
      <point x="47" y="500" type="line"/>
      <point x="164" y="535"/>
      <point x="194" y="662"/>
      <point x="191" y="714" type="curve"/>
    </contour>
    <contour>
      <point x="233" y="700" type="line"/>
      <point x="243" y="627"/>
      <point x="238" y="593"/>
      <point x="204" y="505" type="curve"/>
      <point x="221" y="500" type="line"/>
      <point x="338" y="535"/>
      <point x="367" y="662"/>
      <point x="364" y="714" type="curve"/>
    </contour>
  </outline>
</glyph>
<glyph name="dollar" format="2">
  <advance width="615"/>
  <unicode hex="0024"/>
  <outline>
    <contour>
      <point x="284.027" y="714" type="curve" smooth="yes"/>
      <point x="150.027" y="714"/>
      <point x="65.027" y="651"/>
      <point x="51.027" y="535" type="curve" smooth="yes"/>
      <point x="39.027" y="440"/>
      <point x="82.027" y="362"/>
      <point x="173.593" y="319.61" type="curve" smooth="yes"/>
      <point x="336.644" y="244.285" type="line" smooth="yes"/>
      <point x="413.027" y="209"/>
      <point x="443.027" y="176"/>
      <point x="442.924" y="134.476" type="curve" smooth="yes"/>
      <point x="443.027" y="83"/>
      <point x="398.027" y="36"/>
      <point x="302.027" y="36" type="curve" smooth="yes"/>
      <point x="162.027" y="36"/>
      <point x="78.027" y="135"/>
      <point x="84.729" y="240.047" type="curve"/>
      <point x="75.937" y="240.047" type="line"/>
      <point x="42.704" y="197.21"/>
      <point x="21.924" y="99.51"/>
      <point x="44.377" y="50.639" type="curve"/>
      <point x="79.027" y="15"/>
      <point x="165.027" y="-14"/>
      <point x="281.027" y="-14" type="curve" smooth="yes"/>
      <point x="470.027" y="-14"/>
      <point x="585.027" y="63"/>
      <point x="595.027" y="206" type="curve" smooth="yes"/>
      <point x="602.027" y="303"/>
      <point x="554.027" y="366"/>
      <point x="479.639" y="400.221" type="curve" smooth="yes"/>
      <point x="292.739" y="486.53" type="line" smooth="yes"/>
      <point x="243.027" y="509"/>
      <point x="200.027" y="532"/>
      <point x="204.027" y="580" type="curve" smooth="yes"/>
      <point x="208.027" y="629"/>
      <point x="258.027" y="664"/>
      <point x="340.027" y="664" type="curve" smooth="yes"/>
      <point x="439.027" y="664"/>
      <point x="499.027" y="614"/>
      <point x="499.436" y="541.034" type="curve"/>
      <point x="509.065" y="541.034" type="line"/>
      <point x="529.065" y="691.869" type="line"/>
      <point x="506.027" y="702"/>
      <point x="343.027" y="714"/>
    </contour>
    <contour>
      <point x="530.643" y="703.741" type="line"/>
      <point x="382.56" y="703.741" type="line" smooth="yes"/>
      <point x="382.56" y="683.478" type="line"/>
      <point x="527.95" y="683.478" type="line"/>
    </contour>
    <contour>
      <point x="333.871" y="787.988" type="line"/>
      <point x="266.08" y="-99" type="line"/>
      <point x="314.05" y="-102" type="line"/>
      <point x="382.395" y="786.94" type="line"/>
    </contour>
  </outline>
</glyph>
<glyph name="percent" format="2">
  <advance width="777"/>
  <unicode hex="0025"/>
  <outline>
    <contour>
      <point x="229.474" y="714" type="curve" smooth="yes"/>
      <point x="115.205" y="714"/>
      <point x="38.577" y="651.971"/>
      <point x="23.168" y="547" type="curve" smooth="yes"/>
      <point x="6.007" y="430.086"/>
      <point x="59.235" y="361"/>
      <point x="166.474" y="361" type="curve" smooth="yes"/>
      <point x="286.811" y="361"/>
      <point x="365.068" y="426.371"/>
      <point x="377.169" y="537" type="curve" smooth="yes"/>
      <point x="389.337" y="648.257"/>
      <point x="334.48" y="714"/>
    </contour>
    <contour>
      <point x="224.787" y="674" type="curve" smooth="yes"/>
      <point x="250.154" y="674"/>
      <point x="259.175" y="622.743"/>
      <point x="249.072" y="536" type="curve" smooth="yes"/>
      <point x="239.098" y="451.89"/>
      <point x="214.502" y="401.716"/>
      <point x="182.851" y="400.916" type="curve"/>
      <point x="157.109" y="400.999"/>
      <point x="149.026" y="451.544"/>
      <point x="161.089" y="537" type="curve" smooth="yes"/>
      <point x="173.357" y="623.114"/>
      <point x="197.016" y="674"/>
    </contour>
    <contour>
      <point x="210.944" y="-19" type="line"/>
      <point x="583.289" y="692" type="line"/>
      <point x="544.061" y="709" type="line"/>
      <point x="511.168" y="693"/>
      <point x="464.169" y="661"/>
      <point x="409.169" y="665" type="curve" smooth="yes"/>
      <point x="349.169" y="669"/>
      <point x="334.169" y="715"/>
      <point x="230.474" y="714" type="curve"/>
      <point x="243.839" y="678.805" type="line"/>
      <point x="301.169" y="683"/>
      <point x="336.169" y="641"/>
      <point x="408.169" y="631" type="curve" smooth="yes"/>
      <point x="439.169" y="627"/>
      <point x="475.937" y="629.795"/>
      <point x="511.908" y="653.453" type="curve"/>
      <point x="166.246" y="0" type="line"/>
    </contour>
    <contour>
      <point x="590.112" y="339" type="curve" smooth="yes"/>
      <point x="476.358" y="339"/>
      <point x="399.865" y="276.971"/>
      <point x="384.169" y="172" type="curve" smooth="yes"/>
      <point x="366.686" y="55.086"/>
      <point x="419.779" y="-14"/>
      <point x="527.112" y="-14" type="curve" smooth="yes"/>
      <point x="650.118" y="-14"/>
      <point x="728.51" y="51.371"/>
      <point x="738.168" y="162" type="curve" smooth="yes"/>
      <point x="747.881" y="273.257"/>
      <point x="692.889" y="339"/>
    </contour>
    <contour>
      <point x="578.878" y="299" type="curve" smooth="yes"/>
      <point x="604.737" y="299"/>
      <point x="613.892" y="247.743"/>
      <point x="603.526" y="161" type="curve" smooth="yes"/>
      <point x="593.368" y="76.155"/>
      <point x="568.637" y="25.981"/>
      <point x="536.943" y="25.916" type="curve"/>
      <point x="511.428" y="25.993"/>
      <point x="503.48" y="76.539"/>
      <point x="515.544" y="162" type="curve" smooth="yes"/>
      <point x="527.572" y="248.114"/>
      <point x="551.096" y="299"/>
    </contour>
  </outline>
</glyph>
<glyph name="quotesingle" format="2">
  <advance width="220"/>
  <unicode hex="0027"/>
  <outline>
    <contour>
      <point x="59.328" y="700" type="line"/>
      <point x="69.472" y="627.334"/>
      <point x="64.839" y="592.918"/>
      <point x="30" y="505.251" type="curve"/>
      <point x="46.902" y="500" type="line"/>
      <point x="164.31" y="535.343"/>
      <point x="193.678" y="662.464"/>
      <point x="190.526" y="714" type="curve"/>
    </contour>
  </outline>
</glyph>
<glyph name="parenleft" format="2">
  <advance width="478"/>
  <unicode hex="0028"/>
  <outline>
    <contour>
      <point x="448.511" y="724" type="curve"/>
      <point x="442.511" y="732" type="line"/>
      <point x="195.503" y="705.299"/>
      <point x="90" y="542.883"/>
      <point x="90" y="333.717" type="curve" smooth="yes"/>
      <point x="90" y="140.518"/>
      <point x="195.042" y="-41"/>
      <point x="440.717" y="-100" type="curve"/>
      <point x="446.717" y="-91" type="line"/>
      <point x="348.503" y="-22"/>
      <point x="293.83" y="107.404"/>
      <point x="290" y="335.511" type="curve" smooth="yes"/>
      <point x="286.509" y="543.453"/>
      <point x="342.406" y="673.354"/>
    </contour>
  </outline>
</glyph>
<glyph name="asterisk" format="2">
  <advance width="390"/>
  <unicode hex="002A"/>
  <outline>
    <contour>
      <point x="293" y="474" type="line"/>
      <point x="328" y="516" type="line"/>
      <point x="269" y="574" type="line"/>
      <point x="202" y="605" type="line"/>
      <point x="195" y="600" type="line"/>
      <point x="204" y="527" type="line"/>
      <point x="242" y="454" type="line"/>
    </contour>
    <contour>
      <point x="98" y="473" type="line"/>
      <point x="150" y="454" type="line"/>
      <point x="187" y="527" type="line"/>
      <point x="195" y="600" type="line"/>
      <point x="189" y="605" type="line"/>
      <point x="122" y="574" type="line"/>
      <point x="64" y="516" type="line"/>
    </contour>
    <contour>
      <point x="38" y="658" type="line"/>
      <point x="35" y="604" type="line"/>
      <point x="116" y="591" type="line"/>
      <point x="189" y="605" type="line"/>
      <point x="191" y="613" type="line"/>
      <point x="141" y="667" type="line"/>
      <point x="68" y="704" type="line"/>
    </contour>
    <contour>
      <point x="195" y="773" type="line"/>
      <point x="142" y="759" type="line"/>
      <point x="156" y="678" type="line"/>
      <point x="191" y="613" type="line"/>
      <point x="200" y="613" type="line"/>
      <point x="236" y="678" type="line"/>
      <point x="248" y="759" type="line"/>
    </contour>
    <contour>
      <point x="353" y="659" type="line"/>
      <point x="323" y="705" type="line"/>
      <point x="250" y="667" type="line"/>
      <point x="200" y="613" type="line"/>
      <point x="202" y="605" type="line"/>
      <point x="274" y="591" type="line"/>
      <point x="356" y="604" type="line"/>
    </contour>
    <contour>
      <point x="199" y="614" type="line"/>
      <point x="193" y="614" type="line" smooth="yes"/>
      <point x="190" y="613" type="line"/>
      <point x="188" y="607" type="line" smooth="yes"/>
      <point x="188" y="604" type="line"/>
      <point x="193" y="600" type="line"/>
      <point x="193" y="600"/>
      <point x="195" y="600"/>
      <point x="196" y="600" type="curve"/>
      <point x="202" y="604" type="line"/>
      <point x="203" y="606" type="line"/>
      <point x="202" y="612" type="line"/>
    </contour>
  </outline>
</glyph>
<glyph name="comma" format="2">
  <advance width="260"/>
  <unicode hex="002C"/>
  <outline>
    <contour>
      <point x="67.935" y="149" type="curve" smooth="yes"/>
      <point x="28.935" y="121"/>
      <point x="22.862" y="51.838"/>
      <point x="58.935" y="11" type="curve" smooth="yes"/>
      <point x="111.935" y="-49"/>
      <point x="76.935" y="-100"/>
      <point x="40.84" y="-116" type="curve"/>
      <point x="44.686" y="-129" type="line"/>
      <point x="164.935" y="-152"/>
      <point x="263.935" y="-10"/>
      <point x="209.935" y="108" type="curve" smooth="yes"/>
      <point x="184.935" y="163"/>
      <point x="112.935" y="182"/>
    </contour>
  </outline>
</glyph>
<glyph name="slash" format="2">
  <advance width="439"/>
  <unicode hex="002F"/>
  <unicode hex="2215"/>
  <outline>
    <contour>
      <point x="371" y="723" type="line"/>
      <point x="10" y="14" type="line"/>
      <point x="69" y="-14" type="line"/>
      <point x="430" y="697" type="line"/>
    </contour>
  </outline>
</glyph>
<glyph name="zero" format="2">
  <advance width="700"/>
  <unicode hex="0030"/>
  <outline>
    <contour>
      <point x="350" y="614" type="curve" smooth="yes"/>
      <point x="155" y="614"/>
      <point x="40" y="497"/>
      <point x="40" y="300" type="curve" smooth="yes"/>
      <point x="40" y="103"/>
      <point x="155" y="-14"/>
      <point x="350" y="-14" type="curve" smooth="yes"/>
      <point x="545.002" y="-14"/>
      <point x="660" y="103"/>
      <point x="660" y="300" type="curve" smooth="yes"/>
      <point x="660" y="497"/>
      <point x="545.002" y="614"/>
    </contour>
    <contour>
      <point x="350" y="564" type="curve" smooth="yes"/>
      <point x="413.002" y="564"/>
      <point x="450" y="466"/>
      <point x="450" y="300" type="curve" smooth="yes"/>
      <point x="450" y="134"/>
      <point x="413.002" y="36"/>
      <point x="350" y="36" type="curve"/>
      <point x="287" y="36"/>
      <point x="250" y="134"/>
      <point x="250" y="300" type="curve" smooth="yes"/>
      <point x="250" y="466"/>
      <point x="287" y="564"/>
    </contour>
  </outline>
</glyph>
<glyph name="one" format="2">
  <advance width="406"/>
  <unicode hex="0031"/>
  <outline>
    <contour>
      <point x="305" y="598" type="line"/>
      <point x="101" y="598" type="line"/>
      <point x="101" y="64" type="line" smooth="yes"/>
      <point x="101" y="34"/>
      <point x="76" y="10"/>
      <point x="46" y="10" type="curve" smooth="yes"/>
      <point x="25" y="10" type="line"/>
      <point x="25" y="0" type="line"/>
      <point x="382" y="0" type="line"/>
      <point x="381" y="10" type="line"/>
      <point x="361" y="10" type="line" smooth="yes"/>
      <point x="331" y="10"/>
      <point x="305" y="34"/>
      <point x="305" y="63" type="curve" smooth="yes"/>
    </contour>
    <contour>
      <point x="382" y="600" type="line"/>
      <point x="25" y="600.008" type="line"/>
      <point x="25" y="590" type="line"/>
      <point x="46" y="590" type="line" smooth="yes"/>
      <point x="76" y="590"/>
      <point x="101" y="566"/>
      <point x="101" y="537" type="curve" smooth="yes"/>
      <point x="305" y="536" type="line"/>
      <point x="305" y="566"/>
      <point x="330" y="590"/>
      <point x="361" y="590" type="curve" smooth="yes"/>
      <point x="381" y="590" type="line"/>
    </contour>
  </outline>
</glyph>
<glyph name="two" format="2">
  <advance width="658"/>
  <unicode hex="0032"/>
  <outline>
    <contour>
      <point x="97" y="392" type="line"/>
      <point x="107" y="392" type="line"/>
      <point x="107" y="513"/>
      <point x="151" y="580"/>
      <point x="235" y="587" type="curve" smooth="yes"/>
      <point x="314" y="593"/>
      <point x="363" y="547"/>
      <point x="363" y="474" type="curve" smooth="yes"/>
      <point x="363" y="327"/>
      <point x="178" y="177"/>
      <point x="36" y="9" type="curve"/>
      <point x="36" y="0" type="line"/>
      <point x="556" y="0" type="line"/>
      <point x="624" y="273" type="line"/>
      <point x="614" y="273" type="line"/>
      <point x="579" y="207"/>
      <point x="536" y="176"/>
      <point x="477" y="176" type="curve"/>
      <point x="287" y="176" type="line"/>
      <point x="386" y="228"/>
      <point x="578" y="312"/>
      <point x="578" y="451" type="curve" smooth="yes"/>
      <point x="578" y="567"/>
      <point x="454" y="635"/>
      <point x="292" y="635" type="curve" smooth="yes"/>
      <point x="195" y="635"/>
      <point x="89" y="611"/>
      <point x="30" y="563" type="curve"/>
    </contour>
  </outline>
</glyph>
<glyph name="three" format="2">
  <advance width="602"/>
  <unicode hex="0033"/>
  <outline>
    <contour>
      <point x="279" y="612" type="curve" smooth="yes"/>
      <point x="171" y="612"/>
      <point x="81" y="583"/>
      <point x="30" y="541" type="curve"/>
      <point x="87" y="368" type="line"/>
      <point x="97" y="368" type="line"/>
      <point x="94" y="493"/>
      <point x="125" y="555"/>
      <point x="205" y="562" type="curve" smooth="yes"/>
      <point x="265" y="568"/>
      <point x="320" y="539"/>
      <point x="327" y="465" type="curve" smooth="yes"/>
      <point x="336" y="368"/>
      <point x="256" y="291"/>
      <point x="164" y="294" type="curve"/>
      <point x="162" y="284" type="line"/>
      <point x="248" y="283"/>
      <point x="347" y="238"/>
      <point x="347" y="116" type="curve" smooth="yes"/>
      <point x="347" y="-30"/>
      <point x="205" y="-126"/>
      <point x="41" y="-122" type="curve"/>
      <point x="39" y="-132" type="line"/>
      <point x="260" y="-231"/>
      <point x="562" y="-135"/>
      <point x="562" y="100" type="curve" smooth="yes"/>
      <point x="562" y="255"/>
      <point x="433" y="298"/>
      <point x="354" y="299" type="curve"/>
      <point x="432" y="278"/>
      <point x="533" y="328"/>
      <point x="533" y="440" type="curve" smooth="yes"/>
      <point x="533" y="549"/>
      <point x="438" y="612"/>
    </contour>
  </outline>
</glyph>
<glyph name="four" format="2">
  <advance width="643"/>
  <unicode hex="0034"/>
  <outline>
    <contour>
      <point x="306" y="398" type="line"/>
      <point x="306" y="-99" type="line"/>
      <point x="511" y="-99" type="line"/>
      <point x="511" y="614" type="line"/>
      <point x="501" y="614" type="line"/>
    </contour>
    <contour>
      <point x="501" y="614" type="line"/>
      <point x="-15" y="99" type="line"/>
      <point x="-15" y="89" type="line"/>
      <point x="598" y="89" type="line"/>
      <point x="629" y="234" type="line"/>
      <point x="619" y="234" type="line"/>
      <point x="607" y="208"/>
      <point x="591" y="194"/>
      <point x="554" y="194" type="curve"/>
      <point x="154" y="194" type="line"/>
      <point x="510" y="540" type="line"/>
    </contour>
    <contour>
      <point x="511" y="-36" type="curve"/>
      <point x="306" y="-36" type="line"/>
      <point x="306" y="-67"/>
      <point x="281" y="-90"/>
      <point x="250" y="-90" type="curve" smooth="yes"/>
      <point x="240" y="-90" type="line"/>
      <point x="239" y="-100" type="line"/>
      <point x="577" y="-100" type="line"/>
      <point x="577" y="-90" type="line"/>
      <point x="566" y="-90" type="line" smooth="yes"/>
      <point x="536" y="-90"/>
      <point x="511" y="-66"/>
    </contour>
  </outline>
</glyph>
<glyph name="five" format="2">
  <advance width="592"/>
  <unicode hex="0035"/>
  <outline>
    <contour>
      <point x="478" y="432" type="line"/>
      <point x="520" y="639" type="line"/>
      <point x="510" y="639" type="line"/>
      <point x="495" y="609"/>
      <point x="473" y="589"/>
      <point x="431" y="589" type="curve"/>
      <point x="133" y="564" type="line"/>
      <point x="50" y="180" type="line"/>
      <point x="59" y="174" type="line"/>
      <point x="210" y="236"/>
      <point x="329" y="190"/>
      <point x="322" y="76" type="curve" smooth="yes"/>
      <point x="313" y="-73"/>
      <point x="97" y="-124"/>
      <point x="12" y="-121" type="curve"/>
      <point x="10" y="-131" type="line"/>
      <point x="195" y="-229"/>
      <point x="530" y="-154"/>
      <point x="541" y="94" type="curve" smooth="yes"/>
      <point x="549" y="264"/>
      <point x="409" y="385"/>
      <point x="152" y="324" type="curve"/>
      <point x="171" y="407" type="line"/>
    </contour>
  </outline>
</glyph>
<glyph name="six" format="2">
  <advance width="675"/>
  <unicode hex="0036"/>
  <outline>
    <contour>
      <point x="559.058" y="734.431" type="line"/>
      <point x="210.538" y="776"/>
      <point x="39.875" y="600"/>
      <point x="40" y="315" type="curve" smooth="yes"/>
      <point x="40.101" y="86"/>
      <point x="147.778" y="-18"/>
      <point x="344" y="-15" type="curve" smooth="yes"/>
      <point x="542.154" y="-12"/>
      <point x="630.899" y="94.991"/>
      <point x="635" y="229" type="curve" smooth="yes"/>
      <point x="643.018" y="490.991"/>
      <point x="352.964" y="499"/>
      <point x="297.48" y="373.287" type="curve"/>
      <point x="304.834" y="365.287" type="line"/>
      <point x="321.535" y="376"/>
      <point x="350.397" y="388.159"/>
      <point x="380" y="376" type="curve" smooth="yes"/>
      <point x="408.83" y="364.159"/>
      <point x="430.077" y="332"/>
      <point x="430" y="218" type="curve" smooth="yes"/>
      <point x="429.939" y="127"/>
      <point x="415.328" y="45"/>
      <point x="341.277" y="45" type="curve" smooth="yes"/>
      <point x="267.562" y="45"/>
      <point x="264.705" y="128"/>
      <point x="264.705" y="294" type="curve" smooth="yes"/>
      <point x="264.705" y="515"/>
      <point x="277.737" y="639"/>
      <point x="562.666" y="727.022" type="curve"/>
    </contour>
  </outline>
</glyph>
<glyph name="seven" format="2">
  <advance width="572"/>
  <unicode hex="0037"/>
  <outline>
    <contour>
      <point x="5" y="365" type="line"/>
      <point x="33" y="598" type="line"/>
      <point x="563" y="600" type="line"/>
      <point x="435" y="303" type="line" smooth="yes"/>
      <point x="393" y="206"/>
      <point x="322.999" y="-11"/>
      <point x="298" y="-100" type="curve"/>
      <point x="128" y="-100" type="line"/>
      <point x="189" y="0"/>
      <point x="316" y="224"/>
      <point x="358" y="314" type="curve" smooth="yes"/>
      <point x="410" y="425" type="line"/>
      <point x="90" y="425" type="line"/>
      <point x="50" y="425"/>
      <point x="30" y="405"/>
      <point x="15" y="365" type="curve"/>
    </contour>
  </outline>
</glyph>
<glyph name="nine" format="2">
  <advance width="675"/>
  <unicode hex="0039"/>
  <outline>
    <contour>
      <point x="116" y="-138" type="line"/>
      <point x="464" y="-180"/>
      <point x="635" y="-4"/>
      <point x="635" y="281" type="curve" smooth="yes"/>
      <point x="635" y="510"/>
      <point x="527" y="614"/>
      <point x="331" y="611" type="curve" smooth="yes"/>
      <point x="132" y="608"/>
      <point x="44" y="501"/>
      <point x="40" y="367" type="curve" smooth="yes"/>
      <point x="32" y="105"/>
      <point x="322" y="97"/>
      <point x="377" y="223" type="curve"/>
      <point x="370" y="231" type="line"/>
      <point x="353" y="220"/>
      <point x="325" y="208"/>
      <point x="295" y="220" type="curve" smooth="yes"/>
      <point x="266" y="232"/>
      <point x="245" y="264"/>
      <point x="245" y="378" type="curve" smooth="yes"/>
      <point x="245" y="469"/>
      <point x="260" y="551"/>
      <point x="334" y="551" type="curve" smooth="yes"/>
      <point x="407" y="551"/>
      <point x="410" y="468"/>
      <point x="410" y="302" type="curve" smooth="yes"/>
      <point x="410" y="81"/>
      <point x="397" y="-43"/>
      <point x="112" y="-131" type="curve"/>
    </contour>
  </outline>
</glyph>
<glyph name="less" format="2">
  <advance width="501"/>
  <unicode hex="003C"/>
  <outline>
    <contour>
      <point x="441.723" y="455.253" type="line"/>
      <point x="441.723" y="526.253" type="line"/>
      <point x="40" y="339.255" type="line"/>
      <point x="40" y="280.255" type="line"/>
      <point x="441.723" y="93.254" type="line"/>
      <point x="441.723" y="164.254" type="line"/>
      <point x="80.011" y="335.016" type="line"/>
      <point x="80.011" y="285.016" type="line"/>
    </contour>
  </outline>
</glyph>
<glyph name="greater" format="2">
  <advance width="481"/>
  <unicode hex="003E"/>
  <outline>
    <contour>
      <point x="40" y="455.253" type="line"/>
      <point x="401.712" y="285.016" type="line"/>
      <point x="401.712" y="335.016" type="line"/>
      <point x="40" y="164.254" type="line"/>
      <point x="40" y="93.254" type="line"/>
      <point x="441.723" y="280.255" type="line"/>
      <point x="441.723" y="339.255" type="line"/>
      <point x="40" y="526.253" type="line"/>
    </contour>
  </outline>
</glyph>
<glyph name="at" format="2">
  <advance width="998"/>
  <unicode hex="0040"/>
  <outline>
    <contour>
      <point x="631" y="688" type="curve" smooth="yes"/>
      <point x="374" y="723"/>
      <point x="131" y="598"/>
      <point x="47" y="395" type="curve" smooth="yes"/>
      <point x="-29" y="212"/>
      <point x="67" y="66"/>
      <point x="205" y="73" type="curve" smooth="yes"/>
      <point x="285" y="77"/>
      <point x="332" y="131"/>
      <point x="435" y="277" type="curve" smooth="yes"/>
      <point x="564" y="459" type="line"/>
      <point x="577" y="541" type="line"/>
      <point x="571" y="541" type="line"/>
      <point x="562" y="521"/>
      <point x="516" y="464"/>
      <point x="516" y="464" type="curve"/>
      <point x="389" y="291" type="line" smooth="yes"/>
      <point x="338" y="227"/>
      <point x="278" y="115"/>
      <point x="205" y="118" type="curve" smooth="yes"/>
      <point x="125" y="121"/>
      <point x="141" y="262"/>
      <point x="202" y="390" type="curve" smooth="yes"/>
      <point x="305" y="608"/>
      <point x="486" y="674"/>
      <point x="625" y="642" type="curve" smooth="yes"/>
      <point x="760" y="611"/>
      <point x="829" y="493"/>
      <point x="819" y="321" type="curve" smooth="yes"/>
      <point x="801" y="11"/>
      <point x="540" y="-190"/>
      <point x="204" y="-53" type="curve"/>
      <point x="208" y="-63" type="line"/>
      <point x="663" y="-247"/>
      <point x="966" y="7"/>
      <point x="974" y="314" type="curve" smooth="yes"/>
      <point x="979" y="503"/>
      <point x="869" y="655"/>
    </contour>
    <contour>
      <point x="537" y="225" type="line"/>
      <point x="348" y="225" type="line"/>
      <point x="333" y="190" type="line"/>
      <point x="521" y="190" type="line"/>
    </contour>
    <contour>
      <point x="661" y="137" type="curve"/>
      <point x="515" y="137" type="line"/>
      <point x="520" y="107"/>
      <point x="491" y="90"/>
      <point x="474" y="90" type="curve" smooth="yes"/>
      <point x="467" y="90" type="line"/>
      <point x="466" y="83" type="line"/>
      <point x="704" y="83" type="line"/>
      <point x="706" y="90" type="line"/>
      <point x="706" y="90"/>
      <point x="699" y="90"/>
      <point x="701" y="90" type="curve" smooth="yes"/>
      <point x="681" y="90"/>
      <point x="667" y="104"/>
    </contour>
    <contour>
      <point x="577" y="541" type="line"/>
      <point x="478" y="382" type="line"/>
      <point x="523" y="87" type="line"/>
      <point x="671" y="87" type="line"/>
    </contour>
  </outline>
</glyph>
<glyph name="A" format="2">
  <advance width="702"/>
  <unicode hex="0041"/>
  <anchor x="547" y="10" name="ogonek"/>
  <anchor x="328.812" y="784" name="top"/>
  <outline>
    <contour>
      <point x="136.092" y="72.681" type="curve"/>
      <point x="56.7" y="73.013" type="line"/>
      <point x="35.488" y="28.464"/>
      <point x="-1" y="10"/>
      <point x="-31" y="10" type="curve" smooth="yes"/>
      <point x="-31" y="10"/>
      <point x="-40" y="10"/>
      <point x="-40" y="10" type="curve"/>
      <point x="-40" y="0" type="line"/>
      <point x="183.279" y="0" type="line"/>
      <point x="183.279" y="9.908" type="line"/>
      <point x="174.487" y="9.908" type="line" smooth="yes"/>
      <point x="148.67" y="9.908"/>
      <point x="118.49" y="32.664"/>
    </contour>
    <contour>
      <point x="351.3" y="567.543" type="line"/>
      <point x="285.361" y="574.867" type="line"/>
      <point x="24.19" y="3.095" type="line"/>
      <point x="105.233" y="3.095" type="line"/>
    </contour>
    <contour>
      <point x="432.513" y="216" type="line"/>
      <point x="150.293" y="216" type="line"/>
      <point x="150.293" y="166" type="line"/>
      <point x="432.513" y="166" type="line"/>
    </contour>
    <contour>
      <point x="36.344" y="713.835" type="curve"/>
      <point x="38.226" y="703.731" type="line"/>
      <point x="201.955" y="763.731"/>
      <point x="255.391" y="497.003"/>
      <point x="306.956" y="370.504" type="curve" smooth="yes"/>
      <point x="417.399" y="99.563" type="line" smooth="yes"/>
      <point x="537.606" y="-195"/>
      <point x="792.285" y="-279"/>
      <point x="977.975" y="-171" type="curve"/>
      <point x="976.102" y="-161" type="line"/>
      <point x="794.24" y="-210"/>
      <point x="693.68" y="-6"/>
      <point x="623.138" y="155.212" type="curve" smooth="yes"/>
      <point x="462.755" y="521.535" type="line" smooth="yes"/>
      <point x="372.17" y="728.435"/>
      <point x="224.45" y="826.42"/>
    </contour>
  </outline>
</glyph>
<glyph name="B" format="2">
  <advance width="755"/>
  <unicode hex="0042"/>
  <outline>
    <contour>
      <point x="181.136" y="700" type="line" smooth="yes"/>
      <point x="181.136" y="700"/>
      <point x="191.188" y="651.642"/>
      <point x="191.188" y="650.119" type="curve"/>
      <point x="303.701" y="649.989" type="line"/>
      <point x="402.873" y="652"/>
      <point x="430.873" y="607"/>
      <point x="434.873" y="516" type="curve" smooth="yes"/>
      <point x="435.873" y="490"/>
      <point x="438.873" y="381"/>
      <point x="364.541" y="381.304" type="curve"/>
      <point x="364.769" y="371.96" type="line"/>
      <point x="438.873" y="372"/>
      <point x="515.873" y="332"/>
      <point x="520.873" y="222" type="curve" smooth="yes"/>
      <point x="525.873" y="106"/>
      <point x="447.873" y="38"/>
      <point x="326.873" y="38" type="curve" smooth="yes"/>
      <point x="194.873" y="38"/>
      <point x="2.873" y="118"/>
      <point x="2.873" y="381.228" type="curve"/>
      <point x="-7" y="380.245" type="line"/>
      <point x="-37" y="62"/>
      <point x="173.873" y="-3"/>
      <point x="342.873" y="-14" type="curve" smooth="yes"/>
      <point x="565.873" y="-29"/>
      <point x="758.873" y="46"/>
      <point x="755.873" y="209" type="curve" smooth="yes"/>
      <point x="753.873" y="323"/>
      <point x="656.873" y="387"/>
      <point x="564.074" y="382.846" type="curve"/>
      <point x="610.873" y="401"/>
      <point x="650.873" y="458"/>
      <point x="649.873" y="524" type="curve" smooth="yes"/>
      <point x="647.873" y="645"/>
      <point x="508.873" y="700"/>
      <point x="357.32" y="700" type="curve" smooth="yes"/>
    </contour>
    <contour>
      <point x="330.839" y="700" type="line"/>
      <point x="125.722" y="700" type="line"/>
      <point x="125.722" y="54.904" type="line"/>
      <point x="330.839" y="4.739" type="line"/>
    </contour>
    <contour>
      <point x="128.651" y="627.715" type="line"/>
      <point x="128.651" y="700.06" type="line"/>
      <point x="48.876" y="700.06" type="line"/>
      <point x="49.038" y="690.131" type="line"/>
      <point x="50.873" y="690.072"/>
      <point x="59.873" y="690.072"/>
      <point x="61.873" y="690.072" type="curve" smooth="yes"/>
      <point x="95.873" y="690.072"/>
      <point x="124.873" y="663.244"/>
      <point x="125.742" y="627.715" type="curve"/>
    </contour>
  </outline>
</glyph>
<glyph name="C" format="2">
  <advance width="830"/>
  <unicode hex="0043"/>
  <anchor x="467.32" y="-9.388" name="bottom"/>
  <anchor x="452" y="764" name="top"/>
  <outline>
    <contour>
      <point x="815.328" y="401.886" type="curve"/>
      <point x="807.006" y="401.85" type="line"/>
      <point x="815.793" y="162.752"/>
      <point x="682.274" y="35.929"/>
      <point x="498.128" y="35.929" type="curve"/>
      <point x="321" y="42"/>
      <point x="230" y="169"/>
      <point x="230" y="358" type="curve" smooth="yes"/>
      <point x="230" y="546"/>
      <point x="320" y="664"/>
      <point x="483" y="664" type="curve" smooth="yes"/>
      <point x="580" y="664"/>
      <point x="677" y="622"/>
      <point x="717.378" y="477.264" type="curve"/>
      <point x="725.701" y="477.232" type="line"/>
      <point x="735.525" y="668.468" type="line"/>
      <point x="680" y="692"/>
      <point x="591" y="714"/>
      <point x="478" y="714" type="curve" smooth="yes"/>
      <point x="190" y="714"/>
      <point x="10" y="571"/>
      <point x="10" y="346" type="curve" smooth="yes"/>
      <point x="10" y="133"/>
      <point x="171" y="-14"/>
      <point x="478.128" y="-14" type="curve"/>
      <point x="695.905" y="-14"/>
      <point x="852.99" y="134.237"/>
    </contour>
  </outline>
</glyph>
<glyph name="E" format="2">
  <advance width="712"/>
  <unicode hex="0045"/>
  <anchor x="378.706" y="0" name="bottom"/>
  <anchor x="627.919" y="4.638" name="ogonek"/>
  <anchor x="279.039" y="764" name="top"/>
  <outline>
    <contour>
      <point x="311.901" y="700" type="line"/>
      <point x="106.869" y="700" type="line"/>
      <point x="106.869" y="0" type="line"/>
      <point x="311.901" y="0" type="line"/>
    </contour>
    <contour>
      <point x="631.857" y="50.59" type="line"/>
      <point x="309.082" y="50.59" type="line"/>
      <point x="309.082" y="0" type="line"/>
      <point x="671.857" y="0" type="line"/>
    </contour>
    <contour>
      <point x="569.032" y="370.218" type="line"/>
      <point x="309.082" y="370.218" type="line"/>
      <point x="309.082" y="320.218" type="line"/>
      <point x="569.032" y="320.218" type="line"/>
    </contour>
    <contour>
      <point x="481.797" y="700" type="line"/>
      <point x="309.082" y="700" type="line"/>
      <point x="309.082" y="649.409" type="line" smooth="yes"/>
      <point x="481.797" y="649.409" type="line"/>
    </contour>
    <contour>
      <point x="712.845" y="231.543" type="line"/>
      <point x="702.845" y="231.543" type="line"/>
      <point x="671.753" y="117.359"/>
      <point x="591.283" y="50.592"/>
      <point x="495.32" y="50.592" type="curve"/>
      <point x="459.016" y="0" type="line"/>
      <point x="674.557" y="0" type="line"/>
    </contour>
    <contour>
      <point x="569.032" y="322.487" type="line"/>
      <point x="450.904" y="322.487" type="line"/>
      <point x="450.904" y="320.249" type="line"/>
      <point x="514.378" y="319.055"/>
      <point x="559.487" y="273.785"/>
      <point x="559.275" y="210.977" type="curve" smooth="yes"/>
      <point x="559.259" y="206.243" type="line"/>
      <point x="569.032" y="206.119" type="line"/>
    </contour>
    <contour>
      <point x="569.032" y="484.375" type="line"/>
      <point x="559.259" y="484.25" type="line"/>
      <point x="559.276" y="479.516" type="line" smooth="yes"/>
      <point x="559.501" y="416.714"/>
      <point x="514.451" y="371.446"/>
      <point x="450.904" y="370.248" type="curve"/>
      <point x="450.904" y="368.012" type="line"/>
      <point x="569.032" y="368.012" type="line"/>
    </contour>
    <contour>
      <point x="481.846" y="652.218" type="line"/>
      <point x="343.236" y="652.218" type="line"/>
      <point x="343.236" y="649.51" type="line"/>
      <point x="424.22" y="647.987"/>
      <point x="471.959" y="599.769"/>
      <point x="471.765" y="519.891" type="curve" smooth="yes"/>
      <point x="471.746" y="512.067" type="line"/>
      <point x="481.846" y="511.917" type="line"/>
    </contour>
    <contour>
      <point x="481.811" y="718.187" type="line"/>
      <point x="462.862" y="710.201"/>
      <point x="403.24" y="699.987"/>
      <point x="359.88" y="699.987" type="curve"/>
      <point x="481.811" y="688.909" type="line"/>
    </contour>
    <contour>
      <point x="109.775" y="72.864" type="line"/>
      <point x="106.865" y="72.864" type="line"/>
      <point x="106.21" y="38.029"/>
      <point x="77.813" y="9.979"/>
      <point x="42.811" y="9.979" type="curve" smooth="yes"/>
      <point x="42.659" y="9.979"/>
      <point x="30.318" y="10"/>
      <point x="30.161" y="10" type="curve"/>
      <point x="30" y="0" type="line"/>
      <point x="109.775" y="0" type="line"/>
    </contour>
    <contour>
      <point x="109.782" y="627.196" type="line"/>
      <point x="109.782" y="700.06" type="line"/>
      <point x="30.007" y="700.06" type="line"/>
      <point x="30.169" y="690.06" type="line"/>
      <point x="30.326" y="690.06"/>
      <point x="42.667" y="690.08"/>
      <point x="42.819" y="690.08" type="curve" smooth="yes"/>
      <point x="77.82" y="690.08"/>
      <point x="106.217" y="662.03"/>
      <point x="106.873" y="627.196" type="curve"/>
    </contour>
  </outline>
</glyph>
<glyph name="F" format="2">
  <advance width="709"/>
  <unicode hex="0046"/>
  <outline>
    <contour>
      <point x="311.901" y="700" type="line"/>
      <point x="106.869" y="700" type="line"/>
      <point x="106.869" y="0" type="line"/>
      <point x="311.901" y="0" type="line"/>
    </contour>
    <contour>
      <point x="699.032" y="370.218" type="line"/>
      <point x="309.082" y="370.218" type="line"/>
      <point x="309.082" y="320.218" type="line"/>
      <point x="699.032" y="320.218" type="line"/>
    </contour>
    <contour>
      <point x="591.797" y="700" type="line"/>
      <point x="309.082" y="700" type="line"/>
      <point x="309.082" y="649.409" type="line" smooth="yes"/>
      <point x="591.797" y="649.409" type="line"/>
    </contour>
    <contour>
      <point x="699.032" y="322.487" type="line"/>
      <point x="580.904" y="322.487" type="line"/>
      <point x="580.904" y="320.249" type="line"/>
      <point x="644.378" y="319.055"/>
      <point x="689.487" y="273.785"/>
      <point x="689.275" y="210.977" type="curve" smooth="yes"/>
      <point x="689.259" y="206.243" type="line"/>
      <point x="699.032" y="206.119" type="line"/>
    </contour>
    <contour>
      <point x="699.032" y="484.375" type="line"/>
      <point x="689.259" y="484.25" type="line"/>
      <point x="689.276" y="479.516" type="line" smooth="yes"/>
      <point x="689.501" y="416.714"/>
      <point x="644.451" y="371.446"/>
      <point x="580.904" y="370.248" type="curve"/>
      <point x="580.904" y="368.012" type="line"/>
      <point x="699.032" y="368.012" type="line"/>
    </contour>
    <contour>
      <point x="591.846" y="652.218" type="line"/>
      <point x="453.236" y="652.218" type="line"/>
      <point x="453.236" y="649.51" type="line"/>
      <point x="534.22" y="647.987"/>
      <point x="581.959" y="599.769"/>
      <point x="581.765" y="519.891" type="curve" smooth="yes"/>
      <point x="581.746" y="512.067" type="line"/>
      <point x="591.846" y="511.917" type="line"/>
    </contour>
    <contour>
      <point x="591.811" y="718.187" type="line"/>
      <point x="572.862" y="710.201"/>
      <point x="513.24" y="699.987"/>
      <point x="469.88" y="699.987" type="curve"/>
      <point x="591.811" y="688.909" type="line"/>
    </contour>
    <contour>
      <point x="109.775" y="72.864" type="line"/>
      <point x="106.865" y="72.864" type="line"/>
      <point x="106.21" y="38.029"/>
      <point x="77.813" y="9.979"/>
      <point x="42.811" y="9.979" type="curve" smooth="yes"/>
      <point x="42.659" y="9.979"/>
      <point x="30.318" y="10"/>
      <point x="30.161" y="10" type="curve"/>
      <point x="30" y="0" type="line"/>
      <point x="109.775" y="0" type="line"/>
    </contour>
    <contour>
      <point x="109.783" y="627.203" type="line"/>
      <point x="109.783" y="700.067" type="line"/>
      <point x="30.008" y="700.067" type="line"/>
      <point x="30.17" y="690.067" type="line"/>
      <point x="30.327" y="690.067"/>
      <point x="42.668" y="690.087"/>
      <point x="42.82" y="690.087" type="curve" smooth="yes"/>
      <point x="77.821" y="690.087"/>
      <point x="106.218" y="662.037"/>
      <point x="106.874" y="627.203" type="curve"/>
    </contour>
    <contour>
      <point x="309.029" y="72.864" type="line"/>
      <point x="309.029" y="0" type="line"/>
      <point x="388.804" y="0" type="line"/>
      <point x="388.643" y="10" type="line"/>
      <point x="388.486" y="10"/>
      <point x="376.145" y="9.979"/>
      <point x="375.993" y="9.979" type="curve" smooth="yes"/>
      <point x="340.991" y="9.979"/>
      <point x="312.594" y="38.029"/>
      <point x="311.939" y="72.864" type="curve"/>
    </contour>
  </outline>
</glyph>
<glyph name="G" format="2">
  <advance width="872"/>
  <unicode hex="0047"/>
  <anchor x="455" y="-64" name="bottom"/>
  <anchor x="427" y="764" name="top"/>
  <outline>
    <contour>
      <point x="446" y="714" type="curve" smooth="yes"/>
      <point x="185" y="714"/>
      <point x="10" y="570"/>
      <point x="10" y="350" type="curve" smooth="yes"/>
      <point x="10" y="132"/>
      <point x="183" y="-14"/>
      <point x="434" y="-14" type="curve" smooth="yes"/>
      <point x="604" y="-14"/>
      <point x="745" y="53"/>
      <point x="795" y="115" type="curve"/>
      <point x="795" y="279" type="line"/>
      <point x="794" y="308"/>
      <point x="812" y="325"/>
      <point x="844" y="325" type="curve" smooth="yes"/>
      <point x="860" y="325" type="line"/>
      <point x="860" y="335" type="line"/>
      <point x="524" y="335" type="line"/>
      <point x="524" y="325" type="line"/>
      <point x="539" y="325" type="line" smooth="yes"/>
      <point x="572" y="325"/>
      <point x="591" y="308"/>
      <point x="590" y="279" type="curve"/>
      <point x="590" y="143" type="line"/>
      <point x="591" y="79"/>
      <point x="537" y="36"/>
      <point x="457" y="36" type="curve" smooth="yes"/>
      <point x="321" y="36"/>
      <point x="230" y="159"/>
      <point x="230" y="344" type="curve" smooth="yes"/>
      <point x="230" y="536"/>
      <point x="325" y="664"/>
      <point x="467" y="664" type="curve" smooth="yes"/>
      <point x="583" y="664"/>
      <point x="691" y="609"/>
      <point x="725" y="477" type="curve"/>
      <point x="734" y="477" type="line"/>
      <point x="744" y="668" type="line"/>
      <point x="685" y="693"/>
      <point x="556" y="714"/>
    </contour>
    <contour>
      <point x="795" y="119" type="curve"/>
      <point x="590" y="147" type="line"/>
      <point x="590" y="-87"/>
      <point x="827" y="-301"/>
      <point x="1117" y="-173" type="curve"/>
      <point x="1115" y="-163" type="line"/>
      <point x="920" y="-208"/>
      <point x="795" y="-36"/>
    </contour>
  </outline>
</glyph>
<glyph name="H" format="2">
  <advance width="893"/>
  <unicode hex="0048"/>
  <anchor x="451" y="350" name="center"/>
  <anchor x="451" y="764" name="top"/>
  <outline>
    <contour>
      <point x="109.791" y="627.196" type="line"/>
      <point x="109.791" y="700.06" type="line"/>
      <point x="30.016" y="700.06" type="line"/>
      <point x="30.178" y="690.06" type="line"/>
      <point x="32" y="690"/>
      <point x="41" y="690"/>
      <point x="43" y="690" type="curve" smooth="yes"/>
      <point x="77.829" y="690.08"/>
      <point x="106.226" y="662.03"/>
      <point x="106.882" y="627.196" type="curve"/>
    </contour>
    <contour>
      <point x="311.959" y="700" type="line"/>
      <point x="106.861" y="700" type="line"/>
      <point x="106.861" y="70" type="line" smooth="yes"/>
      <point x="106.861" y="-30"/>
      <point x="105.168" y="-121"/>
      <point x="-24" y="-172" type="curve"/>
      <point x="-24" y="-182" type="line"/>
      <point x="221.408" y="-258"/>
      <point x="311.959" y="-82"/>
      <point x="311.959" y="70" type="curve" smooth="yes"/>
    </contour>
    <contour>
      <point x="308.996" y="627.196" type="line"/>
      <point x="311.905" y="627.196" type="line"/>
      <point x="313" y="664"/>
      <point x="342" y="690"/>
      <point x="375.959" y="690.08" type="curve" smooth="yes"/>
      <point x="378" y="690"/>
      <point x="387" y="690"/>
      <point x="388.609" y="690.06" type="curve"/>
      <point x="388.771" y="700.06" type="line"/>
      <point x="308.996" y="700.06" type="line"/>
    </contour>
    <contour>
      <point x="590.318" y="375" type="line"/>
      <point x="301.574" y="375" type="line"/>
      <point x="301.574" y="325" type="line"/>
      <point x="590.318" y="325" type="line"/>
    </contour>
    <contour>
      <point x="582.42" y="72.864" type="line"/>
      <point x="579.51" y="72.864" type="line"/>
      <point x="578.855" y="38.029"/>
      <point x="550.458" y="9.979"/>
      <point x="515.456" y="9.979" type="curve" smooth="yes"/>
      <point x="513" y="10"/>
      <point x="505" y="10"/>
      <point x="502.806" y="10" type="curve"/>
      <point x="502.645" y="0" type="line"/>
      <point x="582.42" y="0" type="line"/>
    </contour>
    <contour>
      <point x="579.396" y="0" type="line"/>
      <point x="784.443" y="0" type="line"/>
      <point x="785.443" y="610" type="line" smooth="yes"/>
      <point x="785.591" y="700"/>
      <point x="784.636" y="812"/>
      <point x="913.805" y="852" type="curve"/>
      <point x="913.805" y="862" type="line"/>
      <point x="712.396" y="911"/>
      <point x="580.645" y="762"/>
      <point x="580.396" y="610" type="curve" smooth="yes"/>
    </contour>
    <contour>
      <point x="781.694" y="72.864" type="line"/>
      <point x="781.694" y="0" type="line"/>
      <point x="861.469" y="0" type="line"/>
      <point x="861.308" y="10" type="line"/>
      <point x="859" y="10"/>
      <point x="851" y="10"/>
      <point x="848.658" y="9.979" type="curve" smooth="yes"/>
      <point x="812" y="10"/>
      <point x="785" y="40"/>
      <point x="784.604" y="72.864" type="curve"/>
    </contour>
  </outline>
</glyph>
<glyph name="I" format="2">
  <advance width="498"/>
  <unicode hex="0049"/>
  <anchor x="290" y="3" name="ogonek"/>
  <anchor x="288" y="764" name="top"/>
  <outline>
    <contour>
      <point x="392.007" y="700" type="line"/>
      <point x="187" y="690" type="line"/>
      <point x="187" y="0" type="line"/>
      <point x="392.007" y="0" type="line"/>
    </contour>
    <contour>
      <point x="190" y="73" type="line"/>
      <point x="187" y="73" type="line"/>
      <point x="186" y="38"/>
      <point x="158" y="10"/>
      <point x="123" y="10" type="curve" smooth="yes"/>
      <point x="123" y="10"/>
      <point x="110" y="10"/>
      <point x="110" y="10" type="curve"/>
      <point x="110" y="0" type="line"/>
      <point x="190" y="0" type="line"/>
    </contour>
    <contour>
      <point x="389" y="73" type="line"/>
      <point x="389" y="0" type="line"/>
      <point x="469" y="0" type="line"/>
      <point x="469" y="10" type="line"/>
      <point x="469" y="10"/>
      <point x="456" y="10"/>
      <point x="456" y="10" type="curve" smooth="yes"/>
      <point x="421" y="10"/>
      <point x="393" y="38"/>
      <point x="392" y="73" type="curve"/>
    </contour>
    <contour>
      <point x="469" y="720" type="line"/>
      <point x="374" y="702"/>
      <point x="179" y="699"/>
      <point x="109" y="696" type="curve" smooth="yes"/>
      <point x="-1" y="691"/>
      <point x="-38" y="642"/>
      <point x="-40" y="591" type="curve" smooth="yes"/>
      <point x="-43" y="519"/>
      <point x="32" y="479"/>
      <point x="89" y="511" type="curve"/>
      <point x="89" y="517" type="line"/>
      <point x="37" y="512"/>
      <point x="7" y="544"/>
      <point x="10" y="585" type="curve" smooth="yes"/>
      <point x="14" y="627"/>
      <point x="44" y="645"/>
      <point x="100" y="647" type="curve" smooth="yes"/>
      <point x="389" y="657" type="line"/>
      <point x="389" y="607" type="line"/>
      <point x="392" y="607" type="line"/>
      <point x="392" y="669"/>
      <point x="410" y="700"/>
      <point x="471" y="710" type="curve"/>
    </contour>
  </outline>
</glyph>
<glyph name="J" format="2">
  <advance width="424"/>
  <unicode hex="004A"/>
  <anchor x="209" y="764" name="top"/>
  <outline>
    <contour>
      <point x="317.163" y="700" type="line"/>
      <point x="111.961" y="699.742" type="line"/>
      <point x="111.961" y="82.923" type="line" smooth="yes"/>
      <point x="111.961" y="-13"/>
      <point x="94.459" y="-187"/>
      <point x="-73" y="-161" type="curve"/>
      <point x="-75" y="-170" type="line"/>
      <point x="177.744" y="-311"/>
      <point x="317.163" y="-130"/>
      <point x="317.163" y="80.099" type="curve" smooth="yes"/>
    </contour>
    <contour>
      <point x="114.86" y="627.196" type="line"/>
      <point x="114.86" y="700.06" type="line"/>
      <point x="35.085" y="700.06" type="line"/>
      <point x="35.247" y="690.06" type="line"/>
      <point x="35.404" y="690.06"/>
      <point x="47.745" y="690.08"/>
      <point x="47.897" y="690.08" type="curve" smooth="yes"/>
      <point x="82.898" y="690.08"/>
      <point x="111.295" y="662.03"/>
      <point x="111.951" y="627.196" type="curve"/>
    </contour>
    <contour>
      <point x="314.249" y="627.196" type="line"/>
      <point x="317.158" y="627.196" type="line"/>
      <point x="317.814" y="662.03"/>
      <point x="346.211" y="690.08"/>
      <point x="381.212" y="690.08" type="curve" smooth="yes"/>
      <point x="381.364" y="690.08"/>
      <point x="393.705" y="690.06"/>
      <point x="393.862" y="690.06" type="curve"/>
      <point x="394.024" y="700.06" type="line"/>
      <point x="314.249" y="700.06" type="line"/>
    </contour>
  </outline>
</glyph>
<glyph name="K" format="2">
  <advance width="822"/>
  <unicode hex="004B"/>
  <anchor x="470" y="0" name="bottom"/>
  <anchor x="465" y="700" name="top"/>
  <outline>
    <contour>
      <point x="482.636" y="465.431" type="line"/>
      <point x="344.077" y="318.182" type="line"/>
      <point x="563.89" y="13.198" type="line" smooth="yes"/>
      <point x="720.768" y="-204"/>
      <point x="879.562" y="-305"/>
      <point x="1105.19" y="-177" type="curve"/>
      <point x="1103.19" y="-166" type="line"/>
      <point x="966.68" y="-155"/>
      <point x="880.483" y="-92"/>
      <point x="734.054" y="113.193" type="curve" smooth="yes"/>
    </contour>
    <contour>
      <point x="718.581" y="692.968" type="line"/>
      <point x="619.047" y="692.968" type="line"/>
      <point x="344.077" y="318.182" type="line"/>
      <point x="416.81" y="328.182" type="line"/>
    </contour>
    <contour>
      <point x="790.435" y="700" type="line"/>
      <point x="786.055" y="700" type="line"/>
      <point x="549.336" y="700" type="line"/>
      <point x="549.336" y="691.157" type="line"/>
      <point x="559" y="691.164" type="line"/>
      <point x="586.627" y="691.164"/>
      <point x="599.237" y="665.949"/>
      <point x="582.794" y="643.547" type="curve"/>
      <point x="676.108" y="641.63" type="line"/>
      <point x="701.879" y="671.062"/>
      <point x="741.908" y="690.881"/>
      <point x="786.055" y="690.98" type="curve" smooth="yes"/>
      <point x="790.435" y="690.98" type="line"/>
    </contour>
    <contour>
      <point x="311.92" y="700" type="line"/>
      <point x="106.873" y="700" type="line"/>
      <point x="106.873" y="0" type="line"/>
      <point x="311.92" y="0" type="line"/>
    </contour>
    <contour>
      <point x="109.775" y="72.864" type="line"/>
      <point x="106.865" y="72.864" type="line"/>
      <point x="106.21" y="38.029"/>
      <point x="77.813" y="9.979"/>
      <point x="42.811" y="9.979" type="curve" smooth="yes"/>
      <point x="41" y="10"/>
      <point x="32" y="10"/>
      <point x="30.161" y="10" type="curve"/>
      <point x="30" y="0" type="line"/>
      <point x="109.775" y="0" type="line"/>
    </contour>
    <contour>
      <point x="109.791" y="627.196" type="line"/>
      <point x="109.791" y="700.06" type="line"/>
      <point x="30.016" y="700.06" type="line"/>
      <point x="30.178" y="690.06" type="line"/>
      <point x="32" y="690"/>
      <point x="41" y="690"/>
      <point x="43" y="690" type="curve" smooth="yes"/>
      <point x="77.829" y="690.08"/>
      <point x="106.226" y="662.03"/>
      <point x="106.882" y="627.196" type="curve"/>
    </contour>
    <contour>
      <point x="309.012" y="72.864" type="line"/>
      <point x="309.012" y="0" type="line"/>
      <point x="388.787" y="0" type="line"/>
      <point x="388.626" y="10" type="line"/>
      <point x="387" y="10"/>
      <point x="378" y="10"/>
      <point x="376" y="10" type="curve" smooth="yes"/>
      <point x="340.974" y="9.979"/>
      <point x="312.577" y="38.029"/>
      <point x="311.922" y="72.864" type="curve"/>
    </contour>
    <contour>
      <point x="308.996" y="627.196" type="line"/>
      <point x="311.905" y="627.196" type="line"/>
      <point x="312.561" y="662.03"/>
      <point x="340.958" y="690.08"/>
      <point x="375.959" y="690.08" type="curve" smooth="yes"/>
      <point x="378" y="690"/>
      <point x="387" y="690"/>
      <point x="388.609" y="690.06" type="curve"/>
      <point x="388.771" y="700.06" type="line"/>
      <point x="308.996" y="700.06" type="line"/>
    </contour>
  </outline>
</glyph>
<glyph name="L" format="2">
  <advance width="445"/>
  <unicode hex="004C"/>
  <anchor x="273.796" y="-114" name="bottom"/>
  <anchor x="210" y="764" name="top"/>
  <outline>
    <contour>
      <point x="109.776" y="627.196" type="line"/>
      <point x="109.776" y="700.06" type="line"/>
      <point x="30" y="700.06" type="line"/>
      <point x="30.163" y="690.06" type="line"/>
      <point x="32" y="690"/>
      <point x="41" y="690"/>
      <point x="43" y="690" type="curve" smooth="yes"/>
      <point x="77" y="690"/>
      <point x="106" y="663"/>
      <point x="106.867" y="627.196" type="curve"/>
    </contour>
    <contour>
      <point x="309.028" y="627.196" type="line"/>
      <point x="311.937" y="627.196" type="line"/>
      <point x="313" y="663"/>
      <point x="341" y="690"/>
      <point x="380" y="690" type="curve" smooth="yes"/>
      <point x="382" y="690"/>
      <point x="387" y="690"/>
      <point x="388.641" y="690.06" type="curve"/>
      <point x="388.803" y="700.06" type="line"/>
      <point x="309.028" y="700.06" type="line"/>
    </contour>
    <contour>
      <point x="1095.31" y="-97" type="curve"/>
      <point x="1087.31" y="-90" type="line"/>
      <point x="973.485" y="-191"/>
      <point x="610" y="-94"/>
      <point x="350" y="-14" type="curve" smooth="yes"/>
      <point x="327.626" y="-7"/>
      <point x="312" y="9"/>
      <point x="311.901" y="44.922" type="curve"/>
      <point x="311.901" y="700" type="line"/>
      <point x="106.869" y="700" type="line"/>
      <point x="106.869" y="72.864" type="line" smooth="yes"/>
      <point x="106" y="37"/>
      <point x="77" y="10"/>
      <point x="43" y="10" type="curve" smooth="yes"/>
      <point x="41" y="10"/>
      <point x="32" y="10"/>
      <point x="30.161" y="10" type="curve"/>
      <point x="30" y="0" type="line"/>
      <point x="155" y="0"/>
      <point x="239.986" y="-40"/>
      <point x="307" y="-74" type="curve" smooth="yes"/>
      <point x="504" y="-174"/>
      <point x="936" y="-439"/>
    </contour>
  </outline>
</glyph>
<glyph name="M" format="2">
  <advance width="993"/>
  <unicode hex="004D"/>
  <guideline x="958.63" y="352.798" angle="0"/>
  <outline>
    <contour>
      <point x="821.298" y="713.697" type="line"/>
      <point x="394.594" y="78.95" type="line"/>
      <point x="450.846" y="-24" type="line"/>
      <point x="460.265" y="-24" type="line"/>
      <point x="458.323" y="29.387"/>
      <point x="501.582" y="92.11"/>
      <point x="501.582" y="92.11" type="curve"/>
      <point x="828.923" y="577.912" type="line"/>
    </contour>
    <contour>
      <point x="103.561" y="72.645" type="line"/>
      <point x="82.15" y="72.645" type="line"/>
      <point x="76.02" y="33.113"/>
      <point x="45.017" y="9.991"/>
      <point x="9" y="9.991" type="curve" smooth="yes"/>
      <point x="9" y="9.991"/>
      <point x="-6" y="10"/>
      <point x="-7" y="10" type="curve"/>
      <point x="-7" y="0" type="line"/>
      <point x="103.561" y="0" type="line"/>
    </contour>
    <contour>
      <point x="157.775" y="56.525" type="curve"/>
      <point x="150.701" y="56.525" type="line"/>
      <point x="150.701" y="0" type="line"/>
      <point x="212.085" y="0" type="line"/>
      <point x="212.085" y="9.445" type="line"/>
      <point x="196.504" y="9.445" type="line" smooth="yes"/>
      <point x="174.96" y="9.49"/>
      <point x="157.515" y="30.59"/>
      <point x="157.515" y="52.145" type="curve" smooth="yes"/>
      <point x="157.515" y="53.626"/>
      <point x="157.613" y="55.086"/>
    </contour>
    <contour>
      <point x="165.372" y="587.267" type="line"/>
      <point x="70.394" y="0" type="line"/>
      <point x="149.368" y="0" type="line"/>
      <point x="232.359" y="556.713" type="line"/>
    </contour>
    <contour>
      <point x="-115" y="745.983" type="curve"/>
      <point x="-112" y="735.983" type="line"/>
      <point x="47.766" y="747.532"/>
      <point x="195.308" y="413.686"/>
      <point x="203.55" y="399.569" type="curve" smooth="yes"/>
      <point x="450.849" y="-24" type="line"/>
      <point x="533.994" y="253.533" type="line"/>
      <point x="345.13" y="562.181" type="line" smooth="yes"/>
      <point x="242.325" y="730.19"/>
      <point x="75.574" y="848.32"/>
    </contour>
    <contour>
      <point x="830.44" y="713.697" type="line"/>
      <point x="821.298" y="713.697" type="line"/>
      <point x="668.875" y="364.946" type="line"/>
      <point x="718.583" y="134.654" type="line" smooth="yes"/>
      <point x="787.692" y="-186"/>
      <point x="1017.99" y="-260"/>
      <point x="1193.52" y="-186" type="curve"/>
      <point x="1193.52" y="-176" type="line"/>
      <point x="1030.12" y="-186"/>
      <point x="974.142" y="-35"/>
      <point x="942.72" y="128.998" type="curve" smooth="yes"/>
    </contour>
  </outline>
</glyph>
<glyph name="N" format="2">
  <advance width="881"/>
  <unicode hex="004E"/>
  <anchor x="514.779" y="-64" name="bottom"/>
  <anchor x="401.804" y="764" name="top"/>
  <outline>
    <contour>
      <point x="-231" y="800.277" type="curve"/>
      <point x="-226" y="790.595" type="line"/>
      <point x="-70" y="851.246"/>
      <point x="100.329" y="634.697"/>
      <point x="152.947" y="580.361" type="curve" smooth="yes"/>
      <point x="744.972" y="-31" type="line" smooth="yes"/>
      <point x="838.199" y="-127"/>
      <point x="985.411" y="-230"/>
      <point x="1141.27" y="-135" type="curve"/>
      <point x="1136.59" y="-125" type="line"/>
      <point x="978.345" y="-170"/>
      <point x="856.614" y="-20"/>
      <point x="798.562" y="40.438" type="curve" smooth="yes"/>
      <point x="164.515" y="696" type="line" smooth="yes"/>
      <point x="76.745" y="786.748"/>
      <point x="-88" y="901.184"/>
    </contour>
    <contour>
      <point x="103.152" y="70.59" type="line"/>
      <point x="100.346" y="70.59" type="line"/>
      <point x="99.715" y="37.017"/>
      <point x="72.347" y="9.981"/>
      <point x="38.613" y="9.981" type="curve"/>
      <point x="20.155" y="10" type="line"/>
      <point x="20" y="0" type="line"/>
      <point x="103.152" y="0" type="line"/>
    </contour>
    <contour>
      <point x="305.637" y="70.59" type="curve"/>
      <point x="302.835" y="70.59" type="line"/>
      <point x="302.835" y="0" type="line"/>
      <point x="385.987" y="0" type="line"/>
      <point x="385.833" y="10" type="line"/>
      <point x="367.372" y="9.981" type="line"/>
      <point x="333.64" y="9.981"/>
      <point x="306.273" y="37.017"/>
    </contour>
    <contour>
      <point x="305.02" y="498.772" type="line"/>
      <point x="100.345" y="687.891" type="line"/>
      <point x="100.345" y="0" type="line"/>
      <point x="305.732" y="0" type="line"/>
    </contour>
    <contour>
      <point x="780.983" y="700.019" type="line"/>
      <point x="575.596" y="700.019" type="line"/>
      <point x="575.641" y="151.331" type="line"/>
      <point x="780.983" y="-47" type="line"/>
    </contour>
    <contour>
      <point x="578.379" y="700.019" type="line"/>
      <point x="495.233" y="700.019" type="line"/>
      <point x="495.387" y="690.019" type="line"/>
      <point x="513.841" y="690.038" type="line"/>
      <point x="547.579" y="690.042"/>
      <point x="574.944" y="663.005"/>
      <point x="575.575" y="629.431" type="curve"/>
      <point x="578.385" y="629.431" type="line"/>
    </contour>
    <contour>
      <point x="861.306" y="700.019" type="line"/>
      <point x="778.158" y="700.019" type="line"/>
      <point x="778.154" y="629.432" type="line"/>
      <point x="780.962" y="629.432" type="line"/>
      <point x="781.593" y="663.007"/>
      <point x="808.96" y="690.039"/>
      <point x="842.696" y="690.039" type="curve"/>
      <point x="861.152" y="690.02" type="line"/>
    </contour>
  </outline>
</glyph>
<glyph name="P" format="2">
  <advance width="760"/>
  <unicode hex="0050"/>
  <outline>
    <contour>
      <point x="317.029" y="680" type="line"/>
      <point x="111.905" y="662" type="line"/>
      <point x="111.905" y="0" type="line"/>
      <point x="317.029" y="0" type="line"/>
    </contour>
    <contour>
      <point x="114.775" y="72.864" type="line"/>
      <point x="111.865" y="72.864" type="line"/>
      <point x="111.21" y="38.029"/>
      <point x="82.813" y="9.979"/>
      <point x="47.811" y="9.979" type="curve" smooth="yes"/>
      <point x="35.161" y="10" type="line"/>
      <point x="35" y="0" type="line"/>
      <point x="114.775" y="0" type="line"/>
    </contour>
    <contour>
      <point x="314.122" y="72.864" type="line"/>
      <point x="314.122" y="0" type="line"/>
      <point x="393.897" y="0" type="line"/>
      <point x="393.736" y="10" type="line"/>
      <point x="381" y="10" type="line" smooth="yes"/>
      <point x="346.084" y="9.979"/>
      <point x="317.687" y="38.029"/>
      <point x="317.032" y="72.864" type="curve"/>
    </contour>
    <contour>
      <point x="366" y="713" type="curve" smooth="yes"/>
      <point x="284" y="703"/>
      <point x="176" y="675"/>
      <point x="34.393" y="666.542" type="curve"/>
      <point x="35.772" y="656.636" type="line"/>
      <point x="39.269" y="657"/>
      <point x="46" y="658"/>
      <point x="54" y="658" type="curve" smooth="yes"/>
      <point x="94.726" y="658"/>
      <point x="112" y="633"/>
      <point x="111.918" y="597.943" type="curve"/>
      <point x="122.453" y="597.943" type="line"/>
      <point x="121.146" y="627.167" type="line"/>
      <point x="198" y="636"/>
      <point x="225" y="641"/>
      <point x="366" y="662" type="curve" smooth="yes"/>
      <point x="452.181" y="674.836"/>
      <point x="512" y="622"/>
      <point x="515" y="517" type="curve" smooth="yes"/>
      <point x="518" y="415"/>
      <point x="467" y="370"/>
      <point x="434" y="357" type="curve" smooth="yes"/>
      <point x="405" y="346"/>
      <point x="373" y="352"/>
      <point x="358.896" y="371.343" type="curve"/>
      <point x="349.063" y="365.528" type="line"/>
      <point x="360" y="329"/>
      <point x="385" y="302"/>
      <point x="425" y="287" type="curve" smooth="yes"/>
      <point x="543" y="243"/>
      <point x="736" y="318"/>
      <point x="730" y="510" type="curve" smooth="yes"/>
      <point x="724" y="691"/>
      <point x="546" y="736"/>
    </contour>
  </outline>
</glyph>
<glyph name="Q" format="2">
  <advance width="929"/>
  <unicode hex="0051"/>
  <outline>
    <contour>
      <point x="389" y="-14" type="line"/>
      <point x="476" y="-55"/>
      <point x="700" y="-163"/>
      <point x="826" y="-215" type="curve" smooth="yes"/>
      <point x="1152" y="-349"/>
      <point x="1510" y="-344"/>
      <point x="1580" y="-87" type="curve"/>
      <point x="1573" y="-84" type="line"/>
      <point x="1453" y="-186"/>
      <point x="1190" y="-124"/>
      <point x="935" y="-76" type="curve" smooth="yes"/>
      <point x="733" y="-38"/>
      <point x="517" y="-6"/>
      <point x="389" y="-4" type="curve"/>
    </contour>
    <contour>
      <point x="531" y="217" type="curve"/>
      <point x="520" y="216" type="line"/>
      <point x="510" y="107"/>
      <point x="431" y="86"/>
      <point x="374" y="91" type="curve" smooth="yes"/>
      <point x="264" y="101"/>
      <point x="220" y="213"/>
      <point x="220" y="351" type="curve" smooth="yes"/>
      <point x="220" y="573"/>
      <point x="333" y="678"/>
      <point x="467" y="669" type="curve" smooth="yes"/>
      <point x="631" y="658"/>
      <point x="707" y="483"/>
      <point x="697" y="314" type="curve" smooth="yes"/>
      <point x="683" y="89"/>
      <point x="526" y="-4"/>
      <point x="389" y="-4" type="curve"/>
      <point x="389" y="-14" type="line"/>
      <point x="621" y="-68"/>
      <point x="912" y="87"/>
      <point x="912" y="357" type="curve" smooth="yes"/>
      <point x="912" y="570"/>
      <point x="732" y="716"/>
      <point x="465" y="719" type="curve" smooth="yes"/>
      <point x="176" y="722"/>
      <point x="5" y="561"/>
      <point x="5" y="366" type="curve" smooth="yes"/>
      <point x="5" y="193"/>
      <point x="140" y="80"/>
      <point x="303" y="50" type="curve" smooth="yes"/>
      <point x="402" y="32"/>
      <point x="545" y="38"/>
    </contour>
  </outline>
</glyph>
<glyph name="R" format="2">
  <advance width="783"/>
  <unicode hex="0052"/>
  <anchor x="480" y="-64" name="bottom"/>
  <anchor x="391" y="764" name="top"/>
  <outline>
    <contour>
      <point x="114.816" y="72.864" type="line"/>
      <point x="111.906" y="72.864" type="line"/>
      <point x="111.251" y="38.029"/>
      <point x="82.854" y="9.979"/>
      <point x="47.852" y="9.979" type="curve"/>
      <point x="35.121" y="10" type="line"/>
      <point x="35.121" y="0" type="line"/>
      <point x="114.816" y="0" type="line"/>
    </contour>
    <contour>
      <point x="317.612" y="700.03" type="line"/>
      <point x="111.895" y="700.03" type="line"/>
      <point x="111.895" y="0" type="line"/>
      <point x="317.612" y="0" type="line"/>
    </contour>
    <contour>
      <point x="314.723" y="72.864" type="line"/>
      <point x="314.723" y="0" type="line"/>
      <point x="394.498" y="0" type="line"/>
      <point x="394.337" y="10" type="line"/>
      <point x="382" y="10" type="line"/>
      <point x="346.685" y="9.979"/>
      <point x="318.288" y="38.029"/>
      <point x="317.633" y="72.864" type="curve"/>
    </contour>
    <contour>
      <point x="114.775" y="627.196" type="line"/>
      <point x="114.775" y="700.03" type="line"/>
      <point x="35.956" y="700.03" type="line"/>
      <point x="35.956" y="690.06" type="line"/>
      <point x="48" y="690" type="line"/>
      <point x="82.813" y="689.812"/>
      <point x="111.21" y="662.03"/>
      <point x="111.866" y="627.196" type="curve"/>
    </contour>
    <contour>
      <point x="425.724" y="700.03" type="curve"/>
      <point x="113.944" y="700.03" type="line"/>
      <point x="113.934" y="648" type="line"/>
      <point x="362" y="648" type="line"/>
      <point x="428" y="648"/>
      <point x="502" y="609"/>
      <point x="506" y="516" type="curve" smooth="yes"/>
      <point x="507" y="497"/>
      <point x="505" y="484"/>
      <point x="504" y="475" type="curve" smooth="yes"/>
      <point x="491" y="383"/>
      <point x="418" y="352"/>
      <point x="367" y="352" type="curve" smooth="yes"/>
      <point x="363" y="352"/>
      <point x="354" y="352"/>
      <point x="350.9" y="351.797" type="curve"/>
      <point x="350.9" y="342.34" type="line"/>
      <point x="370" y="336"/>
      <point x="387" y="308"/>
      <point x="403" y="275" type="curve" smooth="yes"/>
      <point x="425" y="231"/>
      <point x="473" y="114"/>
      <point x="527" y="26" type="curve" smooth="yes"/>
      <point x="742" y="-325"/>
      <point x="1065" y="-247"/>
      <point x="1173.82" y="-170" type="curve"/>
      <point x="1173.82" y="-160" type="line"/>
      <point x="960" y="-147"/>
      <point x="839" y="-55"/>
      <point x="725" y="108" type="curve" smooth="yes"/>
      <point x="654" y="210"/>
      <point x="608" y="303"/>
      <point x="513.88" y="323.391" type="curve"/>
      <point x="621" y="312"/>
      <point x="721" y="386"/>
      <point x="721" y="510" type="curve" smooth="yes"/>
      <point x="721" y="674"/>
      <point x="546" y="700"/>
    </contour>
  </outline>
</glyph>
<glyph name="S" format="2">
  <advance width="671"/>
  <unicode hex="0053"/>
  <anchor x="333.418" y="-102" name="bottom"/>
  <anchor x="339.652" y="764" name="top"/>
  <outline>
    <contour>
      <point x="560.259" y="703.741" type="line"/>
      <point x="412.176" y="703.741" type="line" smooth="yes"/>
      <point x="412.176" y="683.478" type="line"/>
      <point x="557.566" y="683.478" type="line"/>
    </contour>
    <contour>
      <point x="509.255" y="380.221" type="curve" smooth="yes"/>
      <point x="322.355" y="486.53" type="line" smooth="yes"/>
      <point x="275.616" y="513"/>
      <point x="229.616" y="532"/>
      <point x="233.616" y="580" type="curve" smooth="yes"/>
      <point x="237.616" y="629"/>
      <point x="287.616" y="664"/>
      <point x="369.616" y="664" type="curve" smooth="yes"/>
      <point x="468.616" y="664"/>
      <point x="528.616" y="614"/>
      <point x="529.052" y="541.034" type="curve"/>
      <point x="538.681" y="541.034" type="line"/>
      <point x="558.681" y="691.869" type="line"/>
      <point x="535.616" y="702"/>
      <point x="372.616" y="714"/>
      <point x="313.616" y="714" type="curve" smooth="yes"/>
      <point x="175.616" y="714"/>
      <point x="93.615" y="647"/>
      <point x="80.615" y="535" type="curve" smooth="yes"/>
      <point x="69.615" y="441"/>
      <point x="112.616" y="373"/>
      <point x="203.209" y="319.61" type="curve" smooth="yes"/>
      <point x="366.26" y="224.285" type="line" smooth="yes"/>
      <point x="534.616" y="129"/>
      <point x="474.616" y="-48"/>
      <point x="291.616" y="-48" type="curve" smooth="yes"/>
      <point x="112.616" y="-48"/>
      <point x="-20" y="120"/>
      <point x="77.233" y="295.56" type="curve"/>
      <point x="68.233" y="302.56" type="line"/>
      <point x="-58" y="125"/>
      <point x="47.615" y="-104"/>
      <point x="314.616" y="-104" type="curve" smooth="yes"/>
      <point x="637.616" y="-104"/>
      <point x="768.616" y="233"/>
    </contour>
  </outline>
</glyph>
<glyph name="T" format="2">
  <advance width="750"/>
  <unicode hex="0054"/>
  <anchor x="402.083" y="0" name="bottom"/>
  <anchor x="392.083" y="350" name="center"/>
  <anchor x="402.083" y="764" name="top"/>
  <outline>
    <contour>
      <point x="504.073" y="696.716" type="line"/>
      <point x="298.814" y="696.716" type="line"/>
      <point x="298.814" y="0" type="line"/>
      <point x="504.073" y="0" type="line"/>
    </contour>
    <contour>
      <point x="740.688" y="701" type="line"/>
      <point x="112.083" y="701" type="line"/>
      <point x="-51" y="701"/>
      <point x="-127" y="551.767"/>
      <point x="-4" y="444.197" type="curve"/>
      <point x="6.708" y="449.197" type="line"/>
      <point x="-67" y="565.109"/>
      <point x="1.732" y="651.02"/>
      <point x="112.083" y="651.02" type="curve"/>
      <point x="740.688" y="651.02" type="line"/>
    </contour>
    <contour>
      <point x="740.688" y="653.733" type="line"/>
      <point x="602.078" y="653.733" type="line"/>
      <point x="602.078" y="651.025" type="line"/>
      <point x="683.062" y="649.502"/>
      <point x="730.801" y="601.284"/>
      <point x="730.607" y="521.406" type="curve" smooth="yes"/>
      <point x="730.588" y="513.582" type="line"/>
      <point x="740.688" y="513.432" type="line"/>
    </contour>
    <contour>
      <point x="740.688" y="719.168" type="line"/>
      <point x="721.739" y="711.182"/>
      <point x="662.117" y="700.968"/>
      <point x="618.757" y="700.968" type="curve"/>
      <point x="740.688" y="689.89" type="line"/>
    </contour>
    <contour>
      <point x="301.775" y="72.864" type="line"/>
      <point x="298.865" y="72.864" type="line"/>
      <point x="298.083" y="38"/>
      <point x="270.083" y="10"/>
      <point x="234.811" y="9.979" type="curve" smooth="yes"/>
      <point x="233.083" y="10"/>
      <point x="224.083" y="10"/>
      <point x="222.161" y="10" type="curve"/>
      <point x="222" y="0" type="line"/>
      <point x="301.775" y="0" type="line"/>
    </contour>
    <contour>
      <point x="501.143" y="72.864" type="line"/>
      <point x="501.143" y="0" type="line"/>
      <point x="580.918" y="0" type="line"/>
      <point x="580.757" y="10" type="line"/>
      <point x="579.083" y="10"/>
      <point x="570.083" y="10"/>
      <point x="568.083" y="10" type="curve" smooth="yes"/>
      <point x="533.105" y="9.979"/>
      <point x="504.708" y="38.029"/>
      <point x="504.053" y="72.864" type="curve"/>
    </contour>
  </outline>
</glyph>
<glyph name="U" format="2">
  <advance width="852"/>
  <unicode hex="0055"/>
  <anchor x="453.423" y="-8" name="ogonek"/>
  <anchor x="499.994" y="764" name="top"/>
  <outline>
    <contour>
      <point x="303.985" y="700" type="line" smooth="yes"/>
      <point x="99.191" y="700" type="line"/>
      <point x="99.097" y="255.596" type="line" smooth="yes"/>
      <point x="96" y="92"/>
      <point x="228" y="-14"/>
      <point x="451" y="-14" type="curve" smooth="yes"/>
      <point x="663" y="-14"/>
      <point x="773" y="82"/>
      <point x="775.973" y="257.34" type="curve" smooth="yes"/>
      <point x="776.008" y="629.976" type="line"/>
      <point x="776.008" y="790"/>
      <point x="835.811" y="895.235"/>
      <point x="957.929" y="911.398" type="curve"/>
      <point x="957.929" y="921.398" type="line"/>
      <point x="792.71" y="940.132"/>
      <point x="689.334" y="790"/>
      <point x="689.334" y="629.976" type="curve"/>
      <point x="689.069" y="247.399" type="line" smooth="yes"/>
      <point x="689" y="110"/>
      <point x="605" y="37"/>
      <point x="497.571" y="37.495" type="curve" smooth="yes"/>
      <point x="382" y="37"/>
      <point x="304" y="120"/>
      <point x="304.088" y="260.292" type="curve"/>
    </contour>
    <contour>
      <point x="101.564" y="700" type="line"/>
      <point x="30" y="700" type="line"/>
      <point x="30" y="690" type="line"/>
      <point x="32" y="690"/>
      <point x="44" y="690"/>
      <point x="46" y="690" type="curve" smooth="yes"/>
      <point x="75.183" y="690.017"/>
      <point x="98.619" y="669.255"/>
      <point x="99.161" y="640.499" type="curve"/>
      <point x="101.564" y="640.499" type="line"/>
    </contour>
    <contour>
      <point x="373.11" y="700" type="line"/>
      <point x="301.547" y="700" type="line"/>
      <point x="301.547" y="640.499" type="line"/>
      <point x="303.949" y="640.499" type="line"/>
      <point x="304" y="666"/>
      <point x="325" y="690"/>
      <point x="356.814" y="690.017" type="curve" smooth="yes"/>
      <point x="359" y="690"/>
      <point x="371" y="690"/>
      <point x="373.11" y="690" type="curve"/>
    </contour>
  </outline>
</glyph>
<glyph name="V" format="2">
  <advance width="720"/>
  <unicode hex="0056"/>
  <outline>
    <contour>
      <point x="368.965" y="-24" type="line" smooth="yes"/>
      <point x="456.869" y="232" type="line"/>
      <point x="263.806" y="693.905" type="line"/>
      <point x="23.746" y="693.905" type="line"/>
    </contour>
    <contour>
      <point x="368.965" y="-24" type="line"/>
      <point x="377.971" y="-24" type="line"/>
      <point x="381.971" y="9.717"/>
      <point x="423.267" y="100.078"/>
      <point x="435.018" y="125.133" type="curve"/>
      <point x="696.189" y="696.905" type="line" smooth="yes"/>
      <point x="725.61" y="761.316"/>
      <point x="802.194" y="925.464"/>
      <point x="965.515" y="937.494" type="curve"/>
      <point x="965.515" y="947.494" type="line"/>
      <point x="752.557" y="975.494"/>
      <point x="648.14" y="772.831"/>
      <point x="615.146" y="696.905" type="curve" smooth="yes"/>
      <point x="369.079" y="132.457" type="line"/>
    </contour>
    <contour>
      <point x="292.236" y="627.319" type="line"/>
      <point x="277.634" y="667.336"/>
      <point x="304.564" y="690.089"/>
      <point x="330.38" y="690.089" type="curve" smooth="yes"/>
      <point x="339.172" y="690.089" type="line"/>
      <point x="339.172" y="700" type="line"/>
      <point x="-40" y="700" type="line"/>
      <point x="-40" y="690" type="line"/>
      <point x="-40" y="690"/>
      <point x="-32" y="690"/>
      <point x="-32" y="690" type="curve" smooth="yes"/>
      <point x="-1" y="690"/>
      <point x="34.135" y="671.536"/>
      <point x="56.347" y="626.987" type="curve"/>
    </contour>
  </outline>
</glyph>
<glyph name="W" format="2">
  <advance width="964"/>
  <unicode hex="0057"/>
  <guideline x="487.595" y="369.67" angle="0"/>
  <anchor x="550" y="764" name="top"/>
  <outline>
    <contour>
      <point x="263" y="628" type="line"/>
      <point x="248" y="668"/>
      <point x="275" y="690"/>
      <point x="300" y="690" type="curve" smooth="yes"/>
      <point x="309" y="690" type="line"/>
      <point x="309" y="700" type="line"/>
      <point x="-50" y="700" type="line"/>
      <point x="-50" y="690" type="line"/>
      <point x="-50" y="690"/>
      <point x="-42" y="690"/>
      <point x="-42" y="690" type="curve" smooth="yes"/>
      <point x="-11" y="690"/>
      <point x="28" y="672"/>
      <point x="46" y="628" type="curve"/>
    </contour>
    <contour>
      <point x="21" y="694" type="line"/>
      <point x="265" y="47" type="line"/>
      <point x="380" y="336" type="line"/>
      <point x="236" y="694" type="line"/>
    </contour>
    <contour>
      <point x="301" y="32" type="curve" smooth="yes"/>
      <point x="579" y="605" type="line"/>
      <point x="554" y="716" type="line"/>
      <point x="545" y="716" type="line"/>
      <point x="255" y="112" type="line" smooth="yes"/>
      <point x="232" y="64"/>
      <point x="151" y="-144"/>
      <point x="1" y="-170" type="curve"/>
      <point x="1" y="-180" type="line"/>
      <point x="154" y="-220"/>
      <point x="266" y="-38"/>
    </contour>
    <contour>
      <point x="554" y="715" type="line"/>
      <point x="462" y="456" type="line"/>
      <point x="716" y="-22" type="line"/>
      <point x="781" y="296" type="line"/>
    </contour>
    <contour>
      <point x="848" y="694" type="curve" smooth="yes"/>
      <point x="677" y="77" type="line"/>
      <point x="716" y="-22" type="line"/>
      <point x="726" y="-22" type="line"/>
      <point x="720" y="28"/>
      <point x="740" y="89"/>
      <point x="740" y="89" type="curve"/>
      <point x="926" y="694" type="line" smooth="yes"/>
      <point x="961" y="808"/>
      <point x="1035" y="923"/>
      <point x="1198" y="935" type="curve"/>
      <point x="1198" y="945" type="line"/>
      <point x="985" y="973"/>
      <point x="883" y="821"/>
    </contour>
  </outline>
</glyph>
<glyph name="X" format="2">
  <advance width="773"/>
  <unicode hex="0058"/>
  <outline>
    <contour>
      <point x="374.932" y="700" type="line"/>
      <point x="-27" y="700" type="line"/>
      <point x="-27" y="690.034" type="line"/>
      <point x="-13" y="690.034" type="line" smooth="yes"/>
      <point x="28.662" y="690.034"/>
      <point x="67.475" y="662.076"/>
      <point x="88.291" y="631.204" type="curve"/>
      <point x="328.592" y="627.952" type="line"/>
      <point x="311.366" y="656.338"/>
      <point x="335.234" y="690.034"/>
      <point x="362.508" y="690.034" type="curve" smooth="yes"/>
      <point x="362.508" y="690.034"/>
      <point x="375.106" y="690.034"/>
      <point x="375.106" y="690.034" type="curve"/>
    </contour>
    <contour>
      <point x="281.492" y="699.976" type="line"/>
      <point x="43.498" y="699.976" type="line"/>
      <point x="498.674" y="1" type="line"/>
      <point x="738.669" y="1" type="line"/>
    </contour>
    <contour>
      <point x="357.526" y="319.407" type="line"/>
      <point x="290.935" y="355.406" type="line"/>
      <point x="30.657" y="0.036" type="line" smooth="yes"/>
      <point x="-27" y="-79"/>
      <point x="-67" y="-127"/>
      <point x="-174" y="-140" type="curve"/>
      <point x="-174" y="-150" type="line"/>
      <point x="-73" y="-170"/>
      <point x="30.161" y="-136"/>
      <point x="128.147" y="0.036" type="curve" smooth="yes"/>
    </contour>
    <contour>
      <point x="452.705" y="71.578" type="line"/>
      <point x="469.932" y="43.192"/>
      <point x="446.055" y="10"/>
      <point x="418.782" y="10" type="curve" smooth="yes"/>
      <point x="418.782" y="10"/>
      <point x="406.183" y="10"/>
      <point x="406.183" y="10" type="curve"/>
      <point x="406.357" y="0" type="line"/>
      <point x="810.259" y="0" type="line"/>
      <point x="810.085" y="10" type="line"/>
      <point x="796.453" y="10" type="line" smooth="yes"/>
      <point x="754.455" y="10"/>
      <point x="715.456" y="37.454"/>
      <point x="694.64" y="68.326" type="curve"/>
    </contour>
    <contour>
      <point x="406.177" y="400.692" type="line"/>
      <point x="455.292" y="332.693" type="line"/>
      <point x="701.469" y="699.981" type="line" smooth="yes"/>
      <point x="746.375" y="766.98"/>
      <point x="806.153" y="854.077"/>
      <point x="888.495" y="856.125" type="curve"/>
      <point x="888.495" y="866.125" type="line"/>
      <point x="762.821" y="880.744"/>
      <point x="660.014" y="783.809"/>
      <point x="604.473" y="699.981" type="curve" smooth="yes"/>
    </contour>
  </outline>
</glyph>
<glyph name="Y" format="2">
  <advance width="699"/>
  <unicode hex="0059"/>
  <anchor x="364.859" y="764" name="top"/>
  <outline>
    <contour>
      <point x="248.633" y="72.864" type="line"/>
      <point x="245.723" y="72.864" type="line"/>
      <point x="245.131" y="38"/>
      <point x="216.131" y="10"/>
      <point x="182.131" y="10" type="curve" smooth="yes"/>
      <point x="180.131" y="10"/>
      <point x="171.131" y="10"/>
      <point x="169.019" y="10" type="curve"/>
      <point x="168.858" y="0" type="line"/>
      <point x="248.633" y="0" type="line"/>
    </contour>
    <contour>
      <point x="447.83" y="72.864" type="line"/>
      <point x="447.83" y="0" type="line"/>
      <point x="527.605" y="0" type="line"/>
      <point x="527.444" y="10" type="line"/>
      <point x="525.131" y="10"/>
      <point x="517.131" y="10"/>
      <point x="515.131" y="10" type="curve" smooth="yes"/>
      <point x="478.131" y="10"/>
      <point x="451.131" y="40"/>
      <point x="450.74" y="72.864" type="curve"/>
    </contour>
    <contour>
      <point x="-85" y="759" type="curve"/>
      <point x="-85" y="749" type="line"/>
      <point x="101.854" y="733.427"/>
      <point x="215.757" y="467.855"/>
      <point x="245.757" y="322.282" type="curve"/>
      <point x="245.709" y="0" type="line"/>
      <point x="450.727" y="0" type="line"/>
      <point x="450.727" y="321.754" type="line"/>
      <point x="470.727" y="467.502"/>
      <point x="610.221" y="743.251"/>
      <point x="739.968" y="749" type="curve"/>
      <point x="739.968" y="759" type="line"/>
      <point x="599.39" y="769.586"/>
      <point x="468.813" y="610.171"/>
      <point x="418.235" y="460.757" type="curve"/>
      <point x="345.823" y="660.171"/>
      <point x="159.412" y="779.586"/>
    </contour>
  </outline>
</glyph>
<glyph name="Z" format="2">
  <advance width="659"/>
  <unicode hex="005A"/>
  <anchor x="335" y="764" name="top"/>
  <outline>
    <contour>
      <point x="187.952" y="653.572" type="line"/>
      <point x="49.342" y="653.572" type="line"/>
      <point x="49.342" y="513.271" type="line"/>
      <point x="59.442" y="513.421" type="line"/>
      <point x="59.423" y="521.245" type="line" smooth="yes"/>
      <point x="59.229" y="601.123"/>
      <point x="106.968" y="650.341"/>
      <point x="187.952" y="650.864" type="curve"/>
    </contour>
    <contour>
      <point x="49.342" y="719.03" type="curve"/>
      <point x="49.342" y="689.751" type="line"/>
      <point x="171.273" y="700.829" type="line"/>
      <point x="127.913" y="700.829"/>
      <point x="68.291" y="711.043"/>
    </contour>
    <contour>
      <point x="620.594" y="714" type="curve"/>
      <point x="608.791" y="707.817"/>
      <point x="554.843" y="701.098"/>
      <point x="514.627" y="701.098" type="curve"/>
      <point x="49.348" y="700.737" type="line"/>
      <point x="49.348" y="650.856" type="line"/>
      <point x="367.247" y="650.855" type="line"/>
      <point x="35.184" y="9.322" type="line"/>
      <point x="35" y="0" type="line"/>
      <point x="259.012" y="0" type="line"/>
      <point x="620.594" y="705.328" type="line"/>
      <point x="620.594" y="705.33"/>
      <point x="620.594" y="714"/>
    </contour>
    <contour>
      <point x="60.666" y="46" type="curve"/>
      <point x="34.955" y="0" type="line"/>
      <point x="352.43" y="0"/>
      <point x="811.383" y="-471"/>
      <point x="1094.85" y="-127" type="curve"/>
      <point x="1086.85" y="-120" type="line"/>
      <point x="902.411" y="-190"/>
      <point x="590.756" y="-62"/>
      <point x="240.845" y="13.486" type="curve" smooth="yes"/>
      <point x="181.734" y="26.232"/>
      <point x="121.532" y="37.474"/>
    </contour>
  </outline>
</glyph>
<glyph name="backslash" format="2">
  <advance width="439"/>
  <unicode hex="005C"/>
  <outline>
    <contour>
      <point x="69.08" y="723" type="line"/>
      <point x="10" y="696.502" type="line"/>
      <point x="370.938" y="-14" type="line"/>
      <point x="429.594" y="14.083" type="line"/>
    </contour>
  </outline>
</glyph>
<glyph name="bracketright" format="2">
  <advance width="362"/>
  <unicode hex="005D"/>
  <outline>
    <contour>
      <point x="352.49" y="722" type="line"/>
      <point x="43.307" y="722" type="line"/>
      <point x="43.307" y="712" type="line"/>
      <point x="147.49" y="662" type="line"/>
      <point x="147.49" y="-30" type="line"/>
      <point x="40" y="-80" type="line"/>
      <point x="40" y="-90" type="line"/>
      <point x="352.49" y="-90" type="line"/>
    </contour>
  </outline>
</glyph>
<glyph name="grave" format="2">
  <advance width="600"/>
  <unicode hex="0060"/>
  <anchor x="266.765" y="743.065" name="_top"/>
  <outline>
    <contour>
      <point x="293.671" y="749.971" type="line"/>
      <point x="265.419" y="815.856"/>
      <point x="183.167" y="897.741"/>
      <point x="138.915" y="935.626" type="curve"/>
      <point x="90.535" y="915.39"/>
      <point x="67.156" y="882.155"/>
      <point x="53.776" y="835.919" type="curve"/>
      <point x="117.074" y="793.936"/>
      <point x="213.373" y="751.954"/>
      <point x="286.671" y="742.971" type="curve"/>
    </contour>
  </outline>
</glyph>
<glyph name="a" format="2">
  <advance width="720"/>
  <unicode hex="0061"/>
  <guideline x="146.325" y="600" angle="0"/>
  <guideline x="26.211" y="614" angle="0"/>
  <anchor x="578.344" y="9.972" name="ogonek"/>
  <anchor x="350.281" y="764" name="top"/>
  <outline>
    <contour>
      <point x="351.414" y="724" type="line" smooth="yes"/>
      <point x="263.51" y="468" type="line"/>
      <point x="456.573" y="6.095" type="line"/>
      <point x="696.633" y="6.095" type="line"/>
    </contour>
    <contour>
      <point x="136.092" y="72.681" type="curve"/>
      <point x="56.7" y="73.013" type="line"/>
      <point x="35.488" y="28.464"/>
      <point x="-1" y="10"/>
      <point x="-31" y="10" type="curve" smooth="yes"/>
      <point x="-31" y="10"/>
      <point x="-40" y="10"/>
      <point x="-40" y="10" type="curve"/>
      <point x="-40" y="0" type="line"/>
      <point x="183.279" y="0" type="line"/>
      <point x="183.279" y="9.908" type="line"/>
      <point x="174.487" y="9.908" type="line" smooth="yes"/>
      <point x="148.67" y="9.908"/>
      <point x="118.49" y="32.664"/>
    </contour>
    <contour>
      <point x="351.414" y="724" type="line"/>
      <point x="342.408" y="724" type="line"/>
      <point x="338.408" y="690.283"/>
      <point x="297.112" y="599.922"/>
      <point x="285.361" y="574.867" type="curve"/>
      <point x="24.19" y="3.095" type="line"/>
      <point x="105.233" y="3.095" type="line"/>
      <point x="351.3" y="567.543" type="line"/>
    </contour>
    <contour>
      <point x="432.513" y="216" type="line"/>
      <point x="150.293" y="216" type="line"/>
      <point x="150.293" y="166" type="line"/>
      <point x="432.513" y="166" type="line"/>
    </contour>
    <contour>
      <point x="428.143" y="72.681" type="line"/>
      <point x="444.745" y="32.664"/>
      <point x="415.815" y="9.911"/>
      <point x="389.999" y="9.911" type="curve" smooth="yes"/>
      <point x="381.207" y="9.911" type="line"/>
      <point x="381.207" y="0" type="line"/>
      <point x="760.264" y="0" type="line"/>
      <point x="760.264" y="10" type="line"/>
      <point x="760.264" y="10"/>
      <point x="751.901" y="10"/>
      <point x="751.901" y="10" type="curve" smooth="yes"/>
      <point x="721.254" y="10"/>
      <point x="686.244" y="28.464"/>
      <point x="664.032" y="73.013" type="curve"/>
    </contour>
  </outline>
</glyph>
<glyph name="b" format="2">
  <advance width="730"/>
  <unicode hex="0062"/>
  <outline>
    <contour>
      <point x="162" y="700" type="line" smooth="yes"/>
      <point x="162" y="700"/>
      <point x="172" y="651"/>
      <point x="172" y="650" type="curve"/>
      <point x="325" y="650" type="line"/>
      <point x="390" y="650"/>
      <point x="441" y="617"/>
      <point x="441" y="510" type="curve" smooth="yes"/>
      <point x="441" y="427"/>
      <point x="410" y="379"/>
      <point x="346" y="379" type="curve"/>
      <point x="346" y="370" type="line"/>
      <point x="430" y="370"/>
      <point x="472" y="311"/>
      <point x="472" y="215" type="curve" smooth="yes"/>
      <point x="472" y="94"/>
      <point x="405" y="51"/>
      <point x="325" y="51" type="curve"/>
      <point x="304" y="51" type="line"/>
      <point x="304" y="51"/>
      <point x="303" y="0"/>
      <point x="303" y="0" type="curve"/>
      <point x="394" y="0" type="line" smooth="yes"/>
      <point x="576" y="0"/>
      <point x="707" y="61"/>
      <point x="707" y="200" type="curve" smooth="yes"/>
      <point x="707" y="311"/>
      <point x="623" y="376"/>
      <point x="525" y="381" type="curve"/>
      <point x="592" y="383"/>
      <point x="656" y="430"/>
      <point x="656" y="526" type="curve" smooth="yes"/>
      <point x="656" y="663"/>
      <point x="527" y="700"/>
      <point x="378" y="700" type="curve" smooth="yes"/>
    </contour>
    <contour>
      <point x="312" y="700" type="line"/>
      <point x="107" y="700" type="line"/>
      <point x="107" y="0" type="line"/>
      <point x="312" y="0" type="line"/>
    </contour>
    <contour>
      <point x="110" y="73" type="line"/>
      <point x="107" y="73" type="line"/>
      <point x="106" y="38"/>
      <point x="78" y="10"/>
      <point x="43" y="10" type="curve" smooth="yes"/>
      <point x="41" y="10"/>
      <point x="32" y="10"/>
      <point x="30" y="10" type="curve"/>
      <point x="30" y="0" type="line"/>
      <point x="110" y="0" type="line"/>
    </contour>
    <contour>
      <point x="110" y="627" type="line"/>
      <point x="110" y="700" type="line"/>
      <point x="30" y="700" type="line"/>
      <point x="30" y="690" type="line"/>
      <point x="32" y="690"/>
      <point x="41" y="690"/>
      <point x="43" y="690" type="curve" smooth="yes"/>
      <point x="78" y="690"/>
      <point x="106" y="662"/>
      <point x="107" y="627" type="curve"/>
    </contour>
  </outline>
</glyph>
<glyph name="c" format="2">
  <advance width="793"/>
  <unicode hex="0063"/>
  <anchor x="445.32" y="-9.388" name="bottom"/>
  <anchor x="436" y="764" name="top"/>
  <outline>
    <contour>
      <point x="729.328" y="291.886" type="line"/>
      <point x="721.006" y="291.85" type="line"/>
      <point x="684.435" y="100.51"/>
      <point x="633.678" y="35.929"/>
      <point x="472.128" y="35.929" type="curve"/>
      <point x="335.648" y="39.866"/>
      <point x="255" y="158.007"/>
      <point x="255" y="354" type="curve" smooth="yes"/>
      <point x="255" y="548.837"/>
      <point x="342.161" y="664.008"/>
      <point x="489.665" y="664.074" type="curve" smooth="yes"/>
      <point x="593" y="664"/>
      <point x="671" y="618"/>
      <point x="711.378" y="477.264" type="curve"/>
      <point x="719.701" y="477.232" type="line"/>
      <point x="729.525" y="668.468" type="line"/>
      <point x="674" y="692"/>
      <point x="585" y="714"/>
      <point x="473" y="714" type="curve" smooth="yes"/>
      <point x="197" y="714"/>
      <point x="35" y="579"/>
      <point x="35" y="351" type="curve" smooth="yes"/>
      <point x="35" y="118"/>
      <point x="203" y="-13"/>
      <point x="472.128" y="-14" type="curve"/>
      <point x="630.992" y="-14"/>
      <point x="713.441" y="43.8"/>
      <point x="753.139" y="109.938" type="curve"/>
    </contour>
  </outline>
</glyph>
<glyph name="e" format="2">
  <advance width="666"/>
  <unicode hex="0065"/>
  <anchor x="359" y="0" name="bottom"/>
  <anchor x="568" y="5" name="ogonek"/>
  <anchor x="339" y="764" name="top"/>
  <outline>
    <contour>
      <point x="312" y="700" type="line"/>
      <point x="107" y="700" type="line"/>
      <point x="107" y="0" type="line"/>
      <point x="312" y="0" type="line"/>
    </contour>
    <contour>
      <point x="572" y="51" type="line"/>
      <point x="309" y="51" type="line"/>
      <point x="309" y="0" type="line"/>
      <point x="612" y="0" type="line"/>
    </contour>
    <contour>
      <point x="539" y="370" type="line"/>
      <point x="309" y="370" type="line"/>
      <point x="309" y="320" type="line"/>
      <point x="539" y="320" type="line"/>
    </contour>
    <contour>
      <point x="592" y="700" type="line"/>
      <point x="309" y="700" type="line"/>
      <point x="309" y="649" type="line" smooth="yes"/>
      <point x="592" y="649" type="line"/>
    </contour>
    <contour>
      <point x="653" y="232" type="line"/>
      <point x="643" y="232" type="line"/>
      <point x="612" y="117"/>
      <point x="531" y="51"/>
      <point x="435" y="51" type="curve"/>
      <point x="399" y="0" type="line"/>
      <point x="615" y="0" type="line"/>
    </contour>
    <contour>
      <point x="539" y="322" type="line"/>
      <point x="421" y="322" type="line"/>
      <point x="421" y="320" type="line"/>
      <point x="484" y="319"/>
      <point x="529" y="274"/>
      <point x="529" y="211" type="curve" smooth="yes"/>
      <point x="529" y="206" type="line"/>
      <point x="539" y="206" type="line"/>
    </contour>
    <contour>
      <point x="539" y="484" type="line"/>
      <point x="529" y="484" type="line"/>
      <point x="529" y="480" type="line" smooth="yes"/>
      <point x="530" y="417"/>
      <point x="484" y="371"/>
      <point x="421" y="370" type="curve"/>
      <point x="421" y="368" type="line"/>
      <point x="539" y="368" type="line"/>
    </contour>
    <contour>
      <point x="592" y="652" type="line"/>
      <point x="453" y="652" type="line"/>
      <point x="453" y="650" type="line"/>
      <point x="534" y="648"/>
      <point x="582" y="600"/>
      <point x="582" y="520" type="curve" smooth="yes"/>
      <point x="582" y="512" type="line"/>
      <point x="592" y="512" type="line"/>
    </contour>
    <contour>
      <point x="592" y="718" type="line"/>
      <point x="573" y="710"/>
      <point x="513" y="700"/>
      <point x="470" y="700" type="curve"/>
      <point x="592" y="689" type="line"/>
    </contour>
    <contour>
      <point x="110" y="73" type="line"/>
      <point x="107" y="73" type="line"/>
      <point x="106" y="38"/>
      <point x="78" y="10"/>
      <point x="43" y="10" type="curve" smooth="yes"/>
      <point x="43" y="10"/>
      <point x="30" y="10"/>
      <point x="30" y="10" type="curve"/>
      <point x="30" y="0" type="line"/>
      <point x="110" y="0" type="line"/>
    </contour>
    <contour>
      <point x="110" y="627" type="line"/>
      <point x="110" y="700" type="line"/>
      <point x="30" y="700" type="line"/>
      <point x="30" y="690" type="line"/>
      <point x="30" y="690"/>
      <point x="43" y="690"/>
      <point x="43" y="690" type="curve" smooth="yes"/>
      <point x="78" y="690"/>
      <point x="106" y="662"/>
      <point x="107" y="627" type="curve"/>
    </contour>
  </outline>
</glyph>
<glyph name="h" format="2">
  <advance width="893"/>
  <unicode hex="0068"/>
  <anchor x="410" y="350" name="center"/>
  <anchor x="410" y="700" name="top"/>
  <outline>
    <contour>
      <point x="786.189" y="700" type="line"/>
      <point x="581.142" y="700" type="line"/>
      <point x="581.142" y="0" type="line"/>
      <point x="786.189" y="0" type="line"/>
    </contour>
    <contour>
      <point x="311.92" y="700" type="line"/>
      <point x="106.873" y="700" type="line"/>
      <point x="106.873" y="0" type="line"/>
      <point x="311.92" y="0" type="line"/>
    </contour>
    <contour>
      <point x="590.318" y="375" type="line"/>
      <point x="301.574" y="375" type="line"/>
      <point x="301.574" y="325" type="line"/>
      <point x="590.318" y="325" type="line"/>
    </contour>
    <contour>
      <point x="109.775" y="72.864" type="line"/>
      <point x="106.865" y="72.864" type="line"/>
      <point x="106.21" y="38.029"/>
      <point x="77.813" y="9.979"/>
      <point x="42.811" y="9.979" type="curve" smooth="yes"/>
      <point x="42.659" y="9.979"/>
      <point x="30.318" y="10"/>
      <point x="30.161" y="10" type="curve"/>
      <point x="30" y="0" type="line"/>
      <point x="109.775" y="0" type="line"/>
    </contour>
    <contour>
      <point x="109.791" y="627.196" type="line"/>
      <point x="109.791" y="700.06" type="line"/>
      <point x="30.016" y="700.06" type="line"/>
      <point x="30.178" y="690.06" type="line"/>
      <point x="30.335" y="690.06"/>
      <point x="42.676" y="690.08"/>
      <point x="42.828" y="690.08" type="curve" smooth="yes"/>
      <point x="77.829" y="690.08"/>
      <point x="106.226" y="662.03"/>
      <point x="106.882" y="627.196" type="curve"/>
    </contour>
    <contour>
      <point x="309.012" y="72.864" type="line"/>
      <point x="309.012" y="0" type="line"/>
      <point x="388.787" y="0" type="line"/>
      <point x="388.626" y="10" type="line"/>
      <point x="388.469" y="10"/>
      <point x="376.128" y="9.979"/>
      <point x="375.976" y="9.979" type="curve" smooth="yes"/>
      <point x="340.974" y="9.979"/>
      <point x="312.577" y="38.029"/>
      <point x="311.922" y="72.864" type="curve"/>
    </contour>
    <contour>
      <point x="308.996" y="627.196" type="line"/>
      <point x="311.905" y="627.196" type="line"/>
      <point x="312.561" y="662.03"/>
      <point x="340.958" y="690.08"/>
      <point x="375.959" y="690.08" type="curve" smooth="yes"/>
      <point x="376.111" y="690.08"/>
      <point x="388.452" y="690.06"/>
      <point x="388.609" y="690.06" type="curve"/>
      <point x="388.771" y="700.06" type="line"/>
      <point x="308.996" y="700.06" type="line"/>
    </contour>
    <contour>
      <point x="584.071" y="72.864" type="line"/>
      <point x="581.161" y="72.864" type="line"/>
      <point x="580.506" y="38.029"/>
      <point x="552.109" y="9.979"/>
      <point x="517.107" y="9.979" type="curve" smooth="yes"/>
      <point x="516.955" y="9.979"/>
      <point x="504.614" y="10"/>
      <point x="504.457" y="10" type="curve"/>
      <point x="504.296" y="0" type="line"/>
      <point x="584.071" y="0" type="line"/>
    </contour>
    <contour>
      <point x="584.087" y="627.196" type="line"/>
      <point x="584.087" y="700.06" type="line"/>
      <point x="504.312" y="700.06" type="line"/>
      <point x="504.474" y="690.06" type="line"/>
      <point x="504.631" y="690.06"/>
      <point x="516.972" y="690.08"/>
      <point x="517.124" y="690.08" type="curve" smooth="yes"/>
      <point x="552.125" y="690.08"/>
      <point x="580.522" y="662.03"/>
      <point x="581.178" y="627.196" type="curve"/>
    </contour>
    <contour>
      <point x="783.308" y="72.864" type="line"/>
      <point x="783.308" y="0" type="line"/>
      <point x="863.083" y="0" type="line"/>
      <point x="862.922" y="10" type="line"/>
      <point x="862.765" y="10"/>
      <point x="850.424" y="9.979"/>
      <point x="850.272" y="9.979" type="curve" smooth="yes"/>
      <point x="815.27" y="9.979"/>
      <point x="786.873" y="38.029"/>
      <point x="786.218" y="72.864" type="curve"/>
    </contour>
    <contour>
      <point x="783.292" y="627.196" type="line"/>
      <point x="786.201" y="627.196" type="line"/>
      <point x="786.857" y="662.03"/>
      <point x="815.254" y="690.08"/>
      <point x="850.255" y="690.08" type="curve" smooth="yes"/>
      <point x="850.407" y="690.08"/>
      <point x="862.748" y="690.06"/>
      <point x="862.905" y="690.06" type="curve"/>
      <point x="863.067" y="700.06" type="line"/>
      <point x="783.292" y="700.06" type="line"/>
    </contour>
  </outline>
</glyph>
<glyph name="j" format="2">
  <advance width="424"/>
  <unicode hex="006A"/>
  <outline>
    <contour>
      <point x="317.163" y="700" type="line"/>
      <point x="111.961" y="699.742" type="line"/>
      <point x="111.961" y="52.923" type="line" smooth="yes"/>
      <point x="111.961" y="-43"/>
      <point x="92.459" y="-147"/>
      <point x="-5" y="-191" type="curve"/>
      <point x="-5" y="-200" type="line"/>
      <point x="157.557" y="-221"/>
      <point x="317.163" y="-120"/>
      <point x="317.163" y="50.099" type="curve" smooth="yes"/>
    </contour>
    <contour>
      <point x="114.86" y="627.196" type="line"/>
      <point x="114.86" y="700.06" type="line"/>
      <point x="35.085" y="700.06" type="line"/>
      <point x="35.247" y="690.06" type="line"/>
      <point x="35.404" y="690.06"/>
      <point x="47.745" y="690.08"/>
      <point x="47.897" y="690.08" type="curve" smooth="yes"/>
      <point x="82.898" y="690.08"/>
      <point x="111.295" y="662.03"/>
      <point x="111.951" y="627.196" type="curve"/>
    </contour>
    <contour>
      <point x="314.249" y="627.196" type="line"/>
      <point x="317.158" y="627.196" type="line"/>
      <point x="317.814" y="662.03"/>
      <point x="346.211" y="690.08"/>
      <point x="381.212" y="690.08" type="curve" smooth="yes"/>
      <point x="381.364" y="690.08"/>
      <point x="393.705" y="690.06"/>
      <point x="393.862" y="690.06" type="curve"/>
      <point x="394.024" y="700.06" type="line"/>
      <point x="314.249" y="700.06" type="line"/>
    </contour>
  </outline>
</glyph>
<glyph name="k" format="2">
  <advance width="821"/>
  <unicode hex="006B"/>
  <anchor x="470" y="0" name="bottom"/>
  <anchor x="465" y="700" name="top"/>
  <outline>
    <contour>
      <point x="492.845" y="459.778" type="line"/>
      <point x="344.077" y="318.182" type="line"/>
      <point x="344" y="316"/>
      <point x="451.767" y="142.444"/>
      <point x="483" y="100" type="curve" smooth="yes"/>
      <point x="561" y="-6"/>
      <point x="711" y="0.166"/>
      <point x="739.533" y="0.131" type="curve" smooth="yes"/>
      <point x="847.725" y="0" type="line"/>
      <point x="847.725" y="10.075" type="line"/>
      <point x="807.078" y="11.11"/>
      <point x="773.316" y="36.873"/>
      <point x="740.941" y="85.689" type="curve" smooth="yes"/>
    </contour>
    <contour>
      <point x="718.581" y="692.968" type="line"/>
      <point x="619.047" y="692.968" type="line"/>
      <point x="344.077" y="318.182" type="line"/>
      <point x="416.81" y="328.182" type="line"/>
    </contour>
    <contour>
      <point x="790.435" y="700" type="line"/>
      <point x="786.055" y="700" type="line"/>
      <point x="549.336" y="700" type="line"/>
      <point x="549.336" y="691.157" type="line"/>
      <point x="559" y="691.164" type="line"/>
      <point x="586.627" y="691.164"/>
      <point x="599.237" y="665.949"/>
      <point x="582.794" y="643.547" type="curve"/>
      <point x="676.108" y="641.63" type="line"/>
      <point x="701.879" y="671.062"/>
      <point x="741.908" y="690.881"/>
      <point x="786.055" y="690.98" type="curve" smooth="yes"/>
      <point x="790.435" y="690.98" type="line"/>
    </contour>
    <contour>
      <point x="311.92" y="700" type="line"/>
      <point x="106.873" y="700" type="line"/>
      <point x="106.873" y="0" type="line"/>
      <point x="311.92" y="0" type="line"/>
    </contour>
    <contour>
      <point x="109.775" y="72.864" type="line"/>
      <point x="106.865" y="72.864" type="line"/>
      <point x="106.21" y="38.029"/>
      <point x="77.813" y="9.979"/>
      <point x="42.811" y="9.979" type="curve" smooth="yes"/>
      <point x="41" y="10"/>
      <point x="32" y="10"/>
      <point x="30.161" y="10" type="curve"/>
      <point x="30" y="0" type="line"/>
      <point x="109.775" y="0" type="line"/>
    </contour>
    <contour>
      <point x="109.791" y="627.196" type="line"/>
      <point x="109.791" y="700.06" type="line"/>
      <point x="30.016" y="700.06" type="line"/>
      <point x="30.178" y="690.06" type="line"/>
      <point x="32" y="690"/>
      <point x="41" y="690"/>
      <point x="43" y="690" type="curve" smooth="yes"/>
      <point x="77.829" y="690.08"/>
      <point x="106.226" y="662.03"/>
      <point x="106.882" y="627.196" type="curve"/>
    </contour>
    <contour>
      <point x="309.012" y="72.864" type="line"/>
      <point x="309.012" y="0" type="line"/>
      <point x="388.787" y="0" type="line"/>
      <point x="388.626" y="10" type="line"/>
      <point x="387" y="10"/>
      <point x="378" y="10"/>
      <point x="376" y="10" type="curve" smooth="yes"/>
      <point x="340.974" y="9.979"/>
      <point x="312.577" y="38.029"/>
      <point x="311.922" y="72.864" type="curve"/>
    </contour>
    <contour>
      <point x="308.996" y="627.196" type="line"/>
      <point x="311.905" y="627.196" type="line"/>
      <point x="312.561" y="662.03"/>
      <point x="340.958" y="690.08"/>
      <point x="375.959" y="690.08" type="curve" smooth="yes"/>
      <point x="378" y="690"/>
      <point x="387" y="690"/>
      <point x="388.609" y="690.06" type="curve"/>
      <point x="388.771" y="700.06" type="line"/>
      <point x="308.996" y="700.06" type="line"/>
    </contour>
  </outline>
</glyph>
<glyph name="m" format="2">
  <advance width="968"/>
  <unicode hex="006D"/>
  <outline>
    <contour>
      <point x="805" y="714" type="line"/>
      <point x="379" y="79" type="line"/>
      <point x="435" y="-24" type="line"/>
      <point x="444" y="-24" type="line"/>
      <point x="442" y="29"/>
      <point x="486" y="92"/>
      <point x="486" y="92" type="curve"/>
      <point x="813" y="578" type="line"/>
    </contour>
    <contour>
      <point x="86" y="73" type="line"/>
      <point x="64" y="73" type="line"/>
      <point x="59" y="33"/>
      <point x="27" y="10"/>
      <point x="-9" y="9.991" type="curve" smooth="yes"/>
      <point x="-9" y="9.991"/>
      <point x="-24" y="10"/>
      <point x="-25" y="10" type="curve"/>
      <point x="-25" y="0" type="line"/>
      <point x="86" y="0" type="line"/>
    </contour>
    <contour>
      <point x="140" y="57" type="curve"/>
      <point x="133" y="57" type="line"/>
      <point x="133" y="0" type="line"/>
      <point x="195" y="0" type="line"/>
      <point x="195" y="9" type="line"/>
      <point x="179" y="9" type="line" smooth="yes"/>
      <point x="157" y="9"/>
      <point x="140" y="31"/>
      <point x="140" y="52" type="curve" smooth="yes"/>
      <point x="140" y="54"/>
      <point x="140" y="55"/>
    </contour>
    <contour>
      <point x="152" y="714" type="line"/>
      <point x="54" y="0" type="line"/>
      <point x="133" y="0" type="line"/>
      <point x="206" y="587" type="line"/>
      <point x="161" y="714" type="line"/>
    </contour>
    <contour>
      <point x="161" y="714" type="line"/>
      <point x="131" y="396" type="line"/>
      <point x="435" y="-24" type="line"/>
      <point x="513" y="233" type="line"/>
    </contour>
    <contour>
      <point x="814" y="714" type="line"/>
      <point x="805" y="714" type="line"/>
      <point x="653" y="365" type="line"/>
      <point x="701" y="0" type="line"/>
      <point x="915" y="0" type="line"/>
    </contour>
    <contour>
      <point x="883" y="73" type="line"/>
      <point x="883" y="0" type="line"/>
      <point x="994" y="0" type="line"/>
      <point x="994" y="10" type="line"/>
      <point x="993" y="10"/>
      <point x="978" y="10"/>
      <point x="978" y="10" type="curve" smooth="yes"/>
      <point x="942" y="10"/>
      <point x="912" y="33"/>
      <point x="905" y="73" type="curve"/>
    </contour>
    <contour>
      <point x="694" y="57" type="line"/>
      <point x="694" y="55"/>
      <point x="694" y="54"/>
      <point x="694" y="52" type="curve" smooth="yes"/>
      <point x="694" y="31"/>
      <point x="676" y="9"/>
      <point x="655" y="9" type="curve" smooth="yes"/>
      <point x="639" y="9" type="line"/>
      <point x="639" y="0" type="line"/>
      <point x="701" y="0" type="line"/>
      <point x="701" y="57" type="line"/>
    </contour>
  </outline>
</glyph>
<glyph name="o" format="2">
  <advance width="900"/>
  <unicode hex="006F"/>
  <anchor x="450.432" y="778" name="top"/>
  <outline>
    <contour>
      <point x="450.432" y="714" type="curve" smooth="yes"/>
      <point x="192.446" y="714"/>
      <point x="35" y="578.797"/>
      <point x="35" y="349.992" type="curve" smooth="yes"/>
      <point x="35" y="121.197"/>
      <point x="192.446" y="-14"/>
      <point x="450.432" y="-14" type="curve" smooth="yes"/>
      <point x="708.418" y="-14"/>
      <point x="865.865" y="121.197"/>
      <point x="865.865" y="349.992" type="curve" smooth="yes"/>
      <point x="865.865" y="578.797"/>
      <point x="708.418" y="714"/>
    </contour>
    <contour>
      <point x="450.432" y="35.925" type="curve" smooth="yes"/>
      <point x="328.008" y="35.925"/>
      <point x="255.667" y="152.578"/>
      <point x="255.667" y="349.992" type="curve" smooth="yes"/>
      <point x="255.667" y="547.416"/>
      <point x="328.008" y="664.075"/>
      <point x="450.432" y="664.075" type="curve" smooth="yes"/>
      <point x="572.856" y="664.075"/>
      <point x="645.198" y="547.416"/>
      <point x="645.198" y="349.992" type="curve" smooth="yes"/>
      <point x="645.198" y="152.578"/>
      <point x="572.856" y="35.925"/>
    </contour>
  </outline>
</glyph>
<glyph name="p" format="2">
  <advance width="707"/>
  <unicode hex="0070"/>
  <outline>
    <contour>
      <point x="304.409" y="700" type="line" smooth="yes"/>
      <point x="304.409" y="700"/>
      <point x="314.462" y="650"/>
      <point x="314.462" y="650" type="curve"/>
      <point x="352.309" y="650" type="line"/>
      <point x="429.068" y="650"/>
      <point x="474.068" y="598"/>
      <point x="477.068" y="517" type="curve" smooth="yes"/>
      <point x="478.068" y="500"/>
      <point x="476.068" y="477"/>
      <point x="471.068" y="457" type="curve" smooth="yes"/>
      <point x="443.068" y="342"/>
      <point x="350.068" y="340"/>
      <point x="351.101" y="338.866" type="curve"/>
      <point x="351.221" y="329.416" type="line"/>
      <point x="505" y="218"/>
      <point x="702.371" y="324"/>
      <point x="692.132" y="509.406" type="curve" smooth="yes"/>
      <point x="686.475" y="611.844"/>
      <point x="615" y="700"/>
      <point x="415.931" y="700" type="curve" smooth="yes"/>
    </contour>
    <contour>
      <point x="317.029" y="700" type="line"/>
      <point x="111.905" y="700" type="line"/>
      <point x="111.905" y="0" type="line"/>
      <point x="317.029" y="0" type="line"/>
    </contour>
    <contour>
      <point x="114.775" y="72.864" type="line"/>
      <point x="111.865" y="72.864" type="line"/>
      <point x="111.21" y="38.029"/>
      <point x="82.813" y="9.979"/>
      <point x="47.811" y="9.979" type="curve" smooth="yes"/>
      <point x="46" y="10"/>
      <point x="37" y="10"/>
      <point x="35.161" y="10" type="curve"/>
      <point x="35" y="0" type="line"/>
      <point x="114.775" y="0" type="line"/>
    </contour>
    <contour>
      <point x="115.126" y="627.196" type="line"/>
      <point x="115.126" y="700.06" type="line"/>
      <point x="35.351" y="700.06" type="line"/>
      <point x="35.513" y="690.06" type="line"/>
      <point x="38" y="690"/>
      <point x="46" y="690"/>
      <point x="48" y="690" type="curve" smooth="yes"/>
      <point x="83.164" y="690.08"/>
      <point x="111.561" y="662.03"/>
      <point x="112.217" y="627.196" type="curve"/>
    </contour>
    <contour>
      <point x="314.122" y="72.864" type="line"/>
      <point x="314.122" y="0" type="line"/>
      <point x="393.897" y="0" type="line"/>
      <point x="393.736" y="10" type="line"/>
      <point x="392" y="10"/>
      <point x="383" y="10"/>
      <point x="381" y="10" type="curve" smooth="yes"/>
      <point x="346.084" y="9.979"/>
      <point x="317.687" y="38.029"/>
      <point x="317.032" y="72.864" type="curve"/>
    </contour>
  </outline>
</glyph>
<glyph name="q" format="2">
  <advance width="912"/>
  <unicode hex="0071"/>
  <outline>
    <contour>
      <point x="453" y="-14" type="line"/>
      <point x="574" y="-18"/>
      <point x="660" y="-134"/>
      <point x="824" y="-224" type="curve" smooth="yes"/>
      <point x="1130" y="-391"/>
      <point x="1376" y="-283"/>
      <point x="1376" y="-67" type="curve"/>
      <point x="1369" y="-64" type="line"/>
      <point x="1266" y="-138"/>
      <point x="1121" y="-149"/>
      <point x="921" y="-76" type="curve" smooth="yes"/>
      <point x="711" y="1"/>
      <point x="677" y="13"/>
      <point x="399" y="35" type="curve"/>
    </contour>
    <contour>
      <point x="455" y="714" type="curve" smooth="yes"/>
      <point x="197" y="714"/>
      <point x="40" y="579"/>
      <point x="40" y="349.992" type="curve" smooth="yes"/>
      <point x="40" y="121"/>
      <point x="197" y="-14"/>
      <point x="455" y="-14" type="curve" smooth="yes"/>
      <point x="713" y="-14"/>
      <point x="871" y="121"/>
      <point x="871" y="350" type="curve" smooth="yes"/>
      <point x="871" y="579"/>
      <point x="713" y="714"/>
    </contour>
    <contour>
      <point x="455" y="36" type="curve" smooth="yes"/>
      <point x="333" y="36"/>
      <point x="261" y="153"/>
      <point x="261" y="350" type="curve" smooth="yes"/>
      <point x="261" y="547"/>
      <point x="333" y="664"/>
      <point x="455" y="664" type="curve" smooth="yes"/>
      <point x="578" y="664"/>
      <point x="650" y="547"/>
      <point x="650" y="350" type="curve" smooth="yes"/>
      <point x="650" y="153"/>
      <point x="578" y="36"/>
    </contour>
  </outline>
</glyph>
<glyph name="r" format="2">
  <advance width="792"/>
  <unicode hex="0072"/>
  <anchor x="480" y="-64" name="bottom"/>
  <anchor x="391" y="764" name="top"/>
  <outline>
    <contour>
      <point x="305.086" y="700" type="line" smooth="yes"/>
      <point x="305.086" y="700"/>
      <point x="313.551" y="648"/>
      <point x="315.076" y="648" type="curve" smooth="yes"/>
      <point x="330.107" y="648"/>
      <point x="352" y="648"/>
      <point x="362" y="648" type="curve" smooth="yes"/>
      <point x="422" y="648"/>
      <point x="471" y="615"/>
      <point x="476" y="516" type="curve" smooth="yes"/>
      <point x="477" y="497"/>
      <point x="475" y="486"/>
      <point x="474" y="475" type="curve" smooth="yes"/>
      <point x="463" y="389"/>
      <point x="422" y="351.797"/>
      <point x="367" y="351.797" type="curve" smooth="yes"/>
      <point x="362.223" y="351.797"/>
      <point x="355.616" y="351.797"/>
      <point x="350.9" y="351.797" type="curve"/>
      <point x="350.9" y="342.34" type="line"/>
      <point x="370" y="335"/>
      <point x="389" y="323"/>
      <point x="403" y="275" type="curve" smooth="yes"/>
      <point x="416" y="232"/>
      <point x="419" y="175"/>
      <point x="455" y="114" type="curve" smooth="yes"/>
      <point x="516" y="10"/>
      <point x="609" y="0"/>
      <point x="728.955" y="0" type="curve" smooth="yes"/>
      <point x="853.817" y="0" type="line"/>
      <point x="853.817" y="10.028" type="line"/>
      <point x="806" y="11"/>
      <point x="783" y="24"/>
      <point x="738" y="86" type="curve" smooth="yes"/>
      <point x="701" y="136"/>
      <point x="658" y="213"/>
      <point x="653" y="221" type="curve" smooth="yes"/>
      <point x="629" y="261"/>
      <point x="587" y="305"/>
      <point x="531.306" y="321.391" type="curve"/>
      <point x="656" y="340"/>
      <point x="691" y="435"/>
      <point x="691" y="511" type="curve" smooth="yes"/>
      <point x="691" y="665"/>
      <point x="547" y="700"/>
      <point x="425.724" y="700" type="curve" smooth="yes"/>
    </contour>
    <contour>
      <point x="317.612" y="700" type="line"/>
      <point x="111.895" y="700" type="line"/>
      <point x="111.895" y="0" type="line"/>
      <point x="317.612" y="0" type="line"/>
    </contour>
    <contour>
      <point x="114.816" y="72.864" type="line"/>
      <point x="111.906" y="72.864" type="line"/>
      <point x="111.251" y="38.029"/>
      <point x="82.854" y="9.979"/>
      <point x="47.852" y="9.979" type="curve" smooth="yes"/>
      <point x="46" y="10"/>
      <point x="37" y="10"/>
      <point x="35.202" y="10" type="curve"/>
      <point x="35.041" y="0" type="line"/>
      <point x="114.816" y="0" type="line"/>
    </contour>
    <contour>
      <point x="114.775" y="627.196" type="line"/>
      <point x="114.775" y="700.06" type="line"/>
      <point x="35" y="700.06" type="line"/>
      <point x="35.162" y="690.06" type="line"/>
      <point x="37" y="690"/>
      <point x="46" y="690"/>
      <point x="48" y="690" type="curve" smooth="yes"/>
      <point x="82.813" y="690.08"/>
      <point x="111.21" y="662.03"/>
      <point x="111.866" y="627.196" type="curve"/>
    </contour>
    <contour>
      <point x="314.723" y="72.864" type="line"/>
      <point x="314.723" y="0" type="line"/>
      <point x="394.498" y="0" type="line"/>
      <point x="394.337" y="10" type="line"/>
      <point x="392" y="10"/>
      <point x="384" y="10"/>
      <point x="382" y="10" type="curve" smooth="yes"/>
      <point x="346.685" y="9.979"/>
      <point x="318.288" y="38.029"/>
      <point x="317.633" y="72.864" type="curve"/>
    </contour>
  </outline>
</glyph>
<glyph name="t" format="2">
  <advance width="698"/>
  <unicode hex="0074"/>
  <anchor x="310" y="1" name="bottom"/>
  <anchor x="311" y="323" name="center"/>
  <anchor x="350" y="764" name="top"/>
  <outline>
    <contour>
      <point x="452" y="697" type="line"/>
      <point x="247" y="697" type="line"/>
      <point x="247" y="0" type="line"/>
      <point x="452" y="0" type="line"/>
    </contour>
    <contour>
      <point x="689" y="701" type="line"/>
      <point x="10" y="701" type="line"/>
      <point x="10" y="651" type="line"/>
      <point x="689" y="651" type="line"/>
    </contour>
    <contour>
      <point x="689" y="654" type="line"/>
      <point x="550" y="654" type="line"/>
      <point x="550" y="651" type="line"/>
      <point x="631" y="650"/>
      <point x="679" y="601"/>
      <point x="679" y="521" type="curve" smooth="yes"/>
      <point x="679" y="514" type="line"/>
      <point x="689" y="513" type="line"/>
    </contour>
    <contour>
      <point x="689" y="719" type="line"/>
      <point x="670" y="711"/>
      <point x="610" y="701"/>
      <point x="567" y="701" type="curve"/>
      <point x="689" y="690" type="line"/>
    </contour>
    <contour>
      <point x="250" y="73" type="line"/>
      <point x="247" y="73" type="line"/>
      <point x="246" y="38"/>
      <point x="218" y="10"/>
      <point x="183" y="10" type="curve" smooth="yes"/>
      <point x="183" y="10"/>
      <point x="170" y="10"/>
      <point x="170" y="10" type="curve"/>
      <point x="170" y="0" type="line"/>
      <point x="250" y="0" type="line"/>
    </contour>
    <contour>
      <point x="449" y="73" type="line"/>
      <point x="449" y="0" type="line"/>
      <point x="529" y="0" type="line"/>
      <point x="529" y="10" type="line"/>
      <point x="529" y="10"/>
      <point x="516" y="10"/>
      <point x="516" y="10" type="curve" smooth="yes"/>
      <point x="481" y="10"/>
      <point x="453" y="38"/>
      <point x="452" y="73" type="curve"/>
    </contour>
    <contour>
      <point x="149" y="654" type="line"/>
      <point x="10" y="654" type="line"/>
      <point x="10" y="513" type="line"/>
      <point x="20" y="514" type="line"/>
      <point x="20" y="521" type="line" smooth="yes"/>
      <point x="20" y="601"/>
      <point x="68" y="650"/>
      <point x="149" y="651" type="curve"/>
    </contour>
    <contour>
      <point x="10" y="719" type="curve"/>
      <point x="10" y="690" type="line"/>
      <point x="132" y="701" type="line"/>
      <point x="89" y="701"/>
      <point x="29" y="711"/>
    </contour>
  </outline>
</glyph>
<glyph name="u" format="2">
  <advance width="845"/>
  <unicode hex="0075"/>
  <anchor x="443.423" y="-8" name="ogonek"/>
  <anchor x="482.994" y="764" name="top"/>
  <outline>
    <contour>
      <point x="303.985" y="700" type="line" smooth="yes"/>
      <point x="99.191" y="700" type="line"/>
      <point x="99.097" y="255.596" type="line" smooth="yes"/>
      <point x="99.062" y="87.587"/>
      <point x="211.363" y="-14"/>
      <point x="456.423" y="-14" type="curve" smooth="yes"/>
      <point x="648.114" y="-14"/>
      <point x="755.96" y="88.135"/>
      <point x="755.973" y="257.34" type="curve" smooth="yes"/>
      <point x="756.008" y="699.976" type="line"/>
      <point x="669.334" y="699.976" type="line"/>
      <point x="669.069" y="247.399" type="line" smooth="yes"/>
      <point x="668.992" y="115.459"/>
      <point x="601.152" y="37.495"/>
      <point x="486.423" y="37.495" type="curve" smooth="yes"/>
      <point x="371.812" y="37.495"/>
      <point x="304.088" y="120.248"/>
      <point x="304.088" y="260.292" type="curve"/>
    </contour>
    <contour>
      <point x="101.564" y="700" type="line"/>
      <point x="30" y="700" type="line"/>
      <point x="30" y="690" type="line"/>
      <point x="30.129" y="690"/>
      <point x="46.167" y="690.017"/>
      <point x="46.295" y="690.017" type="curve" smooth="yes"/>
      <point x="75.183" y="690.017"/>
      <point x="98.619" y="669.255"/>
      <point x="99.161" y="640.499" type="curve"/>
      <point x="101.564" y="640.499" type="line"/>
    </contour>
    <contour>
      <point x="373.11" y="700" type="line"/>
      <point x="301.547" y="700" type="line"/>
      <point x="301.547" y="640.499" type="line"/>
      <point x="303.949" y="640.499" type="line"/>
      <point x="304.491" y="669.255"/>
      <point x="327.928" y="690.017"/>
      <point x="356.814" y="690.017" type="curve" smooth="yes"/>
      <point x="356.943" y="690.017"/>
      <point x="372.982" y="690"/>
      <point x="373.11" y="690" type="curve"/>
    </contour>
    <contour>
      <point x="671.746" y="700" type="line"/>
      <point x="600.182" y="700" type="line"/>
      <point x="600.182" y="690" type="line"/>
      <point x="600.312" y="690"/>
      <point x="616.35" y="690.017"/>
      <point x="616.477" y="690.017" type="curve" smooth="yes"/>
      <point x="645.366" y="690.017"/>
      <point x="668.802" y="669.255"/>
      <point x="669.344" y="640.499" type="curve"/>
      <point x="671.746" y="640.499" type="line"/>
    </contour>
    <contour>
      <point x="825.073" y="700" type="line"/>
      <point x="753.509" y="700" type="line"/>
      <point x="753.509" y="640.499" type="line"/>
      <point x="755.911" y="640.499" type="line"/>
      <point x="756.453" y="669.255"/>
      <point x="779.891" y="690.017"/>
      <point x="808.777" y="690.017" type="curve" smooth="yes"/>
      <point x="808.906" y="690.017"/>
      <point x="824.944" y="690"/>
      <point x="825.073" y="690" type="curve"/>
    </contour>
  </outline>
</glyph>
<glyph name="v" format="2">
  <advance width="720"/>
  <unicode hex="0076"/>
  <outline>
    <contour>
      <point x="369" y="-24" type="line" smooth="yes"/>
      <point x="457" y="232" type="line"/>
      <point x="264" y="694" type="line"/>
      <point x="24" y="694" type="line"/>
    </contour>
    <contour>
      <point x="369" y="-24" type="line"/>
      <point x="378" y="-24" type="line"/>
      <point x="382" y="10"/>
      <point x="423" y="100"/>
      <point x="435" y="125" type="curve"/>
      <point x="696" y="697" type="line"/>
      <point x="615" y="697" type="line"/>
      <point x="369" y="132" type="line"/>
    </contour>
    <contour>
      <point x="584" y="627" type="curve"/>
      <point x="664" y="627" type="line"/>
      <point x="685" y="672"/>
      <point x="721" y="690"/>
      <point x="751" y="690" type="curve" smooth="yes"/>
      <point x="751" y="690"/>
      <point x="760" y="690"/>
      <point x="760" y="690" type="curve"/>
      <point x="760" y="700" type="line"/>
      <point x="537" y="700" type="line"/>
      <point x="537" y="690" type="line"/>
      <point x="546" y="690" type="line" smooth="yes"/>
      <point x="572" y="690"/>
      <point x="602" y="667"/>
    </contour>
    <contour>
      <point x="292" y="627" type="line"/>
      <point x="278" y="667"/>
      <point x="305" y="690"/>
      <point x="330" y="690" type="curve" smooth="yes"/>
      <point x="339" y="690" type="line"/>
      <point x="339" y="700" type="line"/>
      <point x="-40" y="700" type="line"/>
      <point x="-40" y="690" type="line"/>
      <point x="-40" y="690"/>
      <point x="-32" y="690"/>
      <point x="-32" y="690" type="curve" smooth="yes"/>
      <point x="-1" y="690"/>
      <point x="34" y="672"/>
      <point x="56" y="627" type="curve"/>
    </contour>
  </outline>
</glyph>
<glyph name="w" format="2">
  <advance width="964"/>
  <unicode hex="0077"/>
  <anchor x="543" y="764" name="top"/>
  <outline>
    <contour>
      <point x="21" y="694" type="line"/>
      <point x="291" y="-22" type="line"/>
      <point x="380" y="336" type="line"/>
      <point x="236" y="694" type="line"/>
    </contour>
    <contour>
      <point x="554" y="716" type="line"/>
      <point x="545" y="716" type="line"/>
      <point x="257" y="116" type="line"/>
      <point x="291" y="-22" type="line"/>
      <point x="300" y="-22" type="line"/>
      <point x="301" y="33"/>
      <point x="327" y="89"/>
      <point x="327" y="89" type="curve"/>
      <point x="579" y="605" type="line"/>
    </contour>
    <contour>
      <point x="554" y="715" type="line"/>
      <point x="462" y="456" type="line"/>
      <point x="716" y="-22" type="line"/>
      <point x="781" y="296" type="line"/>
    </contour>
    <contour>
      <point x="929" y="694" type="line"/>
      <point x="852" y="694" type="line"/>
      <point x="677" y="77" type="line"/>
      <point x="716" y="-22" type="line"/>
      <point x="726" y="-22" type="line"/>
      <point x="720" y="28"/>
      <point x="740" y="89"/>
      <point x="740" y="89" type="curve"/>
    </contour>
    <contour>
      <point x="833" y="628" type="curve"/>
      <point x="908" y="628" type="line"/>
      <point x="922" y="672"/>
      <point x="965" y="690"/>
      <point x="996" y="690" type="curve" smooth="yes"/>
      <point x="996" y="690"/>
      <point x="1004" y="690"/>
      <point x="1004" y="690" type="curve"/>
      <point x="1004" y="700" type="line"/>
      <point x="786" y="700" type="line"/>
      <point x="786" y="690" type="line"/>
      <point x="795" y="690" type="line" smooth="yes"/>
      <point x="822" y="690"/>
      <point x="843" y="668"/>
    </contour>
    <contour>
      <point x="263" y="628" type="line"/>
      <point x="248" y="668"/>
      <point x="275" y="690"/>
      <point x="300" y="690" type="curve" smooth="yes"/>
      <point x="309" y="690" type="line"/>
      <point x="309" y="700" type="line"/>
      <point x="-50" y="700" type="line"/>
      <point x="-50" y="690" type="line"/>
      <point x="-50" y="690"/>
      <point x="-42" y="690"/>
      <point x="-42" y="690" type="curve" smooth="yes"/>
      <point x="-11" y="690"/>
      <point x="28" y="672"/>
      <point x="46" y="628" type="curve"/>
    </contour>
  </outline>
</glyph>
<glyph name="x" format="2">
  <advance width="773"/>
  <unicode hex="0078"/>
  <outline>
    <contour>
      <point x="281.492" y="699.976" type="line"/>
      <point x="43.498" y="699.976" type="line"/>
      <point x="498.674" y="1" type="line"/>
      <point x="738.669" y="1" type="line"/>
    </contour>
    <contour>
      <point x="179.122" y="72.077" type="curve"/>
      <point x="81.102" y="68.796" type="line"/>
      <point x="57.364" y="37.924"/>
      <point x="22.934" y="10.024"/>
      <point x="-19" y="10.024" type="curve" smooth="yes"/>
      <point x="-33" y="10.024" type="line"/>
      <point x="-33" y="0" type="line"/>
      <point x="227.04" y="0" type="line"/>
      <point x="226.865" y="10.024" type="line"/>
      <point x="226.865" y="10.024"/>
      <point x="214.265" y="10.024"/>
      <point x="214.265" y="10.024" type="curve" smooth="yes"/>
      <point x="186.992" y="10.024"/>
      <point x="159.885" y="43.691"/>
    </contour>
    <contour>
      <point x="290.935" y="355.406" type="line"/>
      <point x="30.657" y="0.036" type="line"/>
      <point x="128.147" y="0.036" type="line"/>
      <point x="355.526" y="321.407" type="line"/>
    </contour>
    <contour>
      <point x="452.705" y="71.578" type="line"/>
      <point x="469.932" y="43.192"/>
      <point x="446.055" y="10"/>
      <point x="418.782" y="10" type="curve" smooth="yes"/>
      <point x="418.782" y="10"/>
      <point x="406.183" y="10"/>
      <point x="406.183" y="10" type="curve"/>
      <point x="406.357" y="0" type="line"/>
      <point x="810.259" y="0" type="line"/>
      <point x="810.085" y="10" type="line"/>
      <point x="796.453" y="10" type="line" smooth="yes"/>
      <point x="754.455" y="10"/>
      <point x="715.456" y="37.454"/>
      <point x="694.64" y="68.326" type="curve"/>
    </contour>
    <contour>
      <point x="374.932" y="700" type="line"/>
      <point x="-27" y="700" type="line"/>
      <point x="-27" y="690.034" type="line"/>
      <point x="-13" y="690.034" type="line" smooth="yes"/>
      <point x="28.662" y="690.034"/>
      <point x="67.475" y="662.076"/>
      <point x="88.291" y="631.204" type="curve"/>
      <point x="328.592" y="627.952" type="line"/>
      <point x="311.366" y="656.338"/>
      <point x="335.234" y="690.034"/>
      <point x="362.508" y="690.034" type="curve" smooth="yes"/>
      <point x="362.508" y="690.034"/>
      <point x="375.106" y="690.034"/>
      <point x="375.106" y="690.034" type="curve"/>
    </contour>
    <contour>
      <point x="701.469" y="699.981" type="line"/>
      <point x="604.473" y="699.981" type="line"/>
      <point x="410.177" y="396.692" type="line"/>
      <point x="455.292" y="332.693" type="line"/>
    </contour>
    <contour>
      <point x="768.961" y="700.017" type="line"/>
      <point x="510.409" y="700.017" type="line"/>
      <point x="510.584" y="689.993" type="line"/>
      <point x="510.584" y="689.993"/>
      <point x="523.185" y="689.993"/>
      <point x="523.185" y="689.993" type="curve" smooth="yes"/>
      <point x="550.458" y="689.993"/>
      <point x="575.566" y="656.326"/>
      <point x="558.329" y="627.94" type="curve"/>
      <point x="655.368" y="631.221" type="line"/>
      <point x="677.106" y="662.093"/>
      <point x="713.139" y="689.993"/>
      <point x="755.136" y="689.993" type="curve" smooth="yes"/>
      <point x="769.136" y="689.993" type="line"/>
    </contour>
  </outline>
</glyph>
<glyph name="z" format="2">
  <advance width="667"/>
  <unicode hex="007A"/>
  <anchor x="335" y="764" name="top"/>
  <outline>
    <contour>
      <point x="620.594" y="714" type="curve"/>
      <point x="608.791" y="707.817"/>
      <point x="554.843" y="701.098"/>
      <point x="514.627" y="701.098" type="curve"/>
      <point x="49.348" y="700.737" type="line"/>
      <point x="49.348" y="650.856" type="line"/>
      <point x="367.247" y="650.855" type="line"/>
      <point x="35.184" y="9.322" type="line"/>
      <point x="35" y="0" type="line"/>
      <point x="259.584" y="0" type="line"/>
      <point x="620.594" y="705.328" type="line"/>
      <point x="620.594" y="705.33"/>
      <point x="620.594" y="714"/>
    </contour>
    <contour>
      <point x="598.324" y="49.734" type="line"/>
      <point x="108.887" y="49.734" type="line"/>
      <point x="108.887" y="0" type="line"/>
      <point x="592.193" y="0" type="line"/>
    </contour>
    <contour>
      <point x="643.845" y="231.543" type="line" smooth="yes"/>
      <point x="633.845" y="231.543" type="line"/>
      <point x="602.753" y="117.359"/>
      <point x="522.283" y="49.807"/>
      <point x="426.32" y="49.807" type="curve"/>
      <point x="407.312" y="37.448" type="line"/>
      <point x="390.016" y="0" type="line"/>
      <point x="605.557" y="0" type="line" smooth="yes"/>
    </contour>
    <contour>
      <point x="187.952" y="650.864" type="curve"/>
      <point x="187.952" y="653.572" type="line"/>
      <point x="49.342" y="653.572" type="line"/>
      <point x="49.342" y="513.271" type="line"/>
      <point x="59.442" y="513.421" type="line"/>
      <point x="59.423" y="521.245" type="line" smooth="yes"/>
      <point x="59.229" y="601.123"/>
      <point x="106.968" y="650.341"/>
    </contour>
    <contour>
      <point x="49.342" y="719.03" type="curve"/>
      <point x="49.342" y="689.751" type="line"/>
      <point x="171.273" y="700.829" type="line"/>
      <point x="127.913" y="700.829"/>
      <point x="68.291" y="711.043"/>
    </contour>
  </outline>
</glyph>
<glyph name="braceleft" format="2">
  <advance width="445"/>
  <unicode hex="007B"/>
  <outline>
    <contour>
      <point x="161" y="288" type="curve" smooth="yes"/>
      <point x="268" y="274"/>
      <point x="341" y="228"/>
      <point x="354" y="59" type="curve" smooth="yes"/>
      <point x="363" y="-56"/>
      <point x="339" y="-170"/>
      <point x="491" y="-131" type="curve"/>
      <point x="496" y="-138" type="line"/>
      <point x="378" y="-226"/>
      <point x="145" y="-178"/>
      <point x="149" y="66" type="curve" smooth="yes"/>
      <point x="150" y="134"/>
      <point x="172" y="222"/>
      <point x="116" y="251" type="curve" smooth="yes"/>
      <point x="74" y="273"/>
      <point x="21" y="248"/>
      <point x="8" y="168" type="curve"/>
      <point x="0" y="171" type="line"/>
      <point x="17" y="301"/>
      <point x="107" y="295"/>
    </contour>
    <contour>
      <point x="161" y="342" type="curve" smooth="yes"/>
      <point x="107" y="335"/>
      <point x="17" y="329"/>
      <point x="0" y="458" type="curve"/>
      <point x="8" y="461" type="line"/>
      <point x="21" y="382"/>
      <point x="74" y="357"/>
      <point x="116" y="379" type="curve" smooth="yes"/>
      <point x="172" y="408"/>
      <point x="150" y="496"/>
      <point x="149" y="564" type="curve" smooth="yes"/>
      <point x="145" y="808"/>
      <point x="378" y="856"/>
      <point x="496" y="768" type="curve"/>
      <point x="491" y="761" type="line"/>
      <point x="339" y="800"/>
      <point x="363" y="686"/>
      <point x="354" y="571" type="curve" smooth="yes"/>
      <point x="341" y="402"/>
      <point x="268" y="356"/>
    </contour>
  </outline>
</glyph>
<glyph name="bar" format="2">
  <advance width="265"/>
  <unicode hex="007C"/>
  <outline>
    <contour>
      <point x="100" y="700" type="line"/>
      <point x="100" y="-180" type="line"/>
      <point x="165" y="-180" type="line"/>
      <point x="165" y="700" type="line"/>
    </contour>
  </outline>
</glyph>
<glyph name="braceright" format="2">
  <advance width="445"/>
  <unicode hex="007D"/>
  <outline>
    <contour>
      <point x="285" y="288" type="curve" smooth="yes"/>
      <point x="339" y="295"/>
      <point x="429" y="301"/>
      <point x="446" y="171" type="curve"/>
      <point x="438" y="168" type="line"/>
      <point x="425" y="248"/>
      <point x="372" y="273"/>
      <point x="330" y="251" type="curve" smooth="yes"/>
      <point x="274" y="222"/>
      <point x="296" y="134"/>
      <point x="297" y="66" type="curve" smooth="yes"/>
      <point x="301" y="-178"/>
      <point x="68" y="-226"/>
      <point x="-50" y="-138" type="curve"/>
      <point x="-45" y="-131" type="line"/>
      <point x="107" y="-170"/>
      <point x="83" y="-56"/>
      <point x="92" y="59" type="curve" smooth="yes"/>
      <point x="105" y="228"/>
      <point x="178" y="274"/>
    </contour>
    <contour>
      <point x="285" y="342" type="curve" smooth="yes"/>
      <point x="178" y="356"/>
      <point x="105" y="402"/>
      <point x="92" y="571" type="curve" smooth="yes"/>
      <point x="83" y="686"/>
      <point x="107" y="800"/>
      <point x="-45" y="761" type="curve"/>
      <point x="-50" y="768" type="line"/>
      <point x="68" y="856"/>
      <point x="301" y="808"/>
      <point x="297" y="564" type="curve" smooth="yes"/>
      <point x="296" y="496"/>
      <point x="274" y="408"/>
      <point x="330" y="379" type="curve" smooth="yes"/>
      <point x="372" y="357"/>
      <point x="425" y="382"/>
      <point x="438" y="461" type="curve"/>
      <point x="446" y="458" type="line"/>
      <point x="429" y="329"/>
      <point x="339" y="335"/>
    </contour>
  </outline>
</glyph>
<glyph name="asciitilde" format="2">
  <advance width="494"/>
  <unicode hex="007E"/>
  <outline>
    <contour>
      <point x="97.23" y="208.706" type="line"/>
      <point x="81.187" y="278.682"/>
      <point x="106.518" y="304.229"/>
      <point x="139.828" y="302.663" type="curve" smooth="yes"/>
      <point x="194.71" y="300.084"/>
      <point x="271.642" y="203.706"/>
      <point x="345.676" y="203.706" type="curve" smooth="yes"/>
      <point x="416.975" y="203.706"/>
      <point x="490.926" y="254.084"/>
      <point x="460.795" y="362.652" type="curve"/>
      <point x="393.39" y="362.652" type="line"/>
      <point x="421.16" y="301.774"/>
      <point x="385.329" y="267.484"/>
      <point x="345.985" y="268.701" type="curve" smooth="yes"/>
      <point x="298.641" y="270.165"/>
      <point x="215.03" y="369.068"/>
      <point x="140.109" y="367.65" type="curve" smooth="yes"/>
      <point x="72.704" y="366.374"/>
      <point x="8.699" y="313.154"/>
      <point x="31.82" y="208.706" type="curve"/>
    </contour>
  </outline>
</glyph>
<glyph name="exclamdown" format="2">
  <advance width="295"/>
  <unicode hex="00A1"/>
  <outline>
    <contour>
      <point x="149.774" y="715.602" type="curve" smooth="yes"/>
      <point x="100.068" y="715.602"/>
      <point x="59.774" y="675.308"/>
      <point x="59.774" y="625.602" type="curve" smooth="yes"/>
      <point x="59.774" y="575.896"/>
      <point x="100.068" y="535.602"/>
      <point x="149.774" y="535.602" type="curve" smooth="yes"/>
      <point x="199.48" y="535.602"/>
      <point x="239.774" y="575.896"/>
      <point x="239.774" y="625.602" type="curve" smooth="yes"/>
      <point x="239.774" y="675.308"/>
      <point x="199.48" y="715.602"/>
    </contour>
    <contour>
      <point x="112.872" y="471.602" type="line"/>
      <point x="67.515" y="338.645" type="line"/>
      <point x="45" y="0" type="line"/>
      <point x="250" y="0" type="line"/>
      <point x="227.515" y="338.645" type="line"/>
      <point x="182.872" y="471.602" type="line"/>
    </contour>
  </outline>
</glyph>
<glyph name="sterling" format="2">
  <advance width="620"/>
  <unicode hex="00A3"/>
  <outline>
    <contour>
      <point x="615.989" y="219.402" type="line"/>
      <point x="605.989" y="219.402" type="line"/>
      <point x="545.985" y="99"/>
      <point x="442.985" y="59"/>
      <point x="339.985" y="68" type="curve" smooth="yes"/>
      <point x="269.079" y="74.196"/>
      <point x="217.985" y="92"/>
      <point x="163.355" y="73.691" type="curve"/>
      <point x="259.985" y="96"/>
      <point x="329.985" y="147"/>
      <point x="316.985" y="377" type="curve" smooth="yes"/>
      <point x="307.251" y="549.216"/>
      <point x="316.985" y="661"/>
      <point x="424.771" y="664" type="curve" smooth="yes"/>
      <point x="500.274" y="666.101"/>
      <point x="528.482" y="617.329"/>
      <point x="533.157" y="515.502" type="curve"/>
      <point x="543.157" y="515.502" type="line"/>
      <point x="590.506" y="656.702" type="line"/>
      <point x="561.985" y="693"/>
      <point x="490.985" y="720"/>
      <point x="387.985" y="714" type="curve" smooth="yes"/>
      <point x="166.985" y="701"/>
      <point x="107.71" y="546.13"/>
      <point x="111.985" y="370" type="curve" smooth="yes"/>
      <point x="116.985" y="164"/>
      <point x="56.985" y="53"/>
      <point x="30" y="0" type="curve"/>
      <point x="30" y="-10" type="line"/>
      <point x="40" y="-10" type="line"/>
      <point x="48.985" y="0"/>
      <point x="112.985" y="23"/>
      <point x="136.985" y="24" type="curve" smooth="yes"/>
      <point x="199.985" y="26"/>
      <point x="248.985" y="4"/>
      <point x="337.985" y="-8" type="curve" smooth="yes"/>
      <point x="390.985" y="-15"/>
      <point x="504.985" y="-6"/>
      <point x="570.557" y="24" type="curve"/>
    </contour>
    <contour>
      <point x="47.565" y="374.614" type="line"/>
      <point x="30.304" y="318.752" type="line"/>
      <point x="476.497" y="318.752" type="line"/>
      <point x="497.757" y="374.614" type="line"/>
    </contour>
  </outline>
</glyph>
<glyph name="currency" format="2">
  <advance width="541"/>
  <unicode hex="00A4"/>
  <outline>
    <contour>
      <point x="118.698" y="502.652" type="curve" smooth="yes"/>
      <point x="35.522" y="419.477"/>
      <point x="35.522" y="284.625"/>
      <point x="118.698" y="201.449" type="curve" smooth="yes"/>
      <point x="201.873" y="118.274"/>
      <point x="336.725" y="118.273"/>
      <point x="419.901" y="201.449" type="curve" smooth="yes"/>
      <point x="503.076" y="284.625"/>
      <point x="503.076" y="419.477"/>
      <point x="419.901" y="502.652" type="curve" smooth="yes"/>
      <point x="336.725" y="585.828"/>
      <point x="201.873" y="585.828"/>
    </contour>
    <contour>
      <point x="139.898" y="481.451" type="curve" smooth="yes"/>
      <point x="211.365" y="552.918"/>
      <point x="327.233" y="552.918"/>
      <point x="398.7" y="481.451" type="curve" smooth="yes"/>
      <point x="470.166" y="409.984"/>
      <point x="470.166" y="294.117"/>
      <point x="398.699" y="222.65" type="curve" smooth="yes"/>
      <point x="327.233" y="151.183"/>
      <point x="211.365" y="151.183"/>
      <point x="139.899" y="222.65" type="curve" smooth="yes"/>
      <point x="68.432" y="294.117"/>
      <point x="68.432" y="409.984"/>
    </contour>
    <contour>
      <point x="50" y="552.919" type="line"/>
      <point x="121.432" y="481.487" type="line"/>
      <point x="142.645" y="502.7" type="line"/>
      <point x="71.213" y="574.132" type="line"/>
    </contour>
    <contour>
      <point x="399.051" y="203.868" type="line"/>
      <point x="470.482" y="132.437" type="line"/>
      <point x="491.696" y="153.65" type="line"/>
      <point x="420.264" y="225.081" type="line"/>
    </contour>
    <contour>
      <point x="71.214" y="132.437" type="line"/>
      <point x="142.645" y="203.868" type="line"/>
      <point x="121.432" y="225.081" type="line"/>
      <point x="50" y="153.65" type="line"/>
    </contour>
    <contour>
      <point x="420.264" y="481.487" type="line"/>
      <point x="491.695" y="552.919" type="line"/>
      <point x="470.482" y="574.132" type="line"/>
      <point x="399.051" y="502.701" type="line"/>
    </contour>
  </outline>
</glyph>
<glyph name="yen" format="2">
  <advance width="729"/>
  <unicode hex="00A5"/>
  <outline>
    <contour>
      <point x="254.272" y="699" type="line"/>
      <point x="27.869" y="699" type="line"/>
      <point x="258.578" y="322.282" type="line"/>
      <point x="463.596" y="322.282" type="line"/>
    </contour>
    <contour>
      <point x="463.596" y="322.282" type="line"/>
      <point x="258.578" y="322.282" type="line"/>
      <point x="258.578" y="0" type="line"/>
      <point x="463.596" y="0" type="line"/>
    </contour>
    <contour>
      <point x="613.928" y="699" type="line"/>
      <point x="391.399" y="311.642" type="line"/>
      <point x="451.394" y="302.513" type="line"/>
      <point x="702.837" y="699" type="line"/>
    </contour>
    <contour>
      <point x="573.109" y="627.94" type="curve"/>
      <point x="659.863" y="631.221" type="line"/>
      <point x="680.14" y="662.093"/>
      <point x="718.66" y="689.993"/>
      <point x="760.657" y="689.993" type="curve" smooth="yes"/>
      <point x="774.657" y="689.993" type="line"/>
      <point x="774.657" y="700.017" type="line"/>
      <point x="525.512" y="700.017" type="line"/>
      <point x="525.512" y="689.993" type="line"/>
      <point x="525.512" y="689.993"/>
      <point x="538.112" y="689.993"/>
      <point x="538.112" y="689.993" type="curve" smooth="yes"/>
      <point x="565.386" y="689.993"/>
      <point x="588.842" y="656.326"/>
    </contour>
    <contour>
      <point x="293.742" y="627.952" type="line"/>
      <point x="279.01" y="656.338"/>
      <point x="299.467" y="690.034"/>
      <point x="328.74" y="690.034" type="curve" smooth="yes"/>
      <point x="328.74" y="690.034"/>
      <point x="341.339" y="690.034"/>
      <point x="341.339" y="690.034" type="curve"/>
      <point x="341.339" y="700" type="line"/>
      <point x="-45" y="700" type="line"/>
      <point x="-45" y="690.034" type="line"/>
      <point x="-31" y="690.034" type="line" smooth="yes"/>
      <point x="10.63" y="690.034"/>
      <point x="50.149" y="662.076"/>
      <point x="69.427" y="631.204" type="curve"/>
    </contour>
    <contour>
      <point x="261.502" y="72.864" type="line"/>
      <point x="258.592" y="72.864" type="line"/>
      <point x="257.937" y="38.029"/>
      <point x="229.54" y="9.979"/>
      <point x="194.538" y="9.979" type="curve" smooth="yes"/>
      <point x="194.386" y="9.979"/>
      <point x="182.045" y="10"/>
      <point x="181.888" y="10" type="curve"/>
      <point x="181.727" y="0" type="line"/>
      <point x="261.502" y="0" type="line"/>
    </contour>
    <contour>
      <point x="460.699" y="72.864" type="line"/>
      <point x="460.699" y="0" type="line"/>
      <point x="540.474" y="0" type="line"/>
      <point x="540.313" y="10" type="line"/>
      <point x="540.156" y="10"/>
      <point x="527.815" y="9.979"/>
      <point x="527.663" y="9.979" type="curve" smooth="yes"/>
      <point x="492.661" y="9.979"/>
      <point x="464.264" y="38.029"/>
      <point x="463.609" y="72.864" type="curve"/>
    </contour>
    <contour>
      <point x="97.484" y="314.909" type="line"/>
      <point x="97.484" y="264.909" type="line"/>
      <point x="622.747" y="264.909" type="line"/>
      <point x="622.747" y="314.909" type="line"/>
    </contour>
    <contour>
      <point x="97.484" y="424.909" type="line"/>
      <point x="97.484" y="374.909" type="line"/>
      <point x="314.576" y="374.909" type="line"/>
      <point x="314.576" y="424.909" type="line"/>
    </contour>
    <contour>
      <point x="463.576" y="424.909" type="line"/>
      <point x="463.576" y="374.909" type="line"/>
      <point x="622.747" y="374.909" type="line"/>
      <point x="622.747" y="424.909" type="line"/>
    </contour>
  </outline>
</glyph>
<glyph name="brokenbar" format="2">
  <advance width="265"/>
  <unicode hex="00A6"/>
  <outline>
    <contour>
      <point x="100" y="170" type="line"/>
      <point x="100" y="-180" type="line"/>
      <point x="165" y="-180" type="line"/>
      <point x="165" y="170" type="line"/>
    </contour>
    <contour>
      <point x="100" y="700" type="line"/>
      <point x="100" y="350" type="line"/>
      <point x="165" y="350" type="line"/>
      <point x="165" y="700" type="line"/>
    </contour>
  </outline>
</glyph>
<glyph name="section" format="2">
  <advance width="536"/>
  <unicode hex="00A7"/>
  <outline>
    <contour>
      <point x="331" y="716" type="curve" smooth="yes"/>
      <point x="70" y="716"/>
      <point x="-103" y="382"/>
      <point x="145" y="136" type="curve" smooth="yes"/>
      <point x="258" y="24"/>
      <point x="348" y="-47"/>
      <point x="301" y="-86" type="curve" smooth="yes"/>
      <point x="231" y="-143"/>
      <point x="127" y="89"/>
      <point x="53" y="-32" type="curve" smooth="yes"/>
      <point x="12" y="-100"/>
      <point x="106" y="-159"/>
      <point x="221" y="-159" type="curve" smooth="yes"/>
      <point x="518" y="-159"/>
      <point x="613" y="166"/>
      <point x="385" y="427" type="curve" smooth="yes"/>
      <point x="335" y="484"/>
      <point x="189" y="603"/>
      <point x="248" y="647" type="curve" smooth="yes"/>
      <point x="319" y="699"/>
      <point x="402" y="479"/>
      <point x="476" y="593" type="curve" smooth="yes"/>
      <point x="516" y="655"/>
      <point x="443" y="716"/>
    </contour>
    <contour>
      <point x="145" y="583" type="curve"/>
      <point x="145" y="455"/>
      <point x="180" y="417"/>
      <point x="283" y="306" type="curve" smooth="yes"/>
      <point x="374" y="208"/>
      <point x="460" y="112"/>
      <point x="395" y="-21" type="curve"/>
      <point x="412" y="87"/>
      <point x="326" y="175"/>
      <point x="246" y="257" type="curve" smooth="yes"/>
      <point x="160" y="345"/>
      <point x="76" y="431"/>
    </contour>
  </outline>
</glyph>
<glyph name="copyright" format="2">
  <advance width="848"/>
  <unicode hex="00A9"/>
  <outline>
    <contour>
      <point x="424" y="714" type="curve" smooth="yes"/>
      <point x="222.966" y="714"/>
      <point x="60" y="551.034"/>
      <point x="60" y="350" type="curve" smooth="yes"/>
      <point x="60" y="148.966"/>
      <point x="222.966" y="-14"/>
      <point x="424" y="-14" type="curve" smooth="yes"/>
      <point x="625.034" y="-14"/>
      <point x="788" y="148.966"/>
      <point x="788" y="350" type="curve" smooth="yes"/>
      <point x="788" y="551.034"/>
      <point x="625.034" y="714"/>
    </contour>
    <contour>
      <point x="424" y="661.828" type="curve" smooth="yes"/>
      <point x="596" y="662"/>
      <point x="736" y="522"/>
      <point x="735.828" y="350" type="curve" smooth="yes"/>
      <point x="736" y="178"/>
      <point x="596" y="38"/>
      <point x="424" y="38.172" type="curve" smooth="yes"/>
      <point x="252" y="38"/>
      <point x="112" y="178"/>
      <point x="112.172" y="350" type="curve" smooth="yes"/>
      <point x="112" y="522"/>
      <point x="252" y="662"/>
    </contour>
    <contour>
      <point x="615.991" y="325.806" type="line"/>
      <point x="610.077" y="325.781" type="line"/>
      <point x="594" y="224"/>
      <point x="534" y="169"/>
      <point x="445" y="169" type="curve" smooth="yes"/>
      <point x="366.988" y="169"/>
      <point x="320.997" y="236.218"/>
      <point x="321.178" y="349.971" type="curve" smooth="yes"/>
      <point x="320.998" y="464.208"/>
      <point x="365.778" y="531.777"/>
      <point x="441.74" y="531.886" type="curve" smooth="yes"/>
      <point x="521" y="532"/>
      <point x="572" y="487"/>
      <point x="605.442" y="409.784" type="curve"/>
      <point x="611.357" y="409.761" type="line"/>
      <point x="617.018" y="530.135" type="line"/>
      <point x="568" y="558"/>
      <point x="494" y="573"/>
      <point x="436.026" y="573.154" type="curve" smooth="yes"/>
      <point x="291" y="573"/>
      <point x="185" y="478"/>
      <point x="185.009" y="350.426" type="curve" smooth="yes"/>
      <point x="185" y="224"/>
      <point x="290" y="128"/>
      <point x="433.965" y="126.846" type="curve"/>
      <point x="522.867" y="126.846"/>
      <point x="590.955" y="161.667"/>
      <point x="639.461" y="218.48" type="curve"/>
    </contour>
  </outline>
</glyph>
<glyph name="ordfeminine" format="2">
  <advance width="390"/>
  <unicode hex="00AA"/>
  <outline>
    <contour>
      <point x="189.106" y="709.549" type="line" smooth="yes"/>
      <point x="138.073" y="564.22" type="line"/>
      <point x="227.194" y="379.669" type="line"/>
      <point x="363.668" y="379.669" type="line"/>
    </contour>
    <contour>
      <point x="84.267" y="408.826" type="curve"/>
      <point x="42.424" y="408.971" type="line"/>
      <point x="32.028" y="389.464"/>
      <point x="14.638" y="381.379"/>
      <point x="-1" y="381.379" type="curve" smooth="yes"/>
      <point x="-1" y="381.379"/>
      <point x="-5" y="381.379"/>
      <point x="-5" y="381.379" type="curve"/>
      <point x="-5" y="377" type="line"/>
      <point x="107.521" y="377" type="line"/>
      <point x="107.521" y="381.339" type="line"/>
      <point x="103.193" y="381.339" type="line" smooth="yes"/>
      <point x="90.484" y="381.339"/>
      <point x="75.401" y="391.303"/>
    </contour>
    <contour>
      <point x="189.106" y="709.549" type="line"/>
      <point x="184.839" y="709.549" type="line"/>
      <point x="182.675" y="693.281"/>
      <point x="162.269" y="651.023"/>
      <point x="155.124" y="635.066" type="curve"/>
      <point x="26.695" y="378.355" type="line"/>
      <point x="69.152" y="378.355" type="line"/>
      <point x="188.353" y="623.636" type="line"/>
    </contour>
    <contour>
      <point x="223.496" y="464.797" type="line"/>
      <point x="85.765" y="464.797" type="line"/>
      <point x="85.765" y="438.923" type="line"/>
      <point x="223.496" y="438.923" type="line"/>
    </contour>
    <contour>
      <point x="213.395" y="408.826" type="line"/>
      <point x="221.583" y="391.303"/>
      <point x="207.3" y="381.34"/>
      <point x="194.591" y="381.34" type="curve" smooth="yes"/>
      <point x="190.263" y="381.34" type="line"/>
      <point x="190.263" y="377" type="line"/>
      <point x="395" y="377" type="line"/>
      <point x="395" y="381.379" type="line"/>
      <point x="395" y="381.379"/>
      <point x="390.883" y="381.379"/>
      <point x="390.883" y="381.379" type="curve" smooth="yes"/>
      <point x="375.796" y="381.379"/>
      <point x="358.738" y="389.464"/>
      <point x="347.627" y="408.971" type="curve"/>
    </contour>
  </outline>
</glyph>
<glyph name="guillemotleft" format="2">
  <advance width="551"/>
  <unicode hex="00AB"/>
  <outline>
    <contour>
      <point x="40" y="292" type="curve"/>
      <point x="115" y="338"/>
      <point x="200" y="394"/>
      <point x="275" y="490" type="curve"/>
      <point x="283" y="485" type="line"/>
      <point x="247" y="420"/>
      <point x="221" y="376"/>
      <point x="195" y="292" type="curve"/>
      <point x="221" y="206"/>
      <point x="248" y="160"/>
      <point x="284" y="95" type="curve"/>
      <point x="275" y="88" type="line"/>
      <point x="200" y="176"/>
      <point x="115" y="244"/>
    </contour>
    <contour>
      <point x="248" y="292" type="curve"/>
      <point x="323" y="338"/>
      <point x="408" y="394"/>
      <point x="483" y="490" type="curve"/>
      <point x="491" y="485" type="line"/>
      <point x="455" y="420"/>
      <point x="429" y="376"/>
      <point x="403" y="292" type="curve"/>
      <point x="429" y="206"/>
      <point x="456" y="160"/>
      <point x="492" y="95" type="curve"/>
      <point x="483" y="88" type="line"/>
      <point x="408" y="176"/>
      <point x="323" y="244"/>
    </contour>
  </outline>
</glyph>
<glyph name="registered" format="2">
  <advance width="245"/>
  <unicode hex="00AE"/>
  <outline>
    <contour>
      <point x="122.865" y="700.865" type="curve" smooth="yes"/>
      <point x="60.531" y="700.865"/>
      <point x="10" y="650.334"/>
      <point x="10" y="588" type="curve" smooth="yes"/>
      <point x="10" y="525.666"/>
      <point x="60.531" y="475.135"/>
      <point x="122.865" y="475.135" type="curve" smooth="yes"/>
      <point x="185.199" y="475.135"/>
      <point x="235.73" y="525.666"/>
      <point x="235.73" y="588" type="curve" smooth="yes"/>
      <point x="235.73" y="650.334"/>
      <point x="185.199" y="700.865"/>
    </contour>
    <contour>
      <point x="78.508" y="529.781" type="line"/>
      <point x="75.807" y="542.611" type="line"/>
      <point x="75.694" y="536.609"/>
      <point x="71.154" y="531.775"/>
      <point x="65.123" y="531.775" type="curve" smooth="yes"/>
      <point x="65.093" y="531.775"/>
      <point x="62.626" y="531.779"/>
      <point x="62.595" y="531.779" type="curve"/>
      <point x="62.563" y="529.781" type="line"/>
    </contour>
    <contour>
      <point x="106.605" y="542.611" type="curve"/>
      <point x="103.904" y="529.781" type="line"/>
      <point x="119.849" y="529.781" type="line"/>
      <point x="119.817" y="531.779" type="line"/>
      <point x="119.785" y="531.779"/>
      <point x="117.319" y="531.775"/>
      <point x="117.288" y="531.775" type="curve" smooth="yes"/>
      <point x="111.257" y="531.775"/>
      <point x="106.718" y="536.609"/>
    </contour>
    <contour>
      <point x="106.605" y="649.704" type="line"/>
      <point x="75.799" y="649.704" type="line"/>
      <point x="75.799" y="529.781" type="line"/>
      <point x="106.605" y="529.781" type="line"/>
    </contour>
    <contour>
      <point x="78.504" y="649.704" type="line"/>
      <point x="62.559" y="649.704" type="line"/>
      <point x="62.591" y="647.706" type="line"/>
      <point x="62.623" y="647.706"/>
      <point x="65.089" y="647.71"/>
      <point x="65.12" y="647.71" type="curve" smooth="yes"/>
      <point x="71.15" y="647.71"/>
      <point x="75.69" y="643.152"/>
      <point x="75.803" y="637.15" type="curve"/>
    </contour>
    <contour>
      <point x="126.413" y="649.704" type="curve" smooth="yes"/>
      <point x="102.301" y="649.704" type="line" smooth="yes"/>
      <point x="102.301" y="649.704"/>
      <point x="104.298" y="640.855"/>
      <point x="104.298" y="640.55" type="curve"/>
      <point x="116.623" y="640.326" type="line"/>
      <point x="131.588" y="640.506"/>
      <point x="136.893" y="631.621"/>
      <point x="137.419" y="618.652" type="curve" smooth="yes"/>
      <point x="137.556" y="615.272"/>
      <point x="136.76" y="609.056"/>
      <point x="136.215" y="606.171" type="curve" smooth="yes"/>
      <point x="134.045" y="594.687"/>
      <point x="127.654" y="590.409"/>
      <point x="122.02" y="590.127" type="curve" smooth="yes"/>
      <point x="116.008" y="589.826"/>
      <point x="111.458" y="590.061"/>
      <point x="111.458" y="590.061" type="curve"/>
      <point x="111.458" y="588.211" type="line"/>
      <point x="114.759" y="588.211"/>
      <point x="117.655" y="581.488"/>
      <point x="120.679" y="574.724" type="curve" smooth="yes"/>
      <point x="129.925" y="554.043"/>
      <point x="136.72" y="529.781"/>
      <point x="170.563" y="529.781" type="curve" smooth="yes"/>
      <point x="190.248" y="529.781" type="line"/>
      <point x="190.248" y="531.785" type="line"/>
      <point x="178.752" y="535.713"/>
      <point x="172.216" y="546.546"/>
      <point x="169.481" y="550.876" type="curve" smooth="yes"/>
      <point x="161.743" y="563.126"/>
      <point x="148.174" y="582.445"/>
      <point x="139.352" y="584.424" type="curve"/>
      <point x="156.374" y="586.223"/>
      <point x="169.88" y="595.387"/>
      <point x="169.88" y="617.338" type="curve" smooth="yes"/>
      <point x="169.88" y="637.529"/>
      <point x="150.015" y="649.704"/>
    </contour>
    <contour>
      <point x="122.865" y="677.248" type="curve" smooth="yes"/>
      <point x="174.147" y="677.248"/>
      <point x="212.113" y="639.282"/>
      <point x="212.113" y="588" type="curve" smooth="yes"/>
      <point x="212.113" y="536.718"/>
      <point x="174.147" y="498.752"/>
      <point x="122.865" y="498.752" type="curve" smooth="yes"/>
      <point x="71.583" y="498.752"/>
      <point x="33.617" y="536.718"/>
      <point x="33.617" y="588" type="curve" smooth="yes"/>
      <point x="33.617" y="639.282"/>
      <point x="71.583" y="677.248"/>
    </contour>
  </outline>
</glyph>
<glyph name="macron" format="2">
  <advance width="600"/>
  <unicode hex="00AF"/>
  <outline>
    <contour>
      <point x="150.23" y="787.943" type="line"/>
      <point x="150.23" y="702.943" type="line"/>
      <point x="440.23" y="702.943" type="line"/>
      <point x="440.23" y="787.943" type="line"/>
    </contour>
  </outline>
</glyph>
<glyph name="plusminus" format="2">
  <advance width="481"/>
  <unicode hex="00B1"/>
  <outline>
    <contour>
      <point x="40" y="115" type="line"/>
      <point x="40" y="50" type="line"/>
      <point x="441.723" y="50" type="line"/>
      <point x="441.723" y="115" type="line"/>
    </contour>
    <contour>
      <point x="208.362" y="178.891" type="line"/>
      <point x="273.362" y="178.891" type="line"/>
      <point x="273.362" y="580.614" type="line"/>
      <point x="208.362" y="580.614" type="line"/>
    </contour>
    <contour>
      <point x="40" y="412.253" type="line"/>
      <point x="40" y="347.253" type="line"/>
      <point x="441.723" y="347.253" type="line"/>
      <point x="441.723" y="412.253" type="line"/>
    </contour>
  </outline>
</glyph>
<glyph name="twosuperior" format="2">
  <advance width="419"/>
  <unicode hex="00B2"/>
  <guideline x="247.549" y="719.583" angle="0"/>
  <guideline x="247.549" y="308" angle="0"/>
  <outline>
    <contour>
      <point x="79.237" y="559.261" type="line"/>
      <point x="84.637" y="559.261" type="line"/>
      <point x="84.692" y="638.635"/>
      <point x="103.923" y="681.966"/>
      <point x="147" y="686.879" type="curve" smooth="yes"/>
      <point x="187" y="691.442"/>
      <point x="212.356" y="665.39"/>
      <point x="212.356" y="624.728" type="curve" smooth="yes"/>
      <point x="212.356" y="531.994"/>
      <point x="121.452" y="426.697"/>
      <point x="38.265" y="313.279" type="curve"/>
      <point x="38.265" y="307.879" type="line"/>
      <point x="347.645" y="307.879" type="line"/>
      <point x="389.358" y="495.722" type="line"/>
      <point x="383.958" y="495.722" type="line"/>
      <point x="364.961" y="454.152"/>
      <point x="336.859" y="433.994"/>
      <point x="304.767" y="433.994" type="curve"/>
      <point x="212.385" y="433.994" type="line"/>
      <point x="265.931" y="458.637"/>
      <point x="364.487" y="522.598"/>
      <point x="364.487" y="606.954" type="curve" smooth="yes"/>
      <point x="364.487" y="678.21"/>
      <point x="287.823" y="719.439"/>
      <point x="192.786" y="719.439" type="curve" smooth="yes"/>
      <point x="131.869" y="719.439"/>
      <point x="67.061" y="704.934"/>
      <point x="30" y="673.812" type="curve"/>
    </contour>
  </outline>
</glyph>
<glyph name="threesuperior" format="2">
  <advance width="373"/>
  <unicode hex="00B3"/>
  <outline>
    <contour>
      <point x="175" y="714.113" type="curve" smooth="yes"/>
      <point x="110.244" y="715.017"/>
      <point x="51.709" y="700.265"/>
      <point x="20" y="676.235" type="curve"/>
      <point x="59.846" y="564.951" type="line"/>
      <point x="65.246" y="564.951" type="line"/>
      <point x="63.611" y="642.787"/>
      <point x="76.521" y="677.068"/>
      <point x="119" y="683.113" type="curve" smooth="yes"/>
      <point x="146.128" y="686.973"/>
      <point x="180.256" y="678.394"/>
      <point x="185" y="635.113" type="curve" smooth="yes"/>
      <point x="190.45" y="585.388"/>
      <point x="151.535" y="540.587"/>
      <point x="101.072" y="543.071" type="curve"/>
      <point x="100.087" y="537.671" type="line"/>
      <point x="139.225" y="536.711"/>
      <point x="196" y="513.902"/>
      <point x="196" y="446.113" type="curve" smooth="yes"/>
      <point x="196" y="366.741"/>
      <point x="117.781" y="326.113"/>
      <point x="28.111" y="328.113" type="curve"/>
      <point x="27.031" y="323.113" type="line"/>
      <point x="150.81" y="255.113"/>
      <point x="343" y="290.113"/>
      <point x="343" y="435.113" type="curve" smooth="yes"/>
      <point x="343" y="526.454"/>
      <point x="266.646" y="544.589"/>
      <point x="225.973" y="545.702" type="curve"/>
      <point x="269.213" y="534.011"/>
      <point x="324.863" y="552.799"/>
      <point x="324.863" y="616.608" type="curve" smooth="yes"/>
      <point x="324.863" y="680.351"/>
      <point x="269.294" y="712.797"/>
    </contour>
  </outline>
</glyph>
<glyph name="acute" format="2">
  <advance width="600"/>
  <unicode hex="00B4"/>
  <outline>
    <contour>
      <point x="203.671" y="749.971" type="curve"/>
      <point x="210.671" y="742.971" type="line"/>
      <point x="283.969" y="751.954"/>
      <point x="380.268" y="793.936"/>
      <point x="443.566" y="835.919" type="curve"/>
      <point x="430.186" y="882.155"/>
      <point x="406.807" y="915.39"/>
      <point x="358.427" y="935.626" type="curve"/>
      <point x="314.175" y="897.741"/>
      <point x="231.923" y="815.856"/>
    </contour>
  </outline>
</glyph>
<glyph name="periodcentered" format="2">
  <advance width="250"/>
  <unicode hex="00B7"/>
  <outline>
    <contour>
      <point x="125" y="411" type="curve" smooth="yes"/>
      <point x="77" y="411"/>
      <point x="26" y="372"/>
      <point x="5" y="321" type="curve"/>
      <point x="26" y="270"/>
      <point x="77" y="231"/>
      <point x="125" y="231" type="curve" smooth="yes"/>
      <point x="173" y="231"/>
      <point x="224" y="270"/>
      <point x="245" y="321" type="curve"/>
      <point x="224" y="372"/>
      <point x="173" y="411"/>
    </contour>
    <contour>
      <point x="125" y="372" type="curve" smooth="yes"/>
      <point x="152" y="372"/>
      <point x="181" y="350"/>
      <point x="193" y="321" type="curve"/>
      <point x="181" y="292"/>
      <point x="152" y="270"/>
      <point x="125" y="270" type="curve" smooth="yes"/>
      <point x="98" y="270"/>
      <point x="69" y="292"/>
      <point x="57" y="321" type="curve"/>
      <point x="69" y="350"/>
      <point x="98" y="372"/>
    </contour>
  </outline>
</glyph>
<glyph name="onesuperior" format="2">
  <advance width="292"/>
  <unicode hex="00B9"/>
  <outline>
    <contour>
      <point x="262.613" y="308.253" type="line"/>
      <point x="34.044" y="308.253" type="line"/>
      <point x="34.119" y="313.653" type="line"/>
      <point x="45.408" y="313.642" type="line" smooth="yes"/>
      <point x="61.686" y="313.626"/>
      <point x="75.225" y="326.671"/>
      <point x="75.225" y="342.868" type="curve" smooth="yes"/>
      <point x="75.225" y="632.446" type="line"/>
      <point x="75.225" y="665.781"/>
      <point x="58.673" y="674.853"/>
      <point x="34.428" y="674.853" type="curve"/>
      <point x="30" y="674.853" type="line"/>
      <point x="30" y="680.253" type="line"/>
      <point x="60.476" y="680.855"/>
      <point x="169.476" y="692.973"/>
      <point x="216.042" y="714.813" type="curve"/>
      <point x="221.442" y="714.813" type="line"/>
      <point x="221.442" y="342.516" type="line" smooth="yes"/>
      <point x="221.442" y="326.478"/>
      <point x="235.09" y="313.625"/>
      <point x="251.25" y="313.642" type="curve" smooth="yes"/>
      <point x="262.538" y="313.653" type="line"/>
    </contour>
  </outline>
</glyph>
<glyph name="guillemotright" format="2">
  <advance width="551"/>
  <unicode hex="00BB"/>
  <outline>
    <contour>
      <point x="512" y="292" type="curve"/>
      <point x="437" y="244"/>
      <point x="352" y="176"/>
      <point x="277" y="88" type="curve"/>
      <point x="268" y="95" type="line"/>
      <point x="304" y="160"/>
      <point x="331" y="206"/>
      <point x="357" y="292" type="curve"/>
      <point x="331" y="376"/>
      <point x="305" y="420"/>
      <point x="269" y="485" type="curve"/>
      <point x="277" y="490" type="line"/>
      <point x="352" y="394"/>
      <point x="437" y="338"/>
    </contour>
    <contour>
      <point x="304" y="292" type="curve"/>
      <point x="229" y="244"/>
      <point x="144" y="176"/>
      <point x="69" y="88" type="curve"/>
      <point x="60" y="95" type="line"/>
      <point x="96" y="160"/>
      <point x="123" y="206"/>
      <point x="149" y="292" type="curve"/>
      <point x="123" y="376"/>
      <point x="97" y="420"/>
      <point x="61" y="485" type="curve"/>
      <point x="69" y="490" type="line"/>
      <point x="144" y="394"/>
      <point x="229" y="338"/>
    </contour>
  </outline>
</glyph>
<glyph name="onequarter" format="2">
  <advance width="769"/>
  <unicode hex="00BC"/>
  <outline>
    <contour>
      <point x="522.871" y="267.266" type="line"/>
      <point x="522.871" y="0.716" type="line"/>
      <point x="666.877" y="0.716" type="line"/>
      <point x="666.877" y="408.516" type="line"/>
      <point x="661.258" y="408.516" type="line"/>
    </contour>
    <contour>
      <point x="661.258" y="408.516" type="line"/>
      <point x="328.626" y="98.229" type="line"/>
      <point x="328.626" y="92.229" type="line"/>
      <point x="719.167" y="92.229" type="line"/>
      <point x="739.625" y="192.231" type="line"/>
      <point x="733.625" y="192.231" type="line"/>
      <point x="726.425" y="174.941"/>
      <point x="715.084" y="164.516"/>
      <point x="692.981" y="164.516" type="curve"/>
      <point x="447.453" y="164.516" type="line"/>
      <point x="666.097" y="357.243" type="line"/>
    </contour>
    <contour>
      <point x="666.874" y="38.516" type="curve"/>
      <point x="522.895" y="38.516" type="line"/>
      <point x="522.895" y="19.916"/>
      <point x="507.851" y="6.116"/>
      <point x="489.765" y="6.116" type="curve" smooth="yes"/>
      <point x="483.222" y="6.116" type="line"/>
      <point x="483.139" y="0.116" type="line"/>
      <point x="706.621" y="0.116" type="line"/>
      <point x="706.537" y="6.116" type="line"/>
      <point x="699.994" y="6.116" type="line" smooth="yes"/>
      <point x="682.039" y="6.116"/>
      <point x="666.874" y="20.516"/>
    </contour>
    <contour>
      <point x="252.613" y="308.253" type="line"/>
      <point x="24.044" y="308.253" type="line"/>
      <point x="24.119" y="313.653" type="line"/>
      <point x="35.408" y="313.642" type="line" smooth="yes"/>
      <point x="51.686" y="313.626"/>
      <point x="65.225" y="326.671"/>
      <point x="65.225" y="342.868" type="curve" smooth="yes"/>
      <point x="65.225" y="632.446" type="line"/>
      <point x="65.225" y="665.781"/>
      <point x="48.673" y="674.853"/>
      <point x="24.428" y="674.853" type="curve"/>
      <point x="20" y="674.853" type="line"/>
      <point x="20" y="680.253" type="line"/>
      <point x="50.476" y="680.855"/>
      <point x="159.476" y="692.973"/>
      <point x="206.042" y="714.813" type="curve"/>
      <point x="211.442" y="714.813" type="line"/>
      <point x="211.442" y="342.516" type="line" smooth="yes"/>
      <point x="211.442" y="326.478"/>
      <point x="225.09" y="313.625"/>
      <point x="241.25" y="313.642" type="curve" smooth="yes"/>
      <point x="252.538" y="313.653" type="line"/>
    </contour>
    <component base="fraction" xOffset="99"/>
  </outline>
</glyph>
<glyph name="threequarters" format="2">
  <advance width="839"/>
  <unicode hex="00BE"/>
  <outline>
    <contour>
      <point x="179.626" y="714.113" type="curve" smooth="yes"/>
      <point x="114.87" y="715.017"/>
      <point x="56.335" y="700.265"/>
      <point x="24.626" y="676.235" type="curve"/>
      <point x="64.472" y="564.951" type="line"/>
      <point x="69.872" y="564.951" type="line"/>
      <point x="68.237" y="642.787"/>
      <point x="81.147" y="677.068"/>
      <point x="123.626" y="683.113" type="curve" smooth="yes"/>
      <point x="150.754" y="686.973"/>
      <point x="184.882" y="678.394"/>
      <point x="189.626" y="635.113" type="curve" smooth="yes"/>
      <point x="195.076" y="585.388"/>
      <point x="156.161" y="540.587"/>
      <point x="105.698" y="543.071" type="curve"/>
      <point x="104.713" y="537.671" type="line"/>
      <point x="143.851" y="536.711"/>
      <point x="200.626" y="513.902"/>
      <point x="200.626" y="446.113" type="curve" smooth="yes"/>
      <point x="200.626" y="366.741"/>
      <point x="122.407" y="326.113"/>
      <point x="32.737" y="328.113" type="curve"/>
      <point x="31.657" y="323.113" type="line"/>
      <point x="155.436" y="255.113"/>
      <point x="347.626" y="290.113"/>
      <point x="347.626" y="435.113" type="curve" smooth="yes"/>
      <point x="347.626" y="526.454"/>
      <point x="271.272" y="544.589"/>
      <point x="230.599" y="545.702" type="curve"/>
      <point x="273.839" y="534.011"/>
      <point x="329.489" y="552.799"/>
      <point x="329.489" y="616.608" type="curve" smooth="yes"/>
      <point x="329.489" y="680.351"/>
      <point x="273.92" y="712.797"/>
    </contour>
    <contour>
      <point x="602.871" y="267.266" type="line"/>
      <point x="602.871" y="0.716" type="line"/>
      <point x="746.877" y="0.716" type="line"/>
      <point x="746.877" y="408.516" type="line"/>
      <point x="741.258" y="408.516" type="line"/>
    </contour>
    <contour>
      <point x="741.258" y="408.516" type="line"/>
      <point x="408.626" y="98.229" type="line"/>
      <point x="408.626" y="92.229" type="line"/>
      <point x="799.167" y="92.229" type="line"/>
      <point x="819.625" y="192.231" type="line"/>
      <point x="813.625" y="192.231" type="line"/>
      <point x="806.425" y="174.941"/>
      <point x="795.084" y="164.516"/>
      <point x="772.981" y="164.516" type="curve"/>
      <point x="527.453" y="164.516" type="line"/>
      <point x="746.097" y="357.243" type="line"/>
    </contour>
    <contour>
      <point x="746.874" y="38.516" type="curve"/>
      <point x="602.895" y="38.516" type="line"/>
      <point x="602.895" y="19.916"/>
      <point x="587.851" y="6.116"/>
      <point x="569.765" y="6.116" type="curve" smooth="yes"/>
      <point x="563.222" y="6.116" type="line"/>
      <point x="563.139" y="0.116" type="line"/>
      <point x="786.621" y="0.116" type="line"/>
      <point x="786.537" y="6.116" type="line"/>
      <point x="779.994" y="6.116" type="line" smooth="yes"/>
      <point x="762.039" y="6.116"/>
      <point x="746.874" y="20.516"/>
    </contour>
    <component base="fraction" xOffset="168"/>
  </outline>
</glyph>
<glyph name="AE" format="2">
  <advance width="941"/>
  <unicode hex="00C6"/>
  <anchor x="170" y="700" name="top"/>
  <outline>
    <contour>
      <point x="713.426" y="700" type="line"/>
      <point x="305.436" y="699.442" type="line"/>
      <point x="305.436" y="687.948" type="line"/>
      <point x="310.034" y="687.948" type="line"/>
      <point x="331.591" y="687.948"/>
      <point x="344.078" y="668.081"/>
      <point x="335.006" y="648.215" type="curve"/>
      <point x="-53" y="78.594" type="line" smooth="yes"/>
      <point x="-159" y="-77"/>
      <point x="-244" y="-87"/>
      <point x="-339" y="-81" type="curve"/>
      <point x="-340" y="-91" type="line"/>
      <point x="-217" y="-141"/>
      <point x="-72" y="-129"/>
      <point x="40.216" y="54.501" type="curve" smooth="yes"/>
      <point x="357.757" y="575.308" type="line" smooth="yes"/>
      <point x="460.757" y="649.478" type="line"/>
      <point x="713.426" y="649.478" type="line"/>
    </contour>
    <contour>
      <point x="540.588" y="700" type="line"/>
      <point x="337.623" y="646.498" type="line"/>
      <point x="335.555" y="0" type="line"/>
      <point x="540.588" y="0" type="line"/>
    </contour>
    <contour>
      <point x="797.604" y="367.218" type="line"/>
      <point x="167.949" y="367.218" type="line"/>
      <point x="162.949" y="317.218" type="line"/>
      <point x="797.604" y="317.218" type="line"/>
    </contour>
    <contour>
      <point x="337.788" y="58.357" type="line"/>
      <point x="335.55" y="58.357" type="line"/>
      <point x="335.046" y="31.561"/>
      <point x="313.202" y="9.984"/>
      <point x="286.278" y="9.984" type="curve" smooth="yes"/>
      <point x="286.161" y="9.984"/>
      <point x="276.668" y="10"/>
      <point x="276.547" y="10" type="curve"/>
      <point x="276.423" y="0" type="line"/>
      <point x="337.788" y="0" type="line"/>
    </contour>
    <contour>
      <point x="880.54" y="50.59" type="line"/>
      <point x="537.769" y="50.59" type="line"/>
      <point x="537.769" y="0" type="line"/>
      <point x="880.54" y="0" type="line"/>
    </contour>
    <contour>
      <point x="941.42" y="231.543" type="line"/>
      <point x="931.42" y="231.543" type="line"/>
      <point x="900.33" y="117.359"/>
      <point x="819.855" y="50.592"/>
      <point x="723.892" y="50.592" type="curve"/>
      <point x="687.588" y="0" type="line"/>
      <point x="903.13" y="0" type="line"/>
    </contour>
    <contour>
      <point x="797.604" y="319.644" type="line"/>
      <point x="679.476" y="319.644" type="line"/>
      <point x="679.476" y="317.406" type="line"/>
      <point x="742.95" y="316.212"/>
      <point x="788.059" y="270.942"/>
      <point x="787.847" y="208.134" type="curve" smooth="yes"/>
      <point x="787.831" y="203.4" type="line"/>
      <point x="797.604" y="203.276" type="line"/>
    </contour>
    <contour>
      <point x="797.604" y="481.235" type="line"/>
      <point x="787.831" y="481.11" type="line"/>
      <point x="787.848" y="476.376" type="line" smooth="yes"/>
      <point x="788.073" y="413.574"/>
      <point x="743.023" y="368.306"/>
      <point x="679.476" y="367.108" type="curve"/>
      <point x="679.476" y="364.872" type="line"/>
      <point x="797.604" y="364.872" type="line"/>
    </contour>
    <contour>
      <point x="713.426" y="652.218" type="line"/>
      <point x="574.808" y="652.218" type="line"/>
      <point x="574.808" y="649.51" type="line"/>
      <point x="655.792" y="647.987"/>
      <point x="703.531" y="599.769"/>
      <point x="703.337" y="519.891" type="curve" smooth="yes"/>
      <point x="703.318" y="512.067" type="line"/>
      <point x="713.426" y="511.917" type="line"/>
    </contour>
    <contour>
      <point x="713.426" y="718.187" type="line"/>
      <point x="694.477" y="710.201"/>
      <point x="634.812" y="699.987"/>
      <point x="591.452" y="699.987" type="curve"/>
      <point x="713.426" y="688.909" type="line"/>
    </contour>
  </outline>
</glyph>
<glyph name="Eth" format="2">
  <advance width="878"/>
  <unicode hex="00D0"/>
  <outline>
    <contour>
      <point x="66" y="375.016" type="line"/>
      <point x="66" y="325.016" type="line"/>
      <point x="456" y="325.016" type="line"/>
      <point x="456" y="375.016" type="line"/>
    </contour>
    <contour>
      <point x="347.983" y="689.975" type="line"/>
      <point x="142.862" y="669.975" type="line"/>
      <point x="142.862" y="0.057" type="line"/>
      <point x="347.983" y="0.057" type="line"/>
    </contour>
    <contour>
      <point x="145.775" y="0" type="line"/>
      <point x="145.775" y="72.864" type="line"/>
      <point x="142.865" y="72.864" type="line"/>
      <point x="142.21" y="38.029"/>
      <point x="113.813" y="9.979"/>
      <point x="78.811" y="9.979" type="curve" smooth="yes"/>
      <point x="78.659" y="9.979"/>
      <point x="66.318" y="10"/>
      <point x="66.161" y="10" type="curve"/>
      <point x="66" y="0" type="line"/>
    </contour>
    <contour>
      <point x="444.536" y="0.057" type="line"/>
      <point x="695" y="0"/>
      <point x="844" y="130"/>
      <point x="843.678" y="349.836" type="curve" smooth="yes"/>
      <point x="844" y="570"/>
      <point x="695" y="700"/>
      <point x="444.536" y="699.975" type="curve"/>
      <point x="357.383" y="699.975"/>
      <point x="280.444" y="699.582"/>
      <point x="213.404" y="699.582" type="curve" smooth="yes"/>
      <point x="51.066" y="699.582"/>
      <point x="-72" y="632.434"/>
      <point x="-100" y="483.931" type="curve"/>
      <point x="-90" y="479.931" type="line"/>
      <point x="-52" y="568.897"/>
      <point x="12" y="646.935"/>
      <point x="203.382" y="646.935" type="curve" smooth="yes"/>
      <point x="318.112" y="646.935"/>
      <point x="423" y="650"/>
      <point x="424.536" y="649.944" type="curve" smooth="yes"/>
      <point x="549" y="650"/>
      <point x="624" y="538"/>
      <point x="623.678" y="349.909" type="curve" smooth="yes"/>
      <point x="624" y="161"/>
      <point x="549" y="50"/>
      <point x="424.536" y="50.44" type="curve"/>
      <point x="346.345" y="50.444"/>
      <point x="268.154" y="50.448"/>
      <point x="189.963" y="50.452" type="curve"/>
      <point x="191.499" y="0.057" type="line"/>
    </contour>
  </outline>
</glyph>
<glyph name="multiply" format="2">
  <advance width="410"/>
  <unicode hex="00D7"/>
  <outline>
    <contour>
      <point x="370.023" y="428.802" type="line"/>
      <point x="324.061" y="474.764" type="line"/>
      <point x="40" y="190.703" type="line"/>
      <point x="85.962" y="144.741" type="line"/>
    </contour>
    <contour>
      <point x="85.962" y="474.764" type="line"/>
      <point x="40" y="428.802" type="line"/>
      <point x="324.061" y="144.741" type="line"/>
      <point x="370.023" y="190.703" type="line"/>
    </contour>
  </outline>
</glyph>
<glyph name="Oslash" format="2">
  <advance width="905"/>
  <unicode hex="00D8"/>
  <anchor x="450" y="778" name="top"/>
  <outline>
    <contour>
      <point x="722" y="726" type="line"/>
      <point x="109" y="13" type="line"/>
      <point x="153" y="-23" type="line"/>
      <point x="766" y="692" type="line"/>
    </contour>
    <contour>
      <point x="352" y="433" type="curve"/>
      <point x="364" y="433" type="line"/>
      <point x="331" y="542"/>
      <point x="367" y="651"/>
      <point x="473" y="664" type="curve" smooth="yes"/>
      <point x="602" y="680"/>
      <point x="685" y="539"/>
      <point x="685" y="355" type="curve" smooth="yes"/>
      <point x="685" y="160"/>
      <point x="591" y="36"/>
      <point x="453" y="36" type="curve" smooth="yes"/>
      <point x="307" y="36"/>
      <point x="216" y="176"/>
      <point x="216" y="387" type="curve" smooth="yes"/>
      <point x="216" y="518"/>
      <point x="251" y="639"/>
      <point x="306" y="697" type="curve"/>
      <point x="300" y="707" type="line"/>
      <point x="120" y="676"/>
      <point x="-5" y="536"/>
      <point x="-5" y="353" type="curve" smooth="yes"/>
      <point x="-5" y="133"/>
      <point x="178" y="-14"/>
      <point x="452" y="-14" type="curve" smooth="yes"/>
      <point x="724" y="-14"/>
      <point x="906" y="130"/>
      <point x="906" y="355" type="curve" smooth="yes"/>
      <point x="906" y="632"/>
      <point x="632" y="746"/>
      <point x="470" y="714" type="curve" smooth="yes"/>
      <point x="323" y="685"/>
      <point x="287" y="542"/>
    </contour>
  </outline>
</glyph>
<glyph name="eth" format="2">
  <advance width="842"/>
  <unicode hex="00F0"/>
  <outline>
    <contour>
      <point x="30" y="375.016" type="line"/>
      <point x="30" y="325.016" type="line"/>
      <point x="420" y="325.016" type="line"/>
      <point x="420" y="375.016" type="line"/>
    </contour>
    <contour>
      <point x="408.536" y="699.975" type="curve"/>
      <point x="144.125" y="699.975" type="line"/>
      <point x="144.125" y="649.931" type="line"/>
      <point x="310.326" y="649.931"/>
      <point x="388.528" y="649.944"/>
      <point x="388.536" y="649.944" type="curve" smooth="yes"/>
      <point x="514.282" y="649.944"/>
      <point x="592.678" y="538.428"/>
      <point x="592.678" y="349.709" type="curve" smooth="yes"/>
      <point x="592.678" y="161.597"/>
      <point x="514.282" y="50.44"/>
      <point x="388.536" y="50.44" type="curve" smooth="yes"/>
      <point x="388.528" y="50.44"/>
      <point x="313.98" y="50.452"/>
      <point x="153.963" y="50.452" type="curve"/>
      <point x="155.499" y="0.057" type="line"/>
      <point x="408.536" y="0.057" type="line"/>
      <point x="659.425" y="0.057"/>
      <point x="807.678" y="129.928"/>
      <point x="807.678" y="349.709" type="curve" smooth="yes"/>
      <point x="807.678" y="569.876"/>
      <point x="659.425" y="699.975"/>
    </contour>
    <contour>
      <point x="311.983" y="699.975" type="line"/>
      <point x="106.862" y="699.975" type="line"/>
      <point x="106.862" y="0.057" type="line"/>
      <point x="311.983" y="0.057" type="line"/>
    </contour>
    <contour>
      <point x="109.775" y="72.864" type="line"/>
      <point x="106.865" y="72.864" type="line"/>
      <point x="106.21" y="38.029"/>
      <point x="77.813" y="9.979"/>
      <point x="42.811" y="9.979" type="curve" smooth="yes"/>
      <point x="42.659" y="9.979"/>
      <point x="30.318" y="10"/>
      <point x="30.161" y="10" type="curve"/>
      <point x="30" y="0" type="line"/>
      <point x="109.775" y="0" type="line"/>
    </contour>
    <contour>
      <point x="110.126" y="627.196" type="line"/>
      <point x="110.126" y="700.06" type="line"/>
      <point x="30.351" y="700.06" type="line"/>
      <point x="30.513" y="690.06" type="line"/>
      <point x="30.67" y="690.06"/>
      <point x="43.011" y="690.08"/>
      <point x="43.163" y="690.08" type="curve" smooth="yes"/>
      <point x="78.164" y="690.08"/>
      <point x="106.561" y="662.03"/>
      <point x="107.217" y="627.196" type="curve"/>
    </contour>
  </outline>
</glyph>
<glyph name="divide" format="2">
  <advance width="481"/>
  <unicode hex="00F7"/>
  <outline>
    <contour>
      <point x="40" y="342" type="line"/>
      <point x="40" y="277" type="line"/>
      <point x="442" y="277" type="line"/>
      <point x="442" y="342" type="line"/>
    </contour>
    <contour>
      <point x="241" y="100" type="curve" smooth="yes"/>
      <point x="269" y="100"/>
      <point x="293" y="123"/>
      <point x="293" y="152" type="curve" smooth="yes"/>
      <point x="293" y="181"/>
      <point x="269" y="204"/>
      <point x="241" y="204" type="curve" smooth="yes"/>
      <point x="212" y="204"/>
      <point x="188" y="181"/>
      <point x="188" y="152" type="curve" smooth="yes"/>
      <point x="188" y="123"/>
      <point x="212" y="100"/>
    </contour>
    <contour>
      <point x="241" y="416" type="curve" smooth="yes"/>
      <point x="269" y="416"/>
      <point x="293" y="439"/>
      <point x="293" y="468" type="curve" smooth="yes"/>
      <point x="293" y="497"/>
      <point x="269" y="520"/>
      <point x="241" y="520" type="curve"/>
      <point x="212" y="520"/>
      <point x="188" y="497"/>
      <point x="188" y="468" type="curve" smooth="yes"/>
      <point x="188" y="439"/>
      <point x="212" y="416"/>
    </contour>
  </outline>
</glyph>
<glyph name="oslash" format="2">
  <advance width="900"/>
  <unicode hex="00F8"/>
  <anchor x="330" y="500" name="top"/>
  <outline>
    <contour>
      <point x="722" y="726" type="line"/>
      <point x="109" y="13" type="line"/>
      <point x="153" y="-23" type="line"/>
      <point x="766" y="692" type="line"/>
    </contour>
    <contour>
      <point x="450" y="714" type="curve" smooth="yes"/>
      <point x="192" y="714"/>
      <point x="35" y="579"/>
      <point x="35" y="349.992" type="curve" smooth="yes"/>
      <point x="35" y="121"/>
      <point x="192" y="-14"/>
      <point x="450" y="-14" type="curve" smooth="yes"/>
      <point x="708" y="-14"/>
      <point x="866" y="121"/>
      <point x="866" y="350" type="curve" smooth="yes"/>
      <point x="866" y="579"/>
      <point x="708" y="714"/>
    </contour>
    <contour>
      <point x="450" y="36" type="curve" smooth="yes"/>
      <point x="328" y="36"/>
      <point x="256" y="153"/>
      <point x="256" y="350" type="curve" smooth="yes"/>
      <point x="256" y="547"/>
      <point x="328" y="664"/>
      <point x="450" y="664" type="curve" smooth="yes"/>
      <point x="573" y="664"/>
      <point x="645" y="547"/>
      <point x="645" y="350" type="curve" smooth="yes"/>
      <point x="645" y="153"/>
      <point x="573" y="36"/>
    </contour>
  </outline>
</glyph>
<glyph name="thorn" format="2">
  <advance width="707"/>
  <unicode hex="00FE"/>
  <outline>
    <contour>
      <point x="325" y="700" type="line"/>
      <point x="120" y="700" type="line"/>
      <point x="120" y="0" type="line"/>
      <point x="325" y="0" type="line"/>
    </contour>
    <contour>
      <point x="122" y="73" type="line"/>
      <point x="120" y="73" type="line"/>
      <point x="119" y="38"/>
      <point x="91" y="10"/>
      <point x="56" y="10" type="curve" smooth="yes"/>
      <point x="55" y="10"/>
      <point x="43" y="10"/>
      <point x="43" y="10" type="curve"/>
      <point x="43" y="0" type="line"/>
      <point x="122" y="0" type="line"/>
    </contour>
    <contour>
      <point x="122" y="627" type="line"/>
      <point x="122" y="700" type="line"/>
      <point x="43" y="700" type="line"/>
      <point x="43" y="690" type="line"/>
      <point x="43" y="690"/>
      <point x="55" y="690"/>
      <point x="56" y="690" type="curve" smooth="yes"/>
      <point x="91" y="690"/>
      <point x="119" y="662"/>
      <point x="120" y="627" type="curve"/>
    </contour>
    <contour>
      <point x="322" y="73" type="line"/>
      <point x="322" y="0" type="line"/>
      <point x="401" y="0" type="line"/>
      <point x="401" y="10" type="line"/>
      <point x="401" y="10"/>
      <point x="389" y="10"/>
      <point x="389" y="10" type="curve" smooth="yes"/>
      <point x="354" y="10"/>
      <point x="325" y="38"/>
      <point x="325" y="73" type="curve"/>
    </contour>
    <contour>
      <point x="322" y="627" type="line"/>
      <point x="325" y="627" type="line"/>
      <point x="325" y="662"/>
      <point x="354" y="690"/>
      <point x="389" y="690" type="curve" smooth="yes"/>
      <point x="389" y="690"/>
      <point x="401" y="690"/>
      <point x="401" y="690" type="curve"/>
      <point x="401" y="700" type="line"/>
      <point x="322" y="700" type="line"/>
    </contour>
    <contour>
      <point x="304" y="558" type="line" smooth="yes"/>
      <point x="304" y="558"/>
      <point x="314" y="508"/>
      <point x="314" y="508" type="curve"/>
      <point x="352" y="508" type="line"/>
      <point x="429" y="508"/>
      <point x="474" y="456"/>
      <point x="477" y="375" type="curve" smooth="yes"/>
      <point x="478" y="358"/>
      <point x="476" y="335"/>
      <point x="471" y="315" type="curve" smooth="yes"/>
      <point x="443" y="200"/>
      <point x="350" y="198"/>
      <point x="351" y="197" type="curve"/>
      <point x="351" y="187" type="line"/>
      <point x="505" y="76"/>
      <point x="702" y="182"/>
      <point x="692" y="367" type="curve" smooth="yes"/>
      <point x="686" y="470"/>
      <point x="615" y="558"/>
      <point x="416" y="558" type="curve" smooth="yes"/>
    </contour>
  </outline>
</glyph>
<glyph name="Aogonek" format="2">
  <advance width="682"/>
  <unicode hex="0104"/>
  <outline>
    <contour>
      <point x="136.092" y="72.681" type="curve"/>
      <point x="56.7" y="73.013" type="line"/>
      <point x="35.488" y="28.464"/>
      <point x="-1" y="10"/>
      <point x="-31" y="10" type="curve" smooth="yes"/>
      <point x="-31" y="10"/>
      <point x="-40" y="10"/>
      <point x="-40" y="10" type="curve"/>
      <point x="-40" y="0" type="line"/>
      <point x="183.279" y="0" type="line"/>
      <point x="183.279" y="9.908" type="line"/>
      <point x="174.487" y="9.908" type="line" smooth="yes"/>
      <point x="148.67" y="9.908"/>
      <point x="118.49" y="32.664"/>
    </contour>
    <contour>
      <point x="351.3" y="567.543" type="line"/>
      <point x="285.361" y="574.867" type="line"/>
      <point x="24.19" y="3.095" type="line"/>
      <point x="105.233" y="3.095" type="line"/>
    </contour>
    <contour>
      <point x="432.513" y="216" type="line"/>
      <point x="150.293" y="216" type="line"/>
      <point x="150.293" y="166" type="line"/>
      <point x="432.513" y="166" type="line"/>
    </contour>
    <contour>
      <point x="16.344" y="693.835" type="curve"/>
      <point x="18.226" y="683.731" type="line"/>
      <point x="181.955" y="743.731"/>
      <point x="259.532" y="486.844"/>
      <point x="306.956" y="370.504" type="curve" smooth="yes"/>
      <point x="417.399" y="99.563" type="line" smooth="yes"/>
      <point x="537.606" y="-195"/>
      <point x="792.285" y="-279"/>
      <point x="977.975" y="-171" type="curve"/>
      <point x="976.102" y="-161" type="line"/>
      <point x="794.24" y="-210"/>
      <point x="694.364" y="-6"/>
      <point x="623.138" y="155.212" type="curve" smooth="yes"/>
      <point x="469.755" y="501.535" type="line" smooth="yes"/>
      <point x="359.744" y="749.927"/>
      <point x="204.45" y="806.42"/>
    </contour>
    <contour>
      <point x="471.652" y="8.396" type="line"/>
      <point x="416.071" y="13.903"/>
      <point x="341.771" y="-8"/>
      <point x="331.071" y="-84" type="curve" smooth="yes"/>
      <point x="311.432" y="-223"/>
      <point x="526.071" y="-257"/>
      <point x="535.117" y="-121" type="curve"/>
      <point x="529.117" y="-115" type="line"/>
      <point x="479.071" y="-155"/>
      <point x="423.071" y="-134"/>
      <point x="417.071" y="-73" type="curve" smooth="yes"/>
      <point x="414.071" y="-39"/>
      <point x="427.071" y="-7"/>
      <point x="481.652" y="5.396" type="curve"/>
    </contour>
  </outline>
</glyph>
<glyph name="aogonek" format="2">
  <advance width="720"/>
  <unicode hex="0105"/>
  <outline>
    <contour>
      <point x="351.414" y="714" type="line" smooth="yes"/>
      <point x="263.51" y="458" type="line"/>
      <point x="448.812" y="24.262" type="line"/>
      <point x="681.781" y="36.551" type="line"/>
    </contour>
    <contour>
      <point x="351.414" y="714" type="line"/>
      <point x="342.408" y="714" type="line"/>
      <point x="338.408" y="680.283"/>
      <point x="297.112" y="589.922"/>
      <point x="285.361" y="564.867" type="curve"/>
      <point x="24.19" y="3.095" type="line"/>
      <point x="105.233" y="3.095" type="line"/>
      <point x="351.3" y="557.543" type="line"/>
    </contour>
    <contour>
      <point x="432.513" y="216" type="line"/>
      <point x="150.293" y="216" type="line"/>
      <point x="150.293" y="166" type="line"/>
      <point x="432.513" y="166" type="line"/>
    </contour>
    <contour>
      <point x="136.092" y="72.681" type="curve"/>
      <point x="56.7" y="73.013" type="line"/>
      <point x="35.488" y="28.464"/>
      <point x="-1" y="10"/>
      <point x="-31" y="10" type="curve" smooth="yes"/>
      <point x="-31" y="10"/>
      <point x="-40" y="10"/>
      <point x="-40" y="10" type="curve"/>
      <point x="-40" y="0" type="line"/>
      <point x="183.279" y="0" type="line"/>
      <point x="183.279" y="9.908" type="line"/>
      <point x="174.487" y="9.908" type="line" smooth="yes"/>
      <point x="148.67" y="9.908"/>
      <point x="118.49" y="32.664"/>
    </contour>
    <contour>
      <point x="501" y="0" type="curve" smooth="yes"/>
      <point x="574" y="17"/>
      <point x="734" y="1"/>
      <point x="760.264" y="0" type="curve"/>
      <point x="760.264" y="10.38" type="line"/>
      <point x="760.264" y="10.38"/>
      <point x="751.901" y="12"/>
      <point x="751.901" y="12" type="curve" smooth="yes"/>
      <point x="721.254" y="18"/>
      <point x="686.244" y="28.464"/>
      <point x="664.032" y="73.013" type="curve"/>
      <point x="428.143" y="73.013" type="line"/>
      <point x="444" y="33"/>
      <point x="442" y="14"/>
      <point x="421" y="0" type="curve" smooth="yes"/>
      <point x="388" y="-22"/>
      <point x="359" y="-37"/>
      <point x="351" y="-84" type="curve" smooth="yes"/>
      <point x="328" y="-220"/>
      <point x="548" y="-257"/>
      <point x="555.404" y="-121" type="curve"/>
      <point x="549.404" y="-115" type="line"/>
      <point x="501" y="-155"/>
      <point x="442" y="-133"/>
      <point x="437" y="-73" type="curve" smooth="yes"/>
      <point x="434" y="-42"/>
      <point x="448" y="-12"/>
    </contour>
  </outline>
</glyph>
<glyph name="Hbar" format="2">
  <advance width="893"/>
  <unicode hex="0126"/>
  <outline>
    <contour>
      <point x="853" y="538" type="line"/>
      <point x="42" y="538" type="line"/>
      <point x="42" y="488" type="line"/>
      <point x="853" y="488" type="line"/>
    </contour>
    <contour>
      <point x="110" y="627" type="line"/>
      <point x="110" y="700" type="line"/>
      <point x="30" y="700" type="line"/>
      <point x="30" y="690" type="line"/>
      <point x="32" y="690"/>
      <point x="41" y="690"/>
      <point x="43" y="690" type="curve" smooth="yes"/>
      <point x="78" y="690"/>
      <point x="106" y="662"/>
      <point x="107" y="627" type="curve"/>
    </contour>
    <contour>
      <point x="312" y="700" type="line"/>
      <point x="107" y="700" type="line"/>
      <point x="107" y="70" type="line" smooth="yes"/>
      <point x="107" y="-30"/>
      <point x="105" y="-121"/>
      <point x="-24" y="-172" type="curve"/>
      <point x="-24" y="-182" type="line"/>
      <point x="221" y="-258"/>
      <point x="312" y="-82"/>
      <point x="312" y="70" type="curve" smooth="yes"/>
    </contour>
    <contour>
      <point x="309" y="627" type="line"/>
      <point x="312" y="627" type="line"/>
      <point x="313" y="664"/>
      <point x="342" y="690"/>
      <point x="376" y="690" type="curve" smooth="yes"/>
      <point x="378" y="690"/>
      <point x="387" y="690"/>
      <point x="389" y="690" type="curve"/>
      <point x="389" y="700" type="line"/>
      <point x="309" y="700" type="line"/>
    </contour>
    <contour>
      <point x="590" y="375" type="line"/>
      <point x="302" y="375" type="line"/>
      <point x="302" y="325" type="line"/>
      <point x="590" y="325" type="line"/>
    </contour>
    <contour>
      <point x="582" y="73" type="line"/>
      <point x="580" y="73" type="line"/>
      <point x="579" y="38"/>
      <point x="550" y="10"/>
      <point x="515" y="10" type="curve" smooth="yes"/>
      <point x="513" y="10"/>
      <point x="505" y="10"/>
      <point x="503" y="10" type="curve"/>
      <point x="503" y="0" type="line"/>
      <point x="582" y="0" type="line"/>
    </contour>
    <contour>
      <point x="579" y="0" type="line"/>
      <point x="784" y="0" type="line"/>
      <point x="785" y="610" type="line" smooth="yes"/>
      <point x="786" y="700"/>
      <point x="785" y="812"/>
      <point x="914" y="852" type="curve"/>
      <point x="914" y="862" type="line"/>
      <point x="712" y="911"/>
      <point x="581" y="762"/>
      <point x="580" y="610" type="curve" smooth="yes"/>
    </contour>
    <contour>
      <point x="782" y="73" type="line"/>
      <point x="782" y="0" type="line"/>
      <point x="861" y="0" type="line"/>
      <point x="861" y="10" type="line"/>
      <point x="859" y="10"/>
      <point x="851" y="10"/>
      <point x="849" y="10" type="curve" smooth="yes"/>
      <point x="812" y="10"/>
      <point x="785" y="40"/>
      <point x="785" y="73" type="curve"/>
    </contour>
  </outline>
</glyph>
